<svg xmlns="http://www.w3.org/2000/svg" viewBox="0 0 1343.68 580.07"><defs><style>.cls-1{opacity:0.75;}.cls-2{fill:none;stroke:#80a436;stroke-miterlimit:10;stroke-width:3px;}</style></defs><title>404</title><g id="Capa_2" data-name="Capa 2"><g id="Capa_1-2" data-name="Capa 1"><g class="cls-1"><path class="cls-2" d="M414.67,454.36h-54v116.5H222.19V454.36H10.8L1.54,364.48l220.65-353V9.21H360.67V342.5h54ZM222.19,342.5V197.07l-8.49,14.66L131.93,342.5Z"/><path class="cls-2" d="M845.83,472.68Q821,525.35,776.21,552T672.83,578.57q-59.42,0-104.34-26.62t-69.82-79.07q-24.89-52.45-24.88-128.07V236.42q0-75.6,24.88-128.46T568.1,28.31q44.55-26.8,104-26.81,58.62,0,103.57,27t70,79.85q25.07,52.86,25.07,128.07V344.81Q870.71,420,845.83,472.68ZM716.61,138.05Q701,113.37,672.06,113.37q-29.71,0-44.94,24.49t-15.24,81.2V361.4q0,57.86,15.43,81.58t45.52,23.72q28.93,0,44.17-23.91t15.23-81.39V219.06Q732.23,162.75,716.61,138.05Z"/><path class="cls-2" d="M1342.18,454.36h-54v116.5H1149.7V454.36H938.31l-9.26-89.88,220.65-353V9.21h138.48V342.5h54ZM1149.7,342.5V197.07l-8.49,14.66L1059.44,342.5Z"/></g></g></g></svg>