<svg xmlns="http://www.w3.org/2000/svg" viewBox="0 0 95 95"><defs><style>.cls-1{fill:#fff;}.cls-2{fill:#80a436;}</style></defs><title>icon3-p2</title><g id="Capa_2" data-name="Capa 2"><g id="Capa_1-2" data-name="Capa 1"><path class="cls-1" d="M81.09,13.91A47.5,47.5,0,0,0,13.91,81.09,47.5,47.5,0,0,0,81.09,13.91Z"/><path class="cls-2" d="M71.63,45.57,53.68,27.62l-5.79,5.79-6-5.77L24,45.58l7.23,7.09a4.78,4.78,0,0,0,4,7.35h0a4.8,4.8,0,0,0,4.79,4.79h0v0a4.79,4.79,0,0,0,7.65,3.83,4.8,4.8,0,0,0,2.88,1,4.84,4.84,0,0,0,4.86-4.89,4.86,4.86,0,0,0,4.9-4.91h.2A4.85,4.85,0,0,0,65.25,55a4.73,4.73,0,0,0-.63-2.42ZM57,54.62l-1.9,2L57,58.43h0a2.07,2.07,0,0,1,0,2.86,2.08,2.08,0,0,1-2.91.11l0,0h0l-1.87-1.89-2,1.95,2,2a2.07,2.07,0,0,1-2.83,3,5,5,0,0,0,.27-1.59,4.79,4.79,0,0,0-4.79-4.79h0v0a4.8,4.8,0,0,0-4.79-4.79h0a4.8,4.8,0,0,0-4.79-4.79,4.75,4.75,0,0,0-1.92.4L28,45.56l14-14,4,3.83-6.48,6.48a4.86,4.86,0,1,0,6.87,6.87l5.4-5.41,10,10,.23.27a2.08,2.08,0,0,1,0,2.78,2.07,2.07,0,0,1-2.81.21ZM42.87,64.84a2,2,0,1,1,2,2A2,2,0,0,1,42.87,64.84ZM38.07,60a2,2,0,1,1,2,2A2,2,0,0,1,38.07,60Zm-4.8-4.8a2,2,0,1,1,2,2A2,2,0,0,1,33.27,55.23ZM62.8,50.46,51.71,39.38l-7.38,7.38a2.08,2.08,0,0,1-2.92,0,2.07,2.07,0,0,1,0-2.93L53.68,31.57l14,14Z"/></g></g></svg>