<svg xmlns="http://www.w3.org/2000/svg" viewBox="0 0 95 95"><defs><style>.cls-1{fill:#fff;}.cls-2{fill:#80a436;}</style></defs><title>icon2-p2</title><g id="Capa_2" data-name="Capa 2"><g id="Capa_1-2" data-name="Capa 1"><path class="cls-1" d="M81.09,13.91A47.5,47.5,0,0,0,13.91,81.09,47.5,47.5,0,0,0,81.09,13.91Z"/><path class="cls-2" d="M48.8,46.33h-4a4.16,4.16,0,0,1,0-8.32h8a1.88,1.88,0,1,0,0-3.76H48.67V30.09a1.88,1.88,0,0,0-3.76,0v4.16h-.13a7.92,7.92,0,0,0,0,15.84h4a4.16,4.16,0,1,1,0,8.32h-8a1.88,1.88,0,0,0,0,3.76h4.16v4.16a1.88,1.88,0,1,0,3.76,0V62.17h.13a7.92,7.92,0,0,0,0-15.84Z"/></g></g></svg>