<svg xmlns="http://www.w3.org/2000/svg" viewBox="0 0 74 60.35"><defs><style>.cls-1,.cls-3{fill:#878788;}.cls-1{fill-rule:evenodd;}.cls-2{fill:#80a436;}</style></defs><title>icon_header_color</title><g id="Capa_2" data-name="Capa 2"><g id="Capa_1-2" data-name="Capa 1"><path class="cls-1" d="M74,28.66c-7.26-6.29-21.9-4.86-25,11.78-2.2,19.9-13.75,23.64-25.29,16.69Z"/><path class="cls-1" d="M50.29,3.45c-7.26-6.3-21.91-4.86-25,11.78C23.09,35.13,11.54,38.87,0,31.92Z"/><path class="cls-2" d="M62.07,16.08,36.86,30.35c.18-1.16.31-2.24.53-3.3a21.61,21.61,0,0,1,3.18-7.83,14.6,14.6,0,0,1,21.27-3.47c.1.07.2.12.3.18Z"/><path class="cls-3" d="M36.77,30.48a31.16,31.16,0,0,1-3,9.46,16.37,16.37,0,0,1-3.4,4.56,12,12,0,0,1-7,3.17A16.65,16.65,0,0,1,14.77,46c-1-.42-1.88-.93-2.91-1.45Z"/></g></g></svg>