<svg xmlns="http://www.w3.org/2000/svg" viewBox="0 0 96.92 95"><defs><style>.cls-1{fill:#fff;}.cls-2{fill:#80a436;}</style></defs><title>Recurso 5</title><g id="Capa_2" data-name="Capa 2"><g id="Capa_1-2" data-name="Capa 1"><path class="cls-1" d="M92.69,50.27A15.75,15.75,0,0,1,88,29.53,9.73,9.73,0,0,0,76.67,15.38,15.74,15.74,0,0,1,57.51,6.16a9.73,9.73,0,0,0-18.1,0,15.74,15.74,0,0,1-19.16,9.22A9.73,9.73,0,0,0,9,29.53,15.77,15.77,0,0,1,4.24,50.27a9.73,9.73,0,0,0,4,17.64A15.75,15.75,0,0,1,21.52,84.54a9.73,9.73,0,0,0,16.31,7.85,15.75,15.75,0,0,1,21.26,0A9.73,9.73,0,0,0,75.4,84.54,15.76,15.76,0,0,1,88.66,67.91a9.72,9.72,0,0,0,4-17.64Z"/><path class="cls-2" d="M61.74,46.91,45.62,58.69a3,3,0,0,1-1.76.57,3.88,3.88,0,0,1-.48,0A2.93,2.93,0,0,1,41.44,58l-4.83-6.87a3,3,0,1,1,4.86-3.41l3.09,4.39,13.68-10a3,3,0,0,1,3.5,4.79Z"/></g></g></svg>