<svg id="Capa_1" data-name="Capa 1" xmlns="http://www.w3.org/2000/svg" viewBox="0 0 471.53 72.7"><defs><style>.cls-1{fill:#fff;}.cls-2{fill:none;stroke:#fff;stroke-linecap:round;stroke-miterlimit:10;stroke-width:1.33px;}</style></defs><title>icons-certificaciones</title><path class="cls-1" d="M453.65,105.74a36.36,36.36,0,1,1,25.7-10.65,36.08,36.08,0,0,1-25.7,10.65m0-69.41A33.06,33.06,0,1,0,477,92.76a33.06,33.06,0,0,0-23.37-56.43" transform="translate(-18.47 -33.04)"/><polygon class="cls-1" points="416.31 56.84 413.73 56.84 409.09 39.91 412.25 39.91 415.25 51.15 418.25 39.91 420.94 39.91 416.31 56.84"/><path class="cls-1" d="M447.09,84.77h-5.44c.07,2,.6,3,1.64,3s1.59-.63,1.72-1.86l2,.48c-.38,2.44-1.66,3.65-3.84,3.65q-4.11,0-4.11-5.88c0-3.64,1.36-5.43,4.06-5.43s4,1.79,4,5.43Zm-2.5-1.62c-.12-1.43-.6-2.16-1.44-2.16s-1.37.73-1.5,2.16Z" transform="translate(-18.47 -33.04)"/><path class="cls-1" d="M456.4,91.5c0,2.92-1.28,4.39-3.87,4.39a3.83,3.83,0,0,1-3.9-3l2-1c.39,1,1,1.57,1.89,1.57s1.2-.68,1.2-2V89a3.07,3.07,0,0,1-2,.68c-2.15,0-3.24-1.67-3.24-5,0-3.92,1.5-5.88,4.47-5.88a7.21,7.21,0,0,1,3.44.79Zm-2.67-10.21a2.23,2.23,0,0,0-1-.22c-1.1,0-1.63,1.18-1.63,3.56,0,1.76.39,2.65,1.19,2.65a2.3,2.3,0,0,0,1.42-.38Z" transform="translate(-18.47 -33.04)"/><path class="cls-1" d="M465.88,87.89c0,.36.17.53.51.53h.33v1.45h-.94a1.6,1.6,0,0,1-1.36-.81,3.84,3.84,0,0,1-2.95,1q-3.25,0-3.25-3.54c0-2.11,1.2-3.15,3.6-3.15h1.42V82c0-.69-.39-1-1.16-1a1.5,1.5,0,0,0-1.5,1.25l-2.1-.39a3.41,3.41,0,0,1,3.75-3.11c2.44,0,3.65,1,3.65,3ZM462.11,85a1.21,1.21,0,0,0-1.36,1.39c0,1,.46,1.58,1.36,1.58a1.23,1.23,0,0,0,1.13-.61V85Z" transform="translate(-18.47 -33.04)"/><path class="cls-1" d="M475.84,89.88h-2.63V82c0-.55-.25-.85-.76-.85a3.52,3.52,0,0,0-1.86.68v8h-2.65V79h1.95l.26,1a5.84,5.84,0,0,1,3.54-1.25c1.43,0,2.15,1.08,2.15,3.26Z" transform="translate(-18.47 -33.04)"/><path class="cls-1" d="M448.8,74.19c3.53-.46,6.49-3.78,6.49-3.78a21.9,21.9,0,0,0,12.85-6.67c7.51-7.82,1.65-16.89-.8-21.4-.53,3.24-3.25,6.29-9.92,11.66s-5.92,12.19-3.32,15.5a10.22,10.22,0,0,1-3.27,3.21,12.92,12.92,0,0,1-3.19,1.1,17.18,17.18,0,0,1-4.91.1,13.64,13.64,0,0,0,6.07.28" transform="translate(-18.47 -33.04)"/><path class="cls-1" d="M450.11,72.2a5,5,0,0,1-1.34-1.86c1.56-1.4,2.5-4.69-.31-7.89s-3.9-4.94-3.89-6.58c-1.58,2-5.24,6-2.21,10.46a10.93,10.93,0,0,0,5.75,4.36A6.31,6.31,0,0,0,451,73.05l.26-.16s-.41,0-1.14-.69" transform="translate(-18.47 -33.04)"/><path class="cls-2" d="M318.48,73.08v32a35.64,35.64,0,1,0-10.39-1.54" transform="translate(-18.47 -33.04)"/><path class="cls-1" d="M292.79,66l.13-1.83,3.23.22a5.46,5.46,0,0,1,.67,1.64,6.12,6.12,0,0,1,.17,1.81,4.5,4.5,0,0,1-.7,2.19,4.11,4.11,0,0,1-1.61,1.46,4.18,4.18,0,0,1-2.2.42,3.93,3.93,0,0,1-2.1-.73A4,4,0,0,1,289,69.47a4.85,4.85,0,0,1-.4-2.32,5.24,5.24,0,0,1,.45-1.79,5,5,0,0,1,1-1.47l1.41,1.3a3.49,3.49,0,0,0-.73,1,3,3,0,0,0-.32,1.12,2.18,2.18,0,0,0,.24,1.19,2.25,2.25,0,0,0,.8.88,2.43,2.43,0,0,0,1.2.38,2.49,2.49,0,0,0,1.25-.22,2.16,2.16,0,0,0,.92-.77,2.36,2.36,0,0,0,.39-1.17,3.17,3.17,0,0,0-.3-1.43Z" transform="translate(-18.47 -33.04)"/><path class="cls-1" d="M289.87,60.65l.79-2L296.54,61l1.28-3.2,1.68.67-2.06,5.18Z" transform="translate(-18.47 -33.04)"/><path class="cls-1" d="M299.57,54.87a1.56,1.56,0,0,0,1.1-.59,1.42,1.42,0,0,0,.35-1.15,1.72,1.72,0,0,0-.68-1.11L296.66,49,298,47.32l3.68,3.06a3.67,3.67,0,0,1,1.14,1.53,3,3,0,0,1,.13,1.77,4.68,4.68,0,0,1-2.5,3,3.1,3.1,0,0,1-1.77.22,3.67,3.67,0,0,1-1.72-.83L293.3,53l1.36-1.63,3.68,3.06A1.68,1.68,0,0,0,299.57,54.87Z" transform="translate(-18.47 -33.04)"/><path class="cls-1" d="M300.15,45.51l6-3.67.92,1.49-2.08,1.29,3.36,5.44-1.81,1.11-3.36-5.44L301.07,47Z" transform="translate(-18.47 -33.04)"/><path class="cls-1" d="M308.71,40.8,315,39.25l.41,1.65-4.17,1,.36,1.48,3.77-.93.41,1.63-3.77,1,.37,1.49,4.29-1.06.41,1.64-6.36,1.58Z" transform="translate(-18.47 -33.04)"/><path class="cls-1" d="M324.1,39.5l2,.21-.85,8.1-1.85-.19-3.16-5.23-.51,4.84-2-.2.85-8.11,1.86.2,3.18,5.26Z" transform="translate(-18.47 -33.04)"/><path class="cls-1" d="M332.57,42.14l5.21,3.16-.89,1.44-3.38-2.05-.94,1.55,3.12,1.9-.88,1.45-3.12-1.9-1.53,2.52-1.82-1.11Z" transform="translate(-18.47 -33.04)"/><path class="cls-1" d="M337.05,56.23l.94-2.37,0,0-1-1.17-1.72,1.47-1.38-1.61,6.19-5.31L342.43,50a3.82,3.82,0,0,1,1.06,2.39,2.59,2.59,0,0,1-1,2,3.21,3.21,0,0,1-1.45.75,2.63,2.63,0,0,1-1.49-.14l-.92,3Zm1.2-4.67,1,1.17a1.38,1.38,0,0,0,.9.55,1.2,1.2,0,0,0,1-.34,1.17,1.17,0,0,0,.46-.86,1.44,1.44,0,0,0-.41-1l-1-1.18Z" transform="translate(-18.47 -33.04)"/><path class="cls-1" d="M346.36,55.59l2.35,6-1.58.62-1.57-4-1.42.56,1.42,3.61L344,63l-1.43-3.61-1.43.56L342.75,64l-1.58.62-2.4-6.09Z" transform="translate(-18.47 -33.04)"/><path class="cls-1" d="M349.41,65l.32,6.42-1.69.08-.22-4.29-1.52.08.19,3.87-1.68.09-.21-3.88-1.53.08.22,4.41-1.69.09-.33-6.54Z" transform="translate(-18.47 -33.04)"/><path class="cls-1" d="M306,66.33a2,2,0,0,1,.22.15l.23.19a1.69,1.69,0,0,0,.31.21l.35.18c.14.06.26.13.4.18a3.66,3.66,0,0,0,.43.15c.16,0,.28.09.44.12l.9.2.46.12.49.16a9.8,9.8,0,0,1,1,.45,11.27,11.27,0,0,1,1.09.68,10.33,10.33,0,0,1,1.11.93,8.75,8.75,0,0,1,1,1.21,7.76,7.76,0,0,1,.83,1.46,6,6,0,0,1,.44,1.6,6.91,6.91,0,0,1,0,.78,4.8,4.8,0,0,1-.09.69,3.33,3.33,0,0,1-.41,1,2.5,2.5,0,0,1-.45.57l-.14.13,0,0-.22-.16a3.84,3.84,0,0,0-.54-.36,4.88,4.88,0,0,0-.76-.37,6.31,6.31,0,0,0-.88-.23l-.9-.18a8.56,8.56,0,0,1-1-.27,8.41,8.41,0,0,1-1.05-.46,10.16,10.16,0,0,1-1.12-.7,9.05,9.05,0,0,1-2.16-2.2,6.59,6.59,0,0,1-.44-.72c-.07-.12-.14-.25-.2-.38s-.12-.26-.17-.39a6,6,0,0,1-.4-1.62,5,5,0,0,1,0-.77,4.44,4.44,0,0,1,.1-.68,3.59,3.59,0,0,1,.19-.58,3.08,3.08,0,0,1,.23-.48l.12-.19a1.59,1.59,0,0,1,.13-.13l.21-.22Z" transform="translate(-18.47 -33.04)"/><path class="cls-1" d="M330.86,66.33l.19.17.21.22a1.59,1.59,0,0,1,.13.13l.12.19a3.08,3.08,0,0,1,.23.48,3.59,3.59,0,0,1,.19.58,4.44,4.44,0,0,1,.1.68,5,5,0,0,1,0,.77,6,6,0,0,1-.4,1.62c-.05.13-.11.26-.17.39s-.13.26-.2.38a6.59,6.59,0,0,1-.44.72,9.05,9.05,0,0,1-2.16,2.2,10.16,10.16,0,0,1-1.12.7,8.41,8.41,0,0,1-1,.46,8.56,8.56,0,0,1-1,.27l-.9.18a5.83,5.83,0,0,0-.87.23,4.59,4.59,0,0,0-.77.37,3.84,3.84,0,0,0-.54.36l-.21.16-.06,0-.14-.13a2.81,2.81,0,0,1-.45-.57,3.33,3.33,0,0,1-.41-1,4.8,4.8,0,0,1-.09-.69,6.91,6.91,0,0,1,0-.78,6,6,0,0,1,.44-1.6,7.76,7.76,0,0,1,.83-1.46,8.75,8.75,0,0,1,1-1.21,10.33,10.33,0,0,1,1.11-.93,11.27,11.27,0,0,1,1.09-.68,9.8,9.8,0,0,1,1-.45l.49-.16.46-.12.9-.2c.16,0,.28-.08.44-.12a3.66,3.66,0,0,0,.43-.15c.14,0,.26-.12.4-.18l.35-.18a1.69,1.69,0,0,0,.31-.21l.24-.19A1.52,1.52,0,0,1,330.86,66.33Z" transform="translate(-18.47 -33.04)"/><path class="cls-1" d="M306,75.85a2,2,0,0,1,.22.15,2.59,2.59,0,0,0,.23.19,1.69,1.69,0,0,0,.31.21l.35.18.4.19.43.15.44.11.9.2c.14,0,.32.08.46.13a4.58,4.58,0,0,1,.49.15,8.21,8.21,0,0,1,1,.46,11.1,11.1,0,0,1,1.09.67,9.39,9.39,0,0,1,1.11.94,8.1,8.1,0,0,1,1,1.2,7.76,7.76,0,0,1,.83,1.46,5.94,5.94,0,0,1,.44,1.61,6.85,6.85,0,0,1,0,.77,4.8,4.8,0,0,1-.09.69,3.4,3.4,0,0,1-.41,1.06,2.4,2.4,0,0,1-.45.56l-.14.14,0,0-.22-.16a3.84,3.84,0,0,0-.54-.36,4.1,4.1,0,0,0-.76-.36,6.33,6.33,0,0,0-.88-.24l-.9-.18a6.91,6.91,0,0,1-1-.27,8.41,8.41,0,0,1-1.05-.46,8.85,8.85,0,0,1-1.12-.7,9.05,9.05,0,0,1-2.16-2.2,6.46,6.46,0,0,1-.44-.71c-.07-.13-.14-.26-.2-.39a3.52,3.52,0,0,1-.17-.39,5.91,5.91,0,0,1-.4-1.62,4.85,4.85,0,0,1,0-.76,4.57,4.57,0,0,1,.1-.69,3.59,3.59,0,0,1,.19-.58,4.3,4.3,0,0,1,.23-.48l.12-.18a.89.89,0,0,1,.13-.14,2.06,2.06,0,0,1,.21-.21Z" transform="translate(-18.47 -33.04)"/><path class="cls-1" d="M330.86,75.85l.19.18a2.06,2.06,0,0,1,.21.21.89.89,0,0,1,.13.14l.12.18a4.3,4.3,0,0,1,.23.48,3.59,3.59,0,0,1,.19.58,4.57,4.57,0,0,1,.1.69,4.85,4.85,0,0,1,0,.76,5.91,5.91,0,0,1-.4,1.62,3.52,3.52,0,0,1-.17.39c-.06.13-.13.26-.2.39a6.46,6.46,0,0,1-.44.71,9.05,9.05,0,0,1-2.16,2.2,8.85,8.85,0,0,1-1.12.7,8.41,8.41,0,0,1-1,.46,6.91,6.91,0,0,1-1,.27l-.9.18a5.84,5.84,0,0,0-.87.24,3.91,3.91,0,0,0-.77.36,3.84,3.84,0,0,0-.54.36l-.21.16-.06,0-.14-.14a2.69,2.69,0,0,1-.45-.56,3.4,3.4,0,0,1-.41-1.06,4.8,4.8,0,0,1-.09-.69,6.85,6.85,0,0,1,0-.77,5.94,5.94,0,0,1,.44-1.61,7.76,7.76,0,0,1,.83-1.46,8.1,8.1,0,0,1,1-1.2,9.39,9.39,0,0,1,1.11-.94A11.1,11.1,0,0,1,325.6,78a8.21,8.21,0,0,1,1-.46,4.58,4.58,0,0,1,.49-.15c.14,0,.32-.09.46-.13l.9-.2.44-.11.43-.15.4-.19.35-.18a1.69,1.69,0,0,0,.31-.21l.24-.19A1.52,1.52,0,0,1,330.86,75.85Z" transform="translate(-18.47 -33.04)"/><path class="cls-1" d="M306,85.37l.22.16.23.18a1.73,1.73,0,0,0,.31.22l.35.18.4.18c.15,0,.28.11.43.15l.44.12.9.2a3.9,3.9,0,0,1,.46.12,4.66,4.66,0,0,1,.49.16,6.87,6.87,0,0,1,1,.45,9.6,9.6,0,0,1,1.09.68,9.28,9.28,0,0,1,1.11.93,8.1,8.1,0,0,1,1,1.2,7.54,7.54,0,0,1,.83,1.47,5.78,5.78,0,0,1,.44,1.6,6.85,6.85,0,0,1,0,.77,5,5,0,0,1-.09.7,3.43,3.43,0,0,1-.41,1,2.74,2.74,0,0,1-.45.57l-.14.13,0,0-.22-.16a5,5,0,0,0-.54-.36,4.86,4.86,0,0,0-.76-.36,5.17,5.17,0,0,0-.88-.23l-.9-.18a8.69,8.69,0,0,1-1-.28,7.15,7.15,0,0,1-1.05-.46,10,10,0,0,1-1.12-.69,9.43,9.43,0,0,1-2.16-2.2,6.59,6.59,0,0,1-.44-.72c-.07-.13-.14-.26-.2-.39a3.52,3.52,0,0,1-.17-.39,5.91,5.91,0,0,1-.4-1.62,4.85,4.85,0,0,1,0-.76,4.57,4.57,0,0,1,.1-.69,4.38,4.38,0,0,1,.19-.58,4.3,4.3,0,0,1,.23-.48l.12-.18a.89.89,0,0,1,.13-.14l.21-.21Z" transform="translate(-18.47 -33.04)"/><path class="cls-1" d="M330.86,85.37l.19.18.21.21a.89.89,0,0,1,.13.14l.12.18a4.3,4.3,0,0,1,.23.48,4.38,4.38,0,0,1,.19.58,4.57,4.57,0,0,1,.1.69,4.85,4.85,0,0,1,0,.76,5.91,5.91,0,0,1-.4,1.62,3.52,3.52,0,0,1-.17.39c-.06.13-.13.26-.2.39a6.59,6.59,0,0,1-.44.72,9.43,9.43,0,0,1-2.16,2.2,10,10,0,0,1-1.12.69,7.15,7.15,0,0,1-1,.46,8.69,8.69,0,0,1-1,.28l-.9.18a4.83,4.83,0,0,0-.87.23,4.58,4.58,0,0,0-.77.36,5,5,0,0,0-.54.36l-.21.16-.06,0-.14-.13a3.13,3.13,0,0,1-.45-.57,3.43,3.43,0,0,1-.41-1,5,5,0,0,1-.09-.7,6.85,6.85,0,0,1,0-.77,5.78,5.78,0,0,1,.44-1.6,7.54,7.54,0,0,1,.83-1.47,8.1,8.1,0,0,1,1-1.2,9.28,9.28,0,0,1,1.11-.93,9.6,9.6,0,0,1,1.09-.68,6.87,6.87,0,0,1,1-.45,4.66,4.66,0,0,1,.49-.16,3.9,3.9,0,0,1,.46-.12l.9-.2.44-.12c.15,0,.28-.1.43-.15l.4-.18.35-.18a1.73,1.73,0,0,0,.31-.22l.24-.18Z" transform="translate(-18.47 -33.04)"/><path class="cls-1" d="M318.43,69.58l-.06,0a.79.79,0,0,1-.16-.1c-.13-.09-.34-.22-.55-.39a9,9,0,0,1-.72-.61c-.25-.24-.5-.5-.75-.79a7.51,7.51,0,0,1-1.19-2,6.11,6.11,0,0,1-.44-2.27,5.91,5.91,0,0,1,.43-2.27,7.2,7.2,0,0,1,1.19-2,9.57,9.57,0,0,1,.75-.79,8.41,8.41,0,0,1,.72-.61c.21-.17.43-.31.56-.4l.16-.1.06,0,.06,0,.16.1c.13.09.35.23.56.4a8.41,8.41,0,0,1,.72.61,9.57,9.57,0,0,1,.75.79,7.2,7.2,0,0,1,1.19,2,5.91,5.91,0,0,1,.43,2.27,6.11,6.11,0,0,1-.44,2.27,7.25,7.25,0,0,1-1.19,2c-.25.29-.5.55-.75.79a9,9,0,0,1-.72.61c-.21.17-.42.3-.55.39a.79.79,0,0,1-.16.1Z" transform="translate(-18.47 -33.04)"/><path class="cls-1" d="M54.82,105.73A36.35,36.35,0,1,1,91.16,69.39a36.38,36.38,0,0,1-36.34,36.34m0-69.62A33.27,33.27,0,1,0,88.09,69.39,33.32,33.32,0,0,0,54.82,36.11" transform="translate(-18.47 -33.04)"/><path class="cls-1" d="M28.86,46.63s4.18-1.23,5.66-.74,5.41,3.2,5.17,5.9-.49,6.65.49,7.87,1,4.43,2,3.45,0-3.45,1-2.7,4.43,4.18,6.4,4.18,3.45.25,3.69,2,0,2.46-1.73,4.42-1.23,2.71-.48,3.94,3,2.71,3.19,4.42,1.23,8.86,2,10.34,2.71,8.12,3.94,8.12,1.72-6.39,2-7.63,2.71-5.65,4.68-6.89,5.16-4.18,5.41-6.64S73.39,71,70,69.75,57.4,68.27,56.42,67.54a8.3,8.3,0,0,1-2.22-4.68c0-1.23-2-2-2-2s2.22-3.69,4.19-3.45,4.92.49,4.92,2,1.47,2.71,1.72,1.48-1-2.46,0-3.2,3.94-.74,4.18-3,2-3,2-4.67.24-3.7-1-3.2S65,51.05,63.3,51.05s-2.7-.73-2-1.71,2.7-3.2,3.2-5.17-.74-2.46-2.22-2.46-5.66,2.21-7.38,2.46-3.93.74-3.69-.74a14.31,14.31,0,0,1,2.46-5.17c1-1.22,2-2.21,1.72-3.2s-20.18-.74-26.57,11.57" transform="translate(-18.47 -33.04)"/><path class="cls-1" d="M81.51,46.38s-.25,2.4-.25,2.71c0,1.26-.14,4.57-.73,5.17s-2,2.21-1,2.21S83.23,54,84,54.5s2.71,2.46,1.72,3.44-1.48,2-2.7,1-2.71-2-3.94-.49-4.67,3.2-3.2,7.37,2.71,3.45,3.44,2.46,4,1.24,3.7,3c-1.48,8.61,2.7,15.5,1.72,17S91,79.84,89.63,64.34a28.75,28.75,0,0,0-8.12-18" transform="translate(-18.47 -33.04)"/><path class="cls-1" d="M20.49,72s3-2.71,3.94-2,4.19,2.21,2.71,3-3.69-.49-3.69,1-.5,1.72.49,2.22,2.71-.5,3.44,1,1.73,3.2,2.46,3.45-.24,5.41-1,6.65-.24,2.7-1.48,2.7S19.75,81.07,20,72" transform="translate(-18.47 -33.04)"/><path class="cls-1" d="M29.61,69.67s-.65.16-.39-.16,5.7-4,6.75-4,1.31.54,1.31,1.06.19,9.35.19,11.17.36,9.77,0,10.19-3.66,3.42-4.71,3.42-.39-14.51-.59-16.18c-.14-1.14-.66-5-1-5.32s-1.57-.23-1.57-.23" transform="translate(-18.47 -33.04)"/><path class="cls-1" d="M42.92,68.8a.33.33,0,0,1,0-.44,3.85,3.85,0,0,1,.89-.6c.35-.21,3.08-2.31,3.74-2.31a6.7,6.7,0,0,1,2.54,1,11.59,11.59,0,0,1,1.46.84,4.43,4.43,0,0,1,.25,1.75c-.13.34-8.25,6-8.25,6.76s3.41,4.71,3.6,5,5.37,7.29,6.68,7.59c.93.22-1.83,2.29-2.75,2.66s-2.36.61-2.88.16S38.52,78.78,38.59,78.1,44.34,74,45.4,71.8,44,69,42.92,68.8" transform="translate(-18.47 -33.04)"/><path class="cls-1" d="M192.45,55c0-1.73-.59-1.83-2.28-1.87v9.44c2.32.16,2.34-.79,2.28-2.75Z" transform="translate(-18.47 -33.04)"/><polygon class="cls-1" points="183.72 20.11 182.72 26.72 184.72 26.72 183.76 20.11 183.72 20.11"/><path class="cls-1" d="M222.54,70.52c0-.38,0-.75,0-1.13a36.35,36.35,0,1,0-72.7,0c0,.38,0,.75,0,1.13Zm-22.4-20h4.17l3.21,14.75H204l-.49-2.87h-2.71l-.41,2.87h-3.49Zm-13.43,0h3.75a8,8,0,0,1,3.9.69c1.34.79,1.55,2.23,1.55,3.64v6.55a3.52,3.52,0,0,1-1.47,3.19,5.53,5.53,0,0,1-3.07.68h-4.66Zm-10.42,9.82h3.2v1c0,.85.28,1.59,1.38,1.59.8,0,1.16-.73,1.16-1.47,0-1.24-1-1.71-1.93-2.26a10.12,10.12,0,0,1-2.62-1.93,4.35,4.35,0,0,1-1-2.95c0-2.77,1.67-4.19,4.35-4.19,3,0,4.54,2,4.38,4.78H182c0-.87,0-2-1.14-2.12a1,1,0,0,0-1.2,1,1.8,1.8,0,0,0,1,1.81A24.68,24.68,0,0,1,184,57.65a4.35,4.35,0,0,1,1.27,3.52c0,2.83-1.57,4.41-4.44,4.41-3.17,0-4.5-1.77-4.5-3.72Zm-10.43-9.81h3.46V61.61c0,.7.22,1.31,1.2,1.31s1.18-.78,1.18-1.41v-11h3.46V61.15c0,2.5-1.12,4.43-4.66,4.43-2.93,0-4.64-1.4-4.64-4.43Z" transform="translate(-18.47 -33.04)"/><path class="cls-1" d="M150.09,65.67a35.06,35.06,0,0,0-.22,3.72,36.35,36.35,0,0,0,72.7,0,35.07,35.07,0,0,0-.21-3.72Zm36.13,37.85a34.13,34.13,0,0,1-34.13-34.13h68.27A34.14,34.14,0,0,1,186.22,103.52Z" transform="translate(-18.47 -33.04)"/><path class="cls-1" d="M164.73,81.59c0,.63-.06,1.57-.9,1.57s-.94-.94-.94-1.57V77c0-.68.1-1.49.93-1.49s.91.81.91,1.49Zm2.6-4.72c0-2.13-1.23-3.31-3.5-3.31s-3.54,1.18-3.54,3.31v4.49c0,2.5.92,3.8,3.54,3.8s3.5-1.3,3.5-3.8Z" transform="translate(-18.47 -33.04)"/><path class="cls-1" d="M171.12,75.82c1.27,0,1.81,0,1.81,1.34,0,.68-.18,1.37-.93,1.37h-.88Zm0,4.7H172c.61,0,.81.49.89,1.17s0,1.59.06,2.57a2,2,0,0,0,.15.63h2.83v-.15a.9.9,0,0,1-.25-.38c-.15-.71-.17-2.61-.24-3.5a1.52,1.52,0,0,0-1.28-1.43v0a2.38,2.38,0,0,0,1.37-2.52c0-2.2-1.06-3-3.19-3h-3.79V84.89h2.6Z" transform="translate(-18.47 -33.04)"/><path class="cls-1" d="M181.89,84.9l-.12-1h0a2.18,2.18,0,0,1-2.24,1.24c-2.2,0-2.91-1.52-2.91-3.53V77.09c0-2.41,1.11-3.53,3.48-3.53,2.21,0,3.53,1,3.53,3.2v.83H181V77c0-.95-.12-1.42-.81-1.44s-1,.43-1,1.16v5.47c0,.62.28,1,.95,1,.89,0,.92-.7.92-1.41v-.87h-.93v-2h3.53v6Z" transform="translate(-18.47 -33.04)"/><path class="cls-1" d="M189.14,80.79h-1.5l.75-5h0Zm-2.09,4.1.31-2.15h2l.37,2.15h2.63L190,73.83h-3.12l-2.42,11.06Z" transform="translate(-18.47 -33.04)"/><polygon class="cls-1" points="176.93 45.66 176.9 45.69 177.14 51.85 174.67 51.85 174.67 40.79 177.34 40.79 179.35 46.97 179.39 46.97 179.14 40.79 181.61 40.79 181.61 51.85 178.95 51.85 176.93 45.66"/><rect class="cls-1" x="182.99" y="40.79" width="2.6" height="11.06"/><path class="cls-1" d="M209.81,77.69V77c0-.94-.34-1.43-.83-1.43-.81,0-1,.43-1,1.15l0,5.48c0,.62.25,1,.93,1,.89,0,1-.91,1-1.59v-1h2.6v1.36c0,1.9-1.1,3.23-3.75,3.23-2.39,0-3.32-1.27-3.32-3.53V77.09c0-2.41,1.11-3.53,3.48-3.53,2.21,0,3.54,1,3.54,3.2v.93Z" transform="translate(-18.47 -33.04)"/></svg>