<svg xmlns="http://www.w3.org/2000/svg" xmlns:xlink="http://www.w3.org/1999/xlink" viewBox="0 0 562.07 73.79"><defs><style>.cls-1{fill:#878787;}.cls-2{fill:#211915;}.cls-3{clip-path:url(#clip-path);}.cls-4{fill:#fff;}.cls-5{fill:none;stroke:#040006;stroke-linecap:round;stroke-miterlimit:10;stroke-width:1.33px;}.cls-6{fill:#040006;}</style><clipPath id="clip-path"><path class="cls-1" d="M167.34,36.89a31.88,31.88,0,1,0,63.75,0Z"/></clipPath></defs><title>logo-certificaciones-black</title><g id="Capa_2" data-name="Capa 2"><g id="Capa_1-2" data-name="Capa 1"><path class="cls-2" d="M525.17,73.79a36.9,36.9,0,0,1,0-73.79,36.92,36.92,0,0,1,36.9,36.89,36.92,36.92,0,0,1-36.9,36.9m0-70.45a33.54,33.54,0,1,0,23.73,9.83,33.59,33.59,0,0,0-23.73-9.83"/><polygon class="cls-2" points="506.02 57.69 503.39 57.69 498.69 40.5 501.9 40.5 504.94 51.92 507.99 40.5 510.71 40.5 506.02 57.69"/><path class="cls-2" d="M518.52,52.51H513c.08,2.06.61,3.09,1.67,3.09s1.62-.64,1.74-1.89l2,.49c-.39,2.48-1.69,3.7-3.91,3.7-2.77,0-4.17-2-4.17-6,0-3.69,1.38-5.52,4.13-5.52s4,1.83,4,5.52ZM516,50.86c-.12-1.44-.61-2.19-1.46-2.19s-1.4.75-1.53,2.19Z"/><path class="cls-2" d="M528,59.34c0,3-1.3,4.46-3.92,4.46a3.89,3.89,0,0,1-4-3l2-1A2,2,0,0,0,524,61.36c.81,0,1.22-.68,1.22-2V56.78a3.09,3.09,0,0,1-2,.68c-2.18,0-3.29-1.68-3.29-5.1,0-4,1.52-6,4.54-6a7.26,7.26,0,0,1,3.48.8ZM525.26,49a2.31,2.31,0,0,0-1-.22c-1.11,0-1.65,1.2-1.65,3.61,0,1.79.39,2.7,1.21,2.7a2.39,2.39,0,0,0,1.44-.39Z"/><path class="cls-2" d="M537.59,55.68c0,.36.17.53.51.53h.34v1.48h-1a1.61,1.61,0,0,1-1.37-.83,3.89,3.89,0,0,1-3,1q-3.32,0-3.31-3.6c0-2.14,1.22-3.2,3.65-3.2h1.45V49.74c0-.7-.4-1-1.18-1A1.51,1.51,0,0,0,532.21,50l-2.13-.39a3.47,3.47,0,0,1,3.8-3.17c2.48,0,3.71,1,3.71,3Zm-3.83-2.92a1.23,1.23,0,0,0-1.38,1.41c0,1.06.47,1.61,1.38,1.61a1.26,1.26,0,0,0,1.15-.63V52.76Z"/><path class="cls-2" d="M547.7,57.69H545v-8c0-.56-.26-.86-.77-.86a3.54,3.54,0,0,0-1.89.69v8.13h-2.7v-11h2l.27,1.06a5.86,5.86,0,0,1,3.58-1.28c1.46,0,2.19,1.11,2.19,3.31Z"/><path class="cls-2" d="M520.26,41.76c3.57-.46,6.58-3.83,6.58-3.83a22.24,22.24,0,0,0,13-6.77c7.62-7.94,1.67-17.14-.81-21.72-.54,3.29-3.3,6.39-10.06,11.84S523,33.65,525.63,37a10.3,10.3,0,0,1-3.31,3.25,13.44,13.44,0,0,1-3.25,1.13,17.67,17.67,0,0,1-5,.1,14,14,0,0,0,6.17.27"/><path class="cls-2" d="M521.58,39.75a5.08,5.08,0,0,1-1.36-1.88c1.58-1.43,2.54-4.77-.32-8s-3.95-5-3.94-6.68c-1.61,2-5.32,6-2.24,10.62a11.11,11.11,0,0,0,5.83,4.43,6.43,6.43,0,0,0,2.93,2.39l.26-.16s-.41,0-1.16-.7"/><path class="cls-1" d="M167.34,36.89a31.88,31.88,0,1,0,63.75,0Z"/><g class="cls-3"><polygon points="231.09 36.89 165.85 36.89 168.51 47.38 231.09 36.89"/><polygon points="231.09 36.89 169.09 48.91 174.45 58.45 231.09 36.89"/><polygon points="231.09 36.89 176.01 59.54 185.75 66.81 231.09 36.89"/><polygon points="231.09 36.89 187.76 67.5 201.37 70.71 231.09 36.89"/><polygon points="231.09 36.89 204.83 69.4 229.91 69.22 231.09 36.89"/></g><path d="M199.21,73.79a36.9,36.9,0,0,1,0-73.79A36.9,36.9,0,0,1,225.3,63a36.65,36.65,0,0,1-26.09,10.81m0-70.84a33.94,33.94,0,1,0,33.94,33.94A34,34,0,0,0,199.21,3"/><path d="M180.2,19.23h3.24v10.4c0,.66.2,1.23,1.12,1.23s1.1-.74,1.1-1.32V19.23h3.23v10c0,2.34-1,4.14-4.35,4.14-2.74,0-4.34-1.31-4.34-4.14Z"/><path d="M192.93,28.4v1c0,.79.26,1.49,1.29,1.49.75,0,1.08-.68,1.08-1.38,0-1.16-1-1.6-1.8-2.11a9.15,9.15,0,0,1-2.44-1.8,4,4,0,0,1-.94-2.76c0-2.59,1.56-3.91,4.06-3.91,2.81,0,4.24,1.88,4.09,4.47h-3c0-.81,0-1.92-1.07-2a1,1,0,0,0-1.12.92c-.09.83.33,1.25,1,1.69a22.27,22.27,0,0,1,3,2,4,4,0,0,1,1.19,3.28c0,2.65-1.47,4.12-4.15,4.12-3,0-4.2-1.66-4.2-3.47V28.4Z"/><path d="M202.9,21.71c1.58,0,2.11.13,2.13,1.75V28c.06,1.83,0,2.71-2.13,2.57ZM204,33a5.19,5.19,0,0,0,2.87-.65,3.27,3.27,0,0,0,1.37-3V23.27c0-1.32-.2-2.66-1.45-3.4a7.5,7.5,0,0,0-3.63-.64h-3.51V33Z"/><path d="M215.06,27.9h-1.88l.94-6.17h0ZM212.45,33l.39-2.69h2.53l.46,2.69h3.27l-3-13.78h-3.89L209.2,33Z"/><path class="cls-4" d="M179.15,48.29c0,.59-.06,1.47-.84,1.47s-.88-.88-.88-1.47V44c0-.63.09-1.39.86-1.39s.86.76.86,1.39Zm2.42-4.41c0-2-1.14-3.09-3.26-3.09S175,41.89,175,43.88v4.2c0,2.33.85,3.54,3.31,3.54s3.26-1.21,3.26-3.54Z"/><path class="cls-4" d="M185.11,42.9c1.19,0,1.69,0,1.69,1.25,0,.64-.16,1.28-.86,1.28h-.83Zm0,4.39h.8c.56,0,.76.46.83,1.09s0,1.49,0,2.4a2,2,0,0,0,.14.59h2.64v-.14a.8.8,0,0,1-.23-.36c-.14-.66-.15-2.43-.22-3.26a1.42,1.42,0,0,0-1.2-1.34v0a2.23,2.23,0,0,0,1.28-2.36c0-2-1-2.85-3-2.85h-3.54V51.37h2.42Z"/><path class="cls-4" d="M195.17,51.38l-.12-.92h0a2,2,0,0,1-2.1,1.16c-2.05,0-2.71-1.42-2.71-3.29V44.08c0-2.24,1-3.29,3.25-3.29,2.07,0,3.29.88,3.29,3v.77h-2.42V44c0-.88-.11-1.32-.76-1.34s-.93.4-.93,1.08v5.11a.8.8,0,0,0,.89.92c.83,0,.85-.66.85-1.32v-.82h-.86V45.76h3.29v5.62Z"/><path class="cls-4" d="M201.94,47.54h-1.4l.7-4.63h0ZM200,51.37l.28-2h1.91l.34,2H205L202.73,41h-2.92l-2.26,10.33Z"/><polygon class="cls-4" points="207.78 45.59 207.75 45.61 207.97 51.37 205.67 51.37 205.67 41.04 208.17 41.04 210.04 46.81 210.08 46.81 209.85 41.04 212.15 41.04 212.15 51.37 209.67 51.37 207.78 45.59"/><rect class="cls-4" x="213.44" y="41.04" width="2.42" height="10.33"/><path class="cls-4" d="M221.24,44.65V44c0-.88-.32-1.34-.77-1.34-.76,0-.94.4-.94,1.08v5.11c0,.58.23.92.86.92.83,0,.9-.85.9-1.49v-.94h2.42V48.6c0,1.78-1,3-3.49,3-2.24,0-3.1-1.19-3.1-3.29V44.08c0-2.24,1-3.29,3.25-3.29,2.06,0,3.3.88,3.3,3v.87Z"/><path class="cls-5" d="M362.19,40.65V73.12a36.17,36.17,0,1,0-10.55-1.56"/><path class="cls-2" d="M336.11,33.46l.13-1.86,3.28.22a5.31,5.31,0,0,1,.68,1.67,6.28,6.28,0,0,1,.18,1.84,4.63,4.63,0,0,1-.71,2.22A4.24,4.24,0,0,1,338,39a4.29,4.29,0,0,1-2.23.43A4.1,4.1,0,0,1,332.25,37a4.89,4.89,0,0,1-.4-2.36,5.2,5.2,0,0,1,.46-1.82,4.75,4.75,0,0,1,1-1.49l1.43,1.32a3.47,3.47,0,0,0-.74,1,3,3,0,0,0-.33,1.13,2.46,2.46,0,0,0,.24,1.21,2.29,2.29,0,0,0,.82.9,2.74,2.74,0,0,0,2.49.16,2.17,2.17,0,0,0,.93-.79,2.31,2.31,0,0,0,.4-1.18,3.24,3.24,0,0,0-.3-1.45Z"/><path class="cls-2" d="M333.14,28l.81-2,6,2.38,1.3-3.25,1.71.68-2.1,5.26Z"/><path class="cls-2" d="M343,22.15a1.54,1.54,0,0,0,1.11-.59,1.48,1.48,0,0,0,.36-1.17,1.79,1.79,0,0,0-.69-1.13L340,16.15l1.38-1.66,3.74,3.11a3.71,3.71,0,0,1,1.16,1.55,3,3,0,0,1,.12,1.79,4.18,4.18,0,0,1-.92,1.8A4.35,4.35,0,0,1,343.91,24a3,3,0,0,1-1.8.22,3.6,3.6,0,0,1-1.75-.84l-3.74-3.11L338,18.6l3.74,3.11A1.7,1.7,0,0,0,343,22.15Z"/><path class="cls-2" d="M343.59,12.65l6-3.72.94,1.51-2.11,1.3,3.41,5.53L350,18.4l-3.41-5.52-2.09,1.29Z"/><path class="cls-2" d="M352.28,7.87l6.33-1.57L359,8l-4.23,1,.37,1.5L359,9.57l.42,1.66-3.83,1,.38,1.51,4.35-1.08.42,1.67-6.45,1.6Z"/><path class="cls-2" d="M367.9,6.55l2,.21L369,15l-1.88-.2-3.22-5.31-.51,4.92-2-.21L362.27,6l1.89.2,3.23,5.35Z"/><path class="cls-2" d="M376.5,9.23l5.28,3.21-.9,1.46-3.43-2.08-.95,1.58,3.16,1.92-.89,1.47-3.17-1.92-1.55,2.55-1.84-1.12Z"/><path class="cls-2" d="M381,23.54l1-2.41,0,0-1-1.19-1.74,1.49-1.4-1.64,6.28-5.38,2.42,2.82a3.8,3.8,0,0,1,1.07,2.43,2.65,2.65,0,0,1-1,2.08,3.35,3.35,0,0,1-1.47.76,2.57,2.57,0,0,1-1.52-.15l-.93,3.07Zm1.22-4.75,1,1.19a1.4,1.4,0,0,0,.92.56,1.23,1.23,0,0,0,1-.34,1.19,1.19,0,0,0,.46-.88,1.51,1.51,0,0,0-.41-1l-1-1.19Z"/><path class="cls-2" d="M390.5,22.89,392.88,29l-1.6.63-1.6-4.06-1.44.56,1.44,3.67-1.59.63-1.45-3.67-1.45.57,1.64,4.18-1.61.63-2.42-6.19Z"/><path class="cls-2" d="M393.59,32.41l.33,6.52L392.2,39,392,34.65l-1.54.08.19,3.94-1.7.08-.21-3.93-1.56.07.23,4.48-1.73.09-.33-6.64Z"/><path class="cls-6" d="M349.53,33.79l.21.15c.06.06.14.12.24.2a1.69,1.69,0,0,0,.31.21l.36.18.41.19c.15.05.28.11.43.15s.29.09.45.12l.91.2c.15,0,.33.08.47.13a4.83,4.83,0,0,1,.5.16,7.06,7.06,0,0,1,1,.46,9.78,9.78,0,0,1,1.11.68,11.87,11.87,0,0,1,1.13,1,9.71,9.71,0,0,1,1,1.22,8,8,0,0,1,.83,1.49,5.66,5.66,0,0,1,.45,1.63,6.91,6.91,0,0,1,0,.78,4.76,4.76,0,0,1-.09.7,3.37,3.37,0,0,1-.41,1.07,3.31,3.31,0,0,1-.46.58l-.15.13-.05,0-.22-.16a4,4,0,0,0-.55-.37,4.22,4.22,0,0,0-.77-.37,6.45,6.45,0,0,0-.89-.23L355,43.9a8.7,8.7,0,0,1-1-.27c-.33-.13-.7-.28-1.07-.47a10.4,10.4,0,0,1-1.13-.71,9.15,9.15,0,0,1-2.2-2.23c-.16-.23-.31-.49-.45-.73s-.13-.26-.19-.39a2.87,2.87,0,0,1-.18-.4,6.14,6.14,0,0,1-.4-1.64,6.94,6.94,0,0,1,0-.78,6.93,6.93,0,0,1,.1-.7,4.86,4.86,0,0,1,.2-.58,2.79,2.79,0,0,1,.24-.49l.11-.19c0-.06.1-.09.14-.14s.15-.16.21-.21A2.1,2.1,0,0,1,349.53,33.79Z"/><path class="cls-6" d="M374.76,33.79,375,34l.22.21a1.79,1.79,0,0,1,.13.14l.12.19c.08.14.16.31.24.49a3.78,3.78,0,0,1,.29,1.28,5.12,5.12,0,0,1,0,.78,5.8,5.8,0,0,1-.41,1.64c0,.14-.11.27-.17.4s-.13.26-.2.39a8,8,0,0,1-.45.73,9.3,9.3,0,0,1-2.19,2.23,10.49,10.49,0,0,1-1.14.71,10.62,10.62,0,0,1-1.07.47,8.17,8.17,0,0,1-1,.27l-.92.19a6.7,6.7,0,0,0-.88.23,4.32,4.32,0,0,0-.78.37,4.68,4.68,0,0,0-.55.37l-.22.16-.05,0a.76.76,0,0,1-.14-.13,2.58,2.58,0,0,1-.46-.58,3.36,3.36,0,0,1-.42-1.07,4.82,4.82,0,0,1-.08-.7,5.14,5.14,0,0,1,0-.78,6.39,6.39,0,0,1,.45-1.63,8.05,8.05,0,0,1,.84-1.49,9,9,0,0,1,1.05-1.22,10.66,10.66,0,0,1,1.12-1,9.06,9.06,0,0,1,1.12-.68,6.63,6.63,0,0,1,1-.46,4.66,4.66,0,0,1,.49-.16l.47-.13.92-.2c.16,0,.28-.08.45-.12l.43-.15.4-.19.36-.18a1.77,1.77,0,0,0,.32-.21l.23-.2A2,2,0,0,1,374.76,33.79Z"/><path class="cls-6" d="M349.53,43.45l.21.16.24.19a1.73,1.73,0,0,0,.31.22l.36.18c.14.06.27.13.41.18l.43.16.45.12.91.2.47.12.5.16a8.31,8.31,0,0,1,1,.46,11.64,11.64,0,0,1,1.11.69,10.55,10.55,0,0,1,1.13,1,9.71,9.71,0,0,1,1,1.22A7.7,7.7,0,0,1,359,50a5.69,5.69,0,0,1,.45,1.62,7.21,7.21,0,0,1,0,.79,4.76,4.76,0,0,1-.09.7,3.47,3.47,0,0,1-.41,1.07,3.31,3.31,0,0,1-.46.58l-.15.13-.05,0-.22-.16a4,4,0,0,0-.55-.37,4.22,4.22,0,0,0-.77-.37,6.47,6.47,0,0,0-.89-.24l-.92-.18a8.83,8.83,0,0,1-1-.28,9.31,9.31,0,0,1-1.07-.46,10.4,10.4,0,0,1-1.13-.71,9.15,9.15,0,0,1-2.2-2.23c-.16-.23-.31-.49-.45-.73s-.13-.26-.19-.39a2.87,2.87,0,0,1-.18-.4,6.14,6.14,0,0,1-.4-1.64,6.94,6.94,0,0,1,0-.78,6.54,6.54,0,0,1,.1-.7,5.79,5.79,0,0,1,.2-.59,2.69,2.69,0,0,1,.24-.48L349,44a.92.92,0,0,1,.14-.14l.21-.22Z"/><path class="cls-6" d="M374.76,43.45l.19.18.22.22a.89.89,0,0,1,.13.14l.12.19a5.36,5.36,0,0,1,.24.48,5.87,5.87,0,0,1,.19.59,4.71,4.71,0,0,1,.1.7,5.12,5.12,0,0,1,0,.78,5.8,5.8,0,0,1-.41,1.64c0,.14-.11.27-.17.4s-.13.26-.2.39a8,8,0,0,1-.45.73,9.3,9.3,0,0,1-2.19,2.23,10.49,10.49,0,0,1-1.14.71,8.62,8.62,0,0,1-1.07.46,8.27,8.27,0,0,1-1,.28l-.92.18a6.74,6.74,0,0,0-.88.24,4.32,4.32,0,0,0-.78.37,4.68,4.68,0,0,0-.55.37l-.22.16-.05,0a1.43,1.43,0,0,1-.14-.13,2.58,2.58,0,0,1-.46-.58,3.46,3.46,0,0,1-.42-1.07,4.82,4.82,0,0,1-.08-.7,5.32,5.32,0,0,1,0-.79A6.43,6.43,0,0,1,365.3,50a7.74,7.74,0,0,1,.84-1.49,9,9,0,0,1,1.05-1.22,9.58,9.58,0,0,1,1.12-1,10.62,10.62,0,0,1,1.12-.69,7.71,7.71,0,0,1,1-.46L371,45l.47-.12.92-.2.45-.12.43-.16c.14-.05.26-.12.4-.18L374,44a1.81,1.81,0,0,0,.32-.22l.23-.19Z"/><path class="cls-6" d="M349.53,53.12l.21.16.24.19a1.69,1.69,0,0,0,.31.21l.36.19c.14.06.27.13.41.18s.28.11.43.15a3.74,3.74,0,0,0,.45.12l.91.21a3.59,3.59,0,0,1,.47.12l.5.16a8.31,8.31,0,0,1,1,.46A9.92,9.92,0,0,1,356,56a10.41,10.41,0,0,1,1.13.94,9.16,9.16,0,0,1,1,1.23,7.92,7.92,0,0,1,.83,1.48,5.75,5.75,0,0,1,.45,1.63,7,7,0,0,1,0,.78,5.09,5.09,0,0,1-.09.71A3.57,3.57,0,0,1,359,63.8a3.31,3.31,0,0,1-.46.58l-.15.13-.05,0-.22-.16a5.11,5.11,0,0,0-.55-.37,5,5,0,0,0-.77-.36,6.47,6.47,0,0,0-.89-.24l-.92-.18a8.83,8.83,0,0,1-1-.28,8,8,0,0,1-1.07-.47,10.25,10.25,0,0,1-1.13-.7,9,9,0,0,1-2.2-2.24,7.49,7.49,0,0,1-.45-.73c-.07-.13-.13-.26-.19-.39a2.43,2.43,0,0,1-.18-.4,6,6,0,0,1-.4-1.64,6.77,6.77,0,0,1,0-.77,6.19,6.19,0,0,1,.1-.7,5.79,5.79,0,0,1,.2-.59,2.39,2.39,0,0,1,.24-.48l.11-.19a.92.92,0,0,1,.14-.14l.21-.22A2.1,2.1,0,0,1,349.53,53.12Z"/><path class="cls-6" d="M374.76,53.12l.19.18.22.22a.89.89,0,0,1,.13.14l.12.19a4.28,4.28,0,0,1,.24.48,5.87,5.87,0,0,1,.19.59,4.53,4.53,0,0,1,.1.7,5,5,0,0,1,0,.77,5.72,5.72,0,0,1-.41,1.64,3.7,3.7,0,0,1-.17.4c-.06.13-.13.26-.2.39a6,6,0,0,1-.45.73,9.17,9.17,0,0,1-2.19,2.24,10.34,10.34,0,0,1-1.14.7,7.44,7.44,0,0,1-1.07.47,8.27,8.27,0,0,1-1,.28l-.92.18a6.74,6.74,0,0,0-.88.24,5.11,5.11,0,0,0-.78.36,6.39,6.39,0,0,0-.55.37l-.22.16-.05,0a1.43,1.43,0,0,1-.14-.13,2.58,2.58,0,0,1-.46-.58,3.56,3.56,0,0,1-.42-1.07,5.13,5.13,0,0,1-.08-.71,5.19,5.19,0,0,1,0-.78,6.5,6.5,0,0,1,.45-1.63,8,8,0,0,1,.84-1.48,8.48,8.48,0,0,1,1.05-1.23,9.46,9.46,0,0,1,1.12-.94,9.18,9.18,0,0,1,1.12-.69,7.71,7.71,0,0,1,1-.46l.49-.16a4.64,4.64,0,0,1,.47-.12l.92-.21a4.32,4.32,0,0,0,.45-.12l.43-.15c.14,0,.26-.12.4-.18l.36-.19a1.77,1.77,0,0,0,.32-.21l.23-.19Z"/><path class="cls-6" d="M362.14,37.09l-.06,0-.16-.1c-.13-.09-.35-.23-.56-.4a9,9,0,0,1-.73-.62c-.25-.24-.51-.51-.76-.8a7.48,7.48,0,0,1-1.21-2,6.08,6.08,0,0,1-.45-2.3,5.93,5.93,0,0,1,.44-2.31,7.42,7.42,0,0,1,1.21-2,10,10,0,0,1,.76-.81c.26-.24.5-.44.73-.62s.44-.3.57-.39l.16-.11.06,0,.06,0,.17.11c.13.09.35.22.56.39a9.32,9.32,0,0,1,.73.62,8.51,8.51,0,0,1,.76.81,7.21,7.21,0,0,1,1.22,2,6.32,6.32,0,0,1,.44,2.31,6.49,6.49,0,0,1-.45,2.3,7.51,7.51,0,0,1-1.22,2,9.74,9.74,0,0,1-.76.8,9,9,0,0,1-.72.62c-.22.17-.44.31-.56.4l-.17.1Z"/><path class="cls-2" d="M36.9,73.78A36.89,36.89,0,1,1,73.79,36.89,36.93,36.93,0,0,1,36.9,73.78m0-70.66A33.77,33.77,0,1,0,70.66,36.89,33.82,33.82,0,0,0,36.9,3.12"/><path class="cls-2" d="M10.55,13.8s4.25-1.25,5.74-.75,5.5,3.24,5.25,6-.5,6.74.5,8,1,4.5,2,3.5,0-3.5,1-2.74S29.53,32,31.53,32s3.5.25,3.75,2,0,2.5-1.76,4.49-1.25,2.75-.49,4,3,2.75,3.24,4.49,1.25,9,2,10.49,2.76,8.24,4,8.24,1.75-6.48,2-7.74S47,52.25,49,51s5.25-4.25,5.49-6.74,1.26-5.75-2.24-7S39.52,35.76,38.52,35a8.39,8.39,0,0,1-2.25-4.74c0-1.25-2-2-2-2s2.25-3.75,4.25-3.5,5,.5,5,2,1.49,2.74,1.74,1.5-1-2.5,0-3.25,4-.75,4.24-3,2-3,2-4.74.24-3.75-1-3.25-3.24,4.25-5,4.25-2.74-.75-2-1.75,2.74-3.24,3.24-5.25S46,8.8,44.51,8.8,38.77,11.05,37,11.29s-4,.76-3.74-.74A14.4,14.4,0,0,1,35.77,5.3c1-1.24,2-2.25,1.75-3.24S17,1.31,10.55,13.8"/><path class="cls-2" d="M64,13.54s-.25,2.43-.26,2.75c0,1.28-.14,4.64-.74,5.25s-2,2.24-1,2.24,3.75-2.5,4.49-2,2.75,2.5,1.75,3.5-1.5,2-2.74,1-2.75-2-4-.5S56.75,29,58.24,33.27s2.75,3.49,3.5,2.49,4,1.26,3.75,3C64,47.51,68.23,54.5,67.23,56s6.34-8.49,5-24.22A29.17,29.17,0,0,0,64,13.54"/><path class="cls-2" d="M2.06,39.51s3-2.75,4-2,4.25,2.24,2.75,3-3.75-.5-3.75,1-.5,1.74.5,2.25,2.74-.51,3.49,1,1.75,3.24,2.5,3.49-.25,5.5-1,6.75-.24,2.74-1.5,2.74-7.74-9-7.49-18.23"/><path class="cls-2" d="M11.31,37.18s-.66.16-.39-.16,5.78-4,6.84-4,1.33.55,1.33,1.08.2,9.49.2,11.34.37,9.91,0,10.33-3.72,3.48-4.78,3.48-.4-14.73-.6-16.43c-.14-1.15-.67-5.09-1-5.4s-1.6-.23-1.6-.23"/><path class="cls-2" d="M24.82,36.3a.34.34,0,0,1,0-.45,4,4,0,0,1,.91-.61c.34-.21,3.12-2.35,3.79-2.35a6.82,6.82,0,0,1,2.58,1,13.38,13.38,0,0,1,1.48.85,4.44,4.44,0,0,1,.25,1.78c-.13.35-8.37,6.09-8.37,6.86s3.46,4.79,3.66,5.09,5.45,7.4,6.78,7.72c.94.21-1.87,2.31-2.8,2.69s-2.39.62-2.92.16-9.83-12.65-9.77-13.34,5.85-4.17,6.92-6.4-1.38-2.83-2.52-3"/></g></g></svg>