<svg xmlns="http://www.w3.org/2000/svg" xmlns:xlink="http://www.w3.org/1999/xlink" viewBox="0 0 200.3 121.42"><defs><style>.cls-1,.cls-2{fill:#fff;}.cls-2{fill-rule:evenodd;}.cls-3{clip-path:url(#clip-path);}</style><clipPath id="clip-path"><path class="cls-1" d="M47.81,44.53c11,6.64,22.06,3.52,24.94-14.12ZM73.1,27.84c-.1.89-.21,1.75-.35,2.57L98.1,16.06a14.55,14.55,0,0,0-9.48-3.45C82,12.61,75.12,17,73.1,27.84"/></clipPath></defs><title>Recurso 3</title><g id="Capa_2" data-name="Capa 2"><g id="Capa_1-2" data-name="Capa 1"><path class="cls-2" d="M38.83,92.28a5.51,5.51,0,0,1-2.92-1.12C34,89.67,33,87.05,33,83.3V63.09h5.83Z"/><path class="cls-2" d="M49.55,74.32h7.76v2.24H49.55V83.3q0,6.24,3.88,6.74H61.2v2.24H53.43a13.17,13.17,0,0,1-4.85-1.12,8,8,0,0,1-4.86-7.86V63.09h5.83Z"/><path class="cls-2" d="M100.12,92.28a5.44,5.44,0,0,1-2.91-1.12Q94.3,88.93,94.3,83.3V63.09h5.82Z"/><path class="cls-2" d="M132.59,83.3H110.12a4.89,4.89,0,0,1,4.12-2.24h12.37q-.7-4.19-3.73-4.5h-9.71a3.5,3.5,0,0,0-1.59.54,5.44,5.44,0,0,0-2.1,4,23.12,23.12,0,0,0-.23,2.59c.11,3.94,1.4,6.07,3.92,6.39h13.49v2.24H113.17a13.17,13.17,0,0,1-4.85-1.12c-3.24-1.49-4.85-4.12-4.85-7.86a8,8,0,0,1,4.85-7.86,13.37,13.37,0,0,1,4.85-1.12h9.71a13.37,13.37,0,0,1,4.85,1.12,8,8,0,0,1,4.86,7.86"/><path class="cls-2" d="M141.21,76.56V92.29h-5.82v-18h15.14a14.41,14.41,0,0,1,5.05,1.12,8,8,0,0,1,5,7.86v9H154.8v-9q0-6.24-4.27-6.74Z"/><path class="cls-1" d="M29.12,92.28H23.31v-9q0-6.24-3.89-6.74H9.71q-3.89.5-3.89,6.74T9.71,90H22a5.14,5.14,0,0,1-4,2.24H9.71a13.27,13.27,0,0,1-4.86-1.12Q0,88.93,0,83.3a8,8,0,0,1,4.85-7.86,13.48,13.48,0,0,1,4.86-1.12h9.7a13.48,13.48,0,0,1,4.86,1.12,8,8,0,0,1,4.85,7.86Z"/><path class="cls-1" d="M90.48,92.28H84.66v-9q0-6.24-3.88-6.74H71.06q-3.89.5-3.88,6.74T71.06,90H83.35a5.15,5.15,0,0,1-4,2.24H71.06a13.17,13.17,0,0,1-4.85-1.12q-4.86-2.23-4.85-7.86a8,8,0,0,1,4.85-7.86,13.37,13.37,0,0,1,4.85-1.12h9.71a13.37,13.37,0,0,1,4.85,1.12,8,8,0,0,1,4.86,7.86Z"/><path class="cls-1" d="M192.74,92.28h-5.82v-9q0-6.24-3.88-6.74h-9.71q-3.88.5-3.88,6.74T173.32,90h12.29a5.17,5.17,0,0,1-4,2.24h-8.31a13.17,13.17,0,0,1-4.85-1.12q-4.86-2.23-4.86-7.86a8,8,0,0,1,4.86-7.86,13.37,13.37,0,0,1,4.85-1.12H183a13.37,13.37,0,0,1,4.85,1.12,8,8,0,0,1,4.86,7.86Z"/><path class="cls-2" d="M95.78,109h0l-.09-.32.4-.34a.93.93,0,0,1,.11-.64l-.09-.1.45-1.27,0-.51.17-.52v-.12l-.15,0L97,104l0-.39-.08-.05v-.12l-.19.23-.94,1-.41.55-.68.61-.34.57-.64.37a3.8,3.8,0,0,1-1.26,1.41l-.43.64-.46.44.2,0a1.07,1.07,0,0,0,.58.12h.08a.68.68,0,0,1,.31-.12.35.35,0,0,1,.29.08l.08,0a2.38,2.38,0,0,1,.43-.07,2.57,2.57,0,0,1,.51,0l.83-.21.33.32a1.91,1.91,0,0,0,.64-.48s0,0,0,0l0,0m1.69,7.85a2.34,2.34,0,0,1-1.2,1.18l-.59-.48-.24,0-.15-.28-.35,0v-.6l-.15-.13,0-.69-.14-.55.11-.25-.08-.2.18-.5-.12-.34.19-1.42,0-.32.3-.87,0-.5-.42-.05-.68.47,0-.15-.49.35,0-.33a1.81,1.81,0,0,1-.34.07,2.17,2.17,0,0,1-.34,0h-.18l-.61.4-.46,0h-.09l-.48.32-.21-.13a.86.86,0,0,1-.56-.06l-.11,0-.74.43-.06-.32-.33-.11-.13.1-1.27,1.36-.41.16a16.42,16.42,0,0,1-1.86,2l-.11,0-1.24,1.3H84l-.86,1-1.13.75a1.74,1.74,0,0,1-.37.1.55.55,0,0,1-.6-.35l.61-.81.2-.47.16-.17.32-.62L83,116l.24-.18a1.86,1.86,0,0,0,.6-.69,1.65,1.65,0,0,0,.76-.68A4.4,4.4,0,0,0,86,113l.46-.22,1.06-1.22a2.42,2.42,0,0,1,.12-.85l.7-.58.26-.59h.81l.29-.18a2.47,2.47,0,0,1,.77-.8l.31-.6.61-.39.31-.19.09-.18a2.14,2.14,0,0,1,.3-.51,3.49,3.49,0,0,0,1.05-1.34l.35-.12.24-.3.16,0,.92-1.17.08,0,.23-.14.37-.84.16,0a6.52,6.52,0,0,0,1-1.15l.16-.14L97,101a3.7,3.7,0,0,1,1.27-1l.64-.54.18.63.41.4-.3.81a1.43,1.43,0,0,1,0,.36,2.06,2.06,0,0,1-.13,1.05l-.21.77,0,.65-.25,1-.18.5.09.64-.18.23.08.2-.28.63-.16.46c-.18.32-.26.44-.22.35l0,.15s0,.08,0,.23a2.13,2.13,0,0,0,.46-.14l.66-.07a.47.47,0,0,0,.55-.12,1.07,1.07,0,0,1,.53-.2.69.69,0,0,1,.52.24h.63a2.3,2.3,0,0,1-.12.37,1.72,1.72,0,0,1-.64.75l-.26-.12-.9.69-.46,0-.29.18-.51.11,0-.12-.65.24-.1.19-.28.72,0,.53-.2.56.06.94-.2.35.08.26v1.1l.14.49,0,.25.27.23-.07.49Z"/><path class="cls-2" d="M109.31,108.55l-.07,0a.4.4,0,0,1-.16-.26c0-.11,0-.23,0-.35a.36.36,0,0,1-.26-.26h-.13l-.3-.21-.47-.1-.53.06-.57.12-.1-.12-.21.06,0,.08-.22,0a3.6,3.6,0,0,1-.91.55l-.35.33-.24.12-.32.32-.39.65-.28.15-.18.36-.29.14-.2.47-.71.65-.22.31-.3.52,0,.21-.26.22.06.14-.4.35,0,.18,0,.24.09.08h.16l.28-.16.17,0,.45-.14.11-.12L103,113l.11-.12.34-.14,0,0,.82-.51.32-.1.26-.26.32,0,.54-.35,0,0,.23-.14.43-.41.29-.18.33-.43.41-.1.41-.32.12-.06.18-.35.4-.14Zm1,4.81-.68.83-.3.23a1.75,1.75,0,0,1-.94.48.74.74,0,0,1-.55-.34l-.17-.57,0-.35.09-.36.09-.59.43-.87.31-.75.27-.41,0-.12-.91.69h-.07l0,.06-.65.53-.93.59-.76.58-.7.41a5.54,5.54,0,0,1-.75.55l-.59.28-.43.31-.57.14-.31.22-.53.08-.52.21-.06,0-.09.1-.66-.08-.58-.51a1,1,0,0,1-.06-.73.34.34,0,0,0,.12-.06l.11-.08-.2-.1v-.39l.18-.14V113l.25-.28.13-.35.45-.58.31-.61.24-.17.21-.42.28-.25.2-.3.07,0,.12-.26.39-.31.18-.28.23-.19.13-.12.33-.47.36-.42.16-.1.18-.25.43-.28.41-.41.67-.22.53-.33,1.17-.26.39,0,.12.08.12-.16.54,0,.15.06.17,0,.09.1.42,0,.11-.06.08.08.21,0-.07.13.06.07.42.07.17.34.3.29v.2l0,0,.22-.27.27-.26.18-.46.51-.82,0-.32.3-.23v-.22l.35-.55.17-.48-.14-.13.48-.32L113,103a1.06,1.06,0,0,0,.07-.73h.13l.41-.31a4.11,4.11,0,0,1,.64-.06.72.72,0,0,1,.46.12c.21.06.17.38-.11.94h-.12l-.06.08.13.16-.3.32,0,.37-.17.12a.7.7,0,0,1-.08.27,1,1,0,0,1-.21.3l0,.12a.46.46,0,0,1-.08.25,1.17,1.17,0,0,1-.31.4,17,17,0,0,1-1,1.54.38.38,0,0,1-.06.17,1.34,1.34,0,0,1-.24.34l-.06.12a3.4,3.4,0,0,1-.35.53l-.37.59-.19.16,0,.18-.26.29,0,.26-.48.61-.12.45-.19.26-.16.39a.58.58,0,0,1-.06.26.62.62,0,0,1-.1.16l.08.11-.38.4,0,.41-.12.12v.12l-.12.12,0,.06.12.15.36,0Z"/><path class="cls-2" d="M121.53,107.81l-.08,0a.45.45,0,0,1-.16-.26c0-.12,0-.23,0-.35a.36.36,0,0,1-.26-.26h-.14l-.3-.21-.46-.1-.53,0-.57.12-.1-.12-.21.07,0,.07-.23,0a3.19,3.19,0,0,1-.91.55l-.34.34-.24.12-.32.31-.39.66-.28.15-.18.36-.3.13-.19.48-.71.65-.22.31-.31.52,0,.21-.27.22.07.14-.4.35,0,.18,0,.24.1.08h.16l.28-.16.17,0,.45-.14.1-.12.5-.14.11-.11.34-.14,0,0,.82-.52.32-.09.26-.26.32,0,.53-.35,0,0,.22-.14.44-.42.29-.17.33-.44.41-.09.4-.32.12-.06.18-.35.41-.14Zm1,4.81-.69.83-.3.23a1.75,1.75,0,0,1-.94.48.81.81,0,0,1-.55-.34l-.16-.57,0-.36.09-.35.1-.59.43-.87.3-.75.28-.41,0-.12-.92.69h-.06l0,.06-.65.53-.93.59-.76.57-.71.42a5.54,5.54,0,0,1-.75.55l-.58.28-.43.31-.57.14-.31.22-.54.07-.51.22-.06,0-.09.1-.66-.08-.58-.51a1,1,0,0,1-.06-.73l.12-.06.1-.08a.77.77,0,0,0-.2-.1v-.39l.18-.14v-.24l.25-.27.13-.36.45-.57.3-.61.25-.18.21-.41.28-.26.19-.29.07,0,.13-.26.38-.31.19-.28.23-.2.13-.11.32-.48.37-.41.16-.1.17-.26.44-.27.41-.42.67-.21.53-.34,1.16-.25.4,0,.12.07.12-.15.54,0,.15.06.17,0,.08.1.42,0,.12-.06.07.08h.22l-.07.14.06.06.41.08.17.34.31.29v.22l.23-.28.26-.25.19-.46.5-.82,0-.32.31-.24v-.21l.35-.56.16-.47-.13-.14.48-.31.1-.22a1,1,0,0,0,.08-.73h.13l.41-.31a3.91,3.91,0,0,1,.64-.06.72.72,0,0,1,.46.12c.2.06.17.38-.12.94h-.11l-.06.08.12.16-.29.31v.38l-.17.12a.54.54,0,0,1-.07.27,1.26,1.26,0,0,1-.22.3l.06.12a.83.83,0,0,1-.08.25,1.49,1.49,0,0,1-.31.4,16.27,16.27,0,0,1-1,1.53.46.46,0,0,1-.06.18,1.65,1.65,0,0,1-.24.34l-.06.11a3.71,3.71,0,0,1-.35.54l-.37.59-.19.16,0,.17-.25.3,0,.25-.49.62-.11.45-.2.26-.15.39a.58.58,0,0,1-.06.26,1,1,0,0,1-.1.15l.08.12-.38.4,0,.41-.13.12V112l-.13.12,0,0,.12.16.37,0Z"/><path class="cls-2" d="M145.48,111a1.63,1.63,0,0,1-.51.41l-.41.33-.29.4-.23.06-.11.12a1.51,1.51,0,0,0-.76.49,3.13,3.13,0,0,1-.74.39,1.77,1.77,0,0,1-.27.14l-.2.18-.23,0-.72.27-.81.08-.18,0-.37.06-.07-.14a.71.71,0,0,1-.31-.27c-.16,0-.23-.17-.22-.38a.73.73,0,0,1-.06-.63l0-.06,0-.23,0,0,0-.36v-.37l.27-.45-.1-.26.79-2.83a4,4,0,0,1,.22-.57v-.1l0-.14-.32.24-1.19.75-.5.42-.29.27-.41.32-.26.15,0,.1-.62.61-.28.2-.24,0-.3.18a1,1,0,0,1-.68.51l-.06,0a1.91,1.91,0,0,1-.72.53l-.34.28c-.47.26-.77.43-.9.49a1.54,1.54,0,0,1-.42.33,1.09,1.09,0,0,1-.24.16,1.37,1.37,0,0,1-.87.48l-.28.06a.5.5,0,0,1-.51-.46l-.09-.49.35-.47.08-.26.06,0,.16-.26v-.47l.29-.24,0-.25.3-.28.27-.45-.05-.08.32-.28v-.13l.14-.32.38-.59a2.25,2.25,0,0,1,.09-.26.33.33,0,0,1,.06-.08l0-.07,0-.16.39-.63.08-.22.23-.31.17-.54.71-.59a1.68,1.68,0,0,1,.83.28c.13.1.12.3,0,.59l-.09.18,0,.23-.27.42-.31.79-.34.37-.14.41-.17.34-.29.22,0,.35-.24.22-.14.21,0,.22-.39.41-.15.18-.09.18v.2l.55-.34a.71.71,0,0,1,.43-.39.77.77,0,0,1,.32-.3l0-.06.41-.23.11-.08.08-.18.48-.24.19-.19.26-.12,1.32-.87-1.11.73,0,0,.11-.14.45-.3.37-.33.09-.2.39-.1.18-.25.13-.08.07-.1.06-.14.46-.27a.93.93,0,0,1,0-.1.13.13,0,0,1,0-.08.69.69,0,0,1,.64-.39,1.51,1.51,0,0,1,.82-.42l.23-.18.06,0a1.85,1.85,0,0,1,.79-.36l.31-.22h.54l.13.28.19.12v.06l.14,0-.16.41.29.2-.38.43v.47l-.28.56-.19.75-.59,1.83v.42l-.12.51a.46.46,0,0,1,0,.34l.36.09-.2.4.11.22,0,.05.08,0,0,.12.14-.1s0,0,.1,0A1.34,1.34,0,0,0,142,112l.29-.06.13-.1a1,1,0,0,1,.38-.24l.15,0,.13-.07.07-.1.11-.08a1.26,1.26,0,0,0,.5-.42l.37-.23.13-.18.32-.32.5-.13.52.17-.09.58a0,0,0,0,0,0,0l0,.07"/><path class="cls-2" d="M155.22,110.52l-.55.73-.07.23-.07.07a.79.79,0,0,1-.09.35.8.8,0,0,1-.19.24l0,0c-.08.15-.47.8-1.17,1.93l-.72,1-.31.75-1.43,1.55-.39.38-.28.19-.1.06-.13.11h-.09l0,.1-.11.12a.9.9,0,0,1-.25.28L149,119a2.28,2.28,0,0,1-.42.4,11.35,11.35,0,0,1-.91.69l-.51.25-.59.32-.41.14-.36.18-.2,0a3.78,3.78,0,0,1-1.14.26l-.13,0-.24.08,0,0a4.17,4.17,0,0,1-.69.08h-.88l-.5-.1-.51.08-.13-.18-.65-.06-.27-.35-.26-.16a.76.76,0,0,1-.52-1.05l.09-.08.09-.31a1.45,1.45,0,0,1,.69-.39,1,1,0,0,1,.41-.1l.38.06c.27,0,.54.06.84.08l-.19.29.19.16-.12.24-.28.19.9.28.57-.1-.07.14.17,0h.05l.27,0,0,.08.28-.1a3.74,3.74,0,0,1,1.14-.12,2.94,2.94,0,0,0,.31-.16l.1,0h.13a.73.73,0,0,0,.4-.23s0,0,.05,0l.14,0,.11,0h0l1-.55.57-.45.15-.26.39-.27,1.46-1.35,1.28-1.55.71-1.28.43-.49a3.8,3.8,0,0,1,.16-.36,4.27,4.27,0,0,1,.57-.86l.07-.32.48-1v-.34l.28-.55,0-.41.34-.64,0-.09-.18,0-.29.29-.46.26-.69.57-.77.35-.91.57a11.81,11.81,0,0,1-1.7.87l-.35.24-.43.18-.38.13-.42.26-.44.16a1.61,1.61,0,0,1-.63.21,3,3,0,0,1-1.28.3h-.24l-.33,0-.26,0-.39,0-.34-.49-.19-.5,0-.41.24-.79.38-.57.56-.67.06-.22.51-.61.38-.35a3,3,0,0,0,.39-.61l.9-.81a1.78,1.78,0,0,1,.51-.34l.4-.33.4-.26a2,2,0,0,1,.58-.45.87.87,0,0,0,.4-.3,2.29,2.29,0,0,1,1.05-.39l-.12,0,.13,0c.08-.07.25-.2.52-.39l.25,0,.26-.12a1.89,1.89,0,0,1,.91-.28h.16l.68-.2.29.1h.4l.19.12a.28.28,0,0,1,.28.18l.17.27.07,0v.08l.06.28,0,.1-.23.31-.06.22-.49.39-.7.08-.1-.47-.26-.1-.09-.14h-.23l-.57.2-.1.16h-.57a1.27,1.27,0,0,1-.65.31l-.34.14-.37.37-.17,0-.11.18h-.31l-.5.42-.32.13-.23.28-.55.41-.24.4-.39.23-.67.85-.26.16-.09.22-.64.75-.05.23-.14.24a.6.6,0,0,1,0,.41l.13,0v.12a.79.79,0,0,1,.46.08,5.68,5.68,0,0,1,1.25-.3,1.85,1.85,0,0,1,.58-.39c.21-.09.64-.26,1.27-.49l.06,0a.66.66,0,0,1,.28-.3,4,4,0,0,0,.48-.16.72.72,0,0,0,.33-.25l.4-.08.32-.18.9-.67.12.08a7.83,7.83,0,0,1,.76-.53l.82-.56.17-.25a7.28,7.28,0,0,0,1.27-1.26l.09-.42,0-.27.28-.3-.07-.22.09-.27,0-.2.41-.35a2.07,2.07,0,0,1,.59-.16.82.82,0,0,1,.46.18l0,.25.19.2-.17.43c0,.12-.05.3-.11.54a.76.76,0,0,1-.09.41l-.07.14,0,.12.09.31-.24.36,0,.15a.67.67,0,0,1-.08.3,1.42,1.42,0,0,1-.13.22l.17.06-.4.49-.1.37a.72.72,0,0,1-.06.36,2.44,2.44,0,0,1-.31.39l.08.1Z"/><path class="cls-2" d="M178,114.34a1.13,1.13,0,0,1-1.06.56,1.47,1.47,0,0,1-.6.15l-.89.1H175l-.42.2-.52,0-.28.14-1.12,0-.76.25h-.11l-.24,0-.16.1a1.33,1.33,0,0,1-.48.1.88.88,0,0,1-.32-.08l-.55.1-.52,0-.62.14h-1.33L167,116l-.63,0-.12-.16-.42,0a2,2,0,0,1-.7-1.36c.06-.31.1-.63.14-.94v-.38l.56-.67.27-.81.26-.12.42-.75,3.78-5.85.4-.59.62-1.23.36-.31,1.27-2.24.31-.71.26-.16-.13-.14.62-.71.08,0,0-.31.59-.18a2.59,2.59,0,0,1,.71-.3l.55.08,0,1-.42.22a.45.45,0,0,1-.05.31l-.54.59L173.72,103l-.55.61-.35.57-4.36,6.65-.08.15a1.47,1.47,0,0,1-.25.38l-.19.28-.22.35-.26.61-.15.16-.25.87v.61l0,0,.62.44,1.17.1.37,0,.91-.12h.61l.21-.1,1.26,0,.34-.14.91,0,.47-.11,1.49-.06.68-.14.53,0,.31-.16a2,2,0,0,1,.59-.1c.48,0,.64.16.48.47"/><path class="cls-2" d="M195.18,101.49a2.16,2.16,0,0,1-.94.79l-.12-.1-.46.18-.06-.77a1.05,1.05,0,0,0,.07-.5l-.17.07-.3-.18-.12,0-.37.15-.42-.11-.19.06a1,1,0,0,1-.5.19.34.34,0,0,1-.15,0l-.09.2-1,.77c-.08.13-.25.37-.52.73l-.26.12-.2.21-.2.18-.09.39-.45.36-.23.3-.17.15-.12.28-.67.71-.12.33c0,.06-.23.24-.55.56l-.06.07a2.55,2.55,0,0,1,.43-.09l.12,0,.24-.06h.07l.75,0,.08,0,.34,0a1,1,0,0,1,.44.1,2.67,2.67,0,0,1,.51-.06.55.55,0,0,1,.28.06h.2l.27,0c.53,0,.71.21.52.58a1.85,1.85,0,0,1-.25.37l-1.14.26-.55-.08c-.19,0-.49.08-.9.14l-.07-.1a.94.94,0,0,1-.5.14h-.24l-.76.25-.25-.14h-.11a1.58,1.58,0,0,1-.58.26l0,.12-.23.27,0,.34-.55.51-.33.79-.25.28-.07.27-.44.44-.05.23s0,0,0,.1l-.31.43a6.18,6.18,0,0,0-.48.79l-.09.18a2.68,2.68,0,0,1,.12.26l-.33.33,0,.4-.28.31-.23,1-.47,1.06.17.4-.43.43a1.1,1.1,0,0,1-.06.67l0,.06a.62.62,0,0,0,0,.1l0,.1a1.47,1.47,0,0,1-1.38.78l0-.31-.2-.14.14-.35.1-1.11.1-.22c.07-.23.1-.37.12-.41a1.16,1.16,0,0,1,.09-.14l.1-.33.24-.34,0-.21.22-.44.39-1.24.07,0,.06-.22.19-.27,0-.26.24-.21.52-1,.17-.12.35-.71.15-.15L183,110l.2-.23c.15-.23.49-.72,1-1.5h-.09l-.26-.08h-.33l-.67.08-.35-.08-.71.12-.21,0-.28,0c-.53-.26-.78-.47-.75-.61l0-.34c.46-.51.85-.77,1.2-.77l.7.14,1.28,0,.7-.12.53,0,.19,0,.2-.25.33-.57.23-.24.13-.4a.88.88,0,0,1,.37-.37l.08-.22.37-.23.41-.59.14-.1.06-.26a1.64,1.64,0,0,0,.5-.45l0-.12c-.05.11.22-.2.8-.91l.2-.1.24-.43v.1l0-.06a1,1,0,0,1,.56-.49l.22-.18.57-.57h0a.4.4,0,0,0,.37-.26l0-.08.73-.19h.18a2.39,2.39,0,0,1,.64-.08h.16l.13,0,.55-.1.53.12.15.06a1.19,1.19,0,0,1,.35-.08c.21,0,.34.14.38.41l.22.2,0,.39.19.3-.19.55Z"/><path class="cls-2" d="M198.64,104.1a.73.73,0,0,0,.05-.24l-.1,0-.06,0h-.09a.18.18,0,0,1-.1,0l-.06,0h-.06l-.3.14-.21,0-.14,0-.59.43-.33.16-.64.55-.26.12a2.33,2.33,0,0,1-.6.57L195,106a1.6,1.6,0,0,1,.63-.14l.19-.06.15-.17.31,0,.3-.24h.13l.21.08.26-.3h.16l.11-.21.32-.06.1-.06.13-.18.48-.37a1,1,0,0,0,.17-.24m-.61,5.68a2.15,2.15,0,0,1-.7.59,2.81,2.81,0,0,1-.6.51l-.15,0-.43.37-.44.06-.54.24-.41.35-.23,0a2.08,2.08,0,0,1-.46.12l-.23.18-.19,0a1.33,1.33,0,0,0-.74.36l-.2-.24-.28,0a1.15,1.15,0,0,1-.46-.08h-.38l-.13-.1c-.53-.08-.8-.27-.79-.57l0-.06-.21-.12,0-.33-.19-.16.15-.3.17-.86.4-.71.24-.32.21-.41.27-.32.05-.14.27-.23-.06,0a1.38,1.38,0,0,1,.3-.38l.05-.1.17-.47a1.43,1.43,0,0,1,.64-.59l.08-.12a1.66,1.66,0,0,0,.06-.31c.05-.17.08-.29.11-.36a1.82,1.82,0,0,1,.39-.49c0,.16.17.24.4.24h.07a.8.8,0,0,1,.29-.18,4.69,4.69,0,0,1,.91-.83l.13-.08a3.08,3.08,0,0,1,.36-.45h.18l.1-.1.19,0,.23-.18.62-.25a1.73,1.73,0,0,1,.4-.26l.27-.08.15-.12a4.77,4.77,0,0,1,.85-.17.56.56,0,0,1,.3.07l.13,0,.11.08a1.9,1.9,0,0,0,.4.3l.25.25,0,.08c.23.24.23.58,0,1l-.17.2-.26.65-.26.12-.48.51-.64.41-.18.32c-.63.3-1.2.54-1.7.73a1.18,1.18,0,0,1-.76.27h-.07l-.55.24h-.36l-.64.2-.32-.18h0a4.82,4.82,0,0,0-.33.47l-.24.12-.14.24-.3.33c-.12.32-.2.52-.24.61l-.12.06c-.09.17-.16.3-.21.38l-.06,0a.39.39,0,0,0,0,.06.18.18,0,0,0,0,.26c0,.16,0,.26.07.3l.1.11.44.12,0,.06.16,0,.75,0,.48-.06.3-.14.15,0,.37-.29.12,0,.65-.16a1.43,1.43,0,0,1,.41-.24l.12-.09a1.07,1.07,0,0,0,.72-.42,1.86,1.86,0,0,1,1-.27H198a.81.81,0,0,1,.08.71"/><path class="cls-2" d="M182.19,101.08a1.09,1.09,0,0,1-.58.44l0,0c-.44.3-1.52.07-1.52.07l-.55-.27-.05-.35c.19-.27.07-.31.32-.43l.27-.25.32-.29.8.08c.89.21,1.23.53,1,1"/><path class="cls-2" d="M176.64,111.36l-.13,0-.24.18h-.45l-.48.23-.63-.59,0-.77.46-1,0-.24,1.14-1.73.13-.08a3.54,3.54,0,0,1,.22-.57,7.55,7.55,0,0,1,.5-.73l.34-.46a.39.39,0,0,0,0-.25l.33-.38.27-.45.07-.06a1,1,0,0,1,.09-.39l.09-.1a.8.8,0,0,0,.08-.12,1.33,1.33,0,0,1,.1-.34.8.8,0,0,1,.83-.43l.26,0a1.87,1.87,0,0,1,.4-.12c.3,0,.43.15.39.44l0,.08a1.3,1.3,0,0,1-.14.45.77.77,0,0,1-.17.25l-.65,1,0,.28a1.83,1.83,0,0,1-.59.63l0,.23-.67.75a5.76,5.76,0,0,1-.49.75l-.24.49-.28.28-.07.2-.27.45-.14.36.22.23.29,0s.83.24-.45,1.5"/><path class="cls-2" d="M132.86,102.84a1.08,1.08,0,0,1-.58.43v0c-.44.31-1.52.08-1.52.08l-.55-.27,0-.36c.19-.26.06-.31.32-.42l.26-.26.32-.28.81.08c.88.2,1.22.53,1,1"/><path class="cls-2" d="M127.31,113.12l-.12,0-.25.17h-.45l-.48.24-.63-.59,0-.77.46-1,0-.24,1.14-1.74.13-.08a3.34,3.34,0,0,1,.22-.57,6,6,0,0,1,.5-.73l.34-.45a.5.5,0,0,0,0-.26l.32-.37.27-.45.08-.06a1.05,1.05,0,0,1,.08-.4l.1-.1.08-.11a.79.79,0,0,1,.1-.34.78.78,0,0,1,.83-.43l.26,0a2.06,2.06,0,0,1,.39-.12c.3,0,.43.14.4.43l-.05.08a1.51,1.51,0,0,1-.13.46,1.18,1.18,0,0,1-.17.25l-.66,1,0,.27a1.6,1.6,0,0,1-.59.63l0,.24-.67.75c-.2.33-.36.58-.49.75l-.25.49-.27.28-.08.19-.27.46-.13.35.22.24.29,0s.83.24-.46,1.5"/><path class="cls-2" d="M110,28.66c-7.26-6.29-21.91-4.86-25,11.78-2.2,19.9-13.75,23.65-25.29,16.7Z"/><path class="cls-2" d="M98.1,16.06c-7.26-6.3-21.9-4.87-25,11.78-2.2,19.9-13.75,23.64-25.29,16.69Z"/><path class="cls-1" d="M47.81,44.53c11,6.64,22.06,3.52,24.94-14.12ZM73.1,27.84c-.1.89-.21,1.75-.35,2.57L98.1,16.06a14.55,14.55,0,0,0-9.48-3.45C82,12.61,75.12,17,73.1,27.84"/><g class="cls-3"><polygon class="cls-2" points="66.37 27.15 75.54 31.97 102.73 15.79 91.4 3.75 66.37 27.15"/></g><path class="cls-2" d="M86.24,3.45c-7.26-6.3-21.9-4.86-25,11.78C59,35.13,47.49,38.87,36,31.92Z"/></g></g></svg>