<svg xmlns="http://www.w3.org/2000/svg" viewBox="0 0 929.92 251.38"><defs><style>.cls-1,.cls-2{fill:#fff;}.cls-2{fill-rule:evenodd;}</style></defs><title>logo-header</title><g id="Capa_2" data-name="Capa 2"><g id="Capa_1-2" data-name="Capa 1"><path class="cls-1" d="M654.22,133.32H575.56a23.71,23.71,0,0,0,9.4,13.35q6.88,4.72,17.06,4.72a46.32,46.32,0,0,0,16.34-2.87,30.83,30.83,0,0,0,13.12-9.34l19,25a46.9,46.9,0,0,1-11.79,10.71A67.38,67.38,0,0,1,621.06,183a74.43,74.43,0,0,1-21.91,3.12q-20.83,0-36.28-8.62a59.47,59.47,0,0,1-23.53-23.05,63.11,63.11,0,0,1-8.08-31.31v-4.43q0-18.79,7-33.94A54.72,54.72,0,0,1,559.4,60.7q14.25-8.93,35.2-8.92,18.2,0,31.67,7.54A50.68,50.68,0,0,1,647,81.11q7.24,14.25,7.24,33.89Zm-60-46.82q-8.87,0-13.29,5.27t-5.87,14.37h37.36v-3.47Q612.92,86.5,594.24,86.5Z"/><path class="cls-1" d="M112.9,155.05h-56L48,183.9H0L63.58,9.58H106L169.9,183.9H121.76Zm-11.13-36.16-17-55.08L67.89,118.89Z"/><path class="cls-1" d="M185.43,183.9V0h43.11V183.9Z"/><path class="cls-1" d="M324.2,150.74v31.85a71.49,71.49,0,0,1-23.59,3.71q-21,0-31.67-9.94t-10.71-31.13V85.37H242.9v-31h15.33V21.79h43V54.36H322v31H301.21v53.28a21.16,21.16,0,0,0,1.08,7.6,6.72,6.72,0,0,0,3.83,3.83,21.89,21.89,0,0,0,8,1.14A70.83,70.83,0,0,0,324.2,150.74Z"/><path class="cls-1" d="M447,170a43.62,43.62,0,0,0,4.19,11.91v2H408.49a51.46,51.46,0,0,1-3.59-11.13,36,36,0,0,1-12.34,10q-7.19,3.53-18.43,3.53a49.08,49.08,0,0,1-21.8-4.91,40.06,40.06,0,0,1-16-13.83,35.56,35.56,0,0,1-6-20.29q0-20.36,15-31.43t46.16-11.08h11.13v-6q0-7.78-3.29-11.86t-10.6-4.07q-6.35,0-9.4,2.94t-3.05,9.63H333.42a38,38,0,0,1,7.06-22.69q7.06-9.87,20.12-15.32T391,52a70.79,70.79,0,0,1,28.19,5.33,43.36,43.36,0,0,1,19.46,15.92q7.06,10.61,7.06,25.81V149.9Q445.72,163.43,447,170Zm-51.18-17.25a16.05,16.05,0,0,0,6.76-5.92V127.87H390.53q-9.34,0-13.35,5.21a19.67,19.67,0,0,0-4,12.39,8.37,8.37,0,0,0,3.35,6.94,12.93,12.93,0,0,0,8.26,2.64A24.26,24.26,0,0,0,395.86,152.71Z"/><path class="cls-1" d="M468.35,183.9V0h43.11V183.9Z"/><path class="cls-1" d="M783.82,63.93q10.65,12,10.66,39.52V183.9H751.37V103.33q0-6.94-2-10.66a10,10,0,0,0-5.63-5,30.3,30.3,0,0,0-9.64-1.26q-10.53,0-15.56,7.19V183.9h-43V54.36h40.23l1.44,15a43.75,43.75,0,0,1,15.92-12.93A48.07,48.07,0,0,1,754,52Q773.17,52,783.82,63.93Z"/><path class="cls-1" d="M925.7,170a43.29,43.29,0,0,0,4.19,11.91v2H887.15a52,52,0,0,1-3.6-11.13,35.87,35.87,0,0,1-12.33,10q-7.19,3.53-18.44,3.53A49.07,49.07,0,0,1,831,181.39a40.06,40.06,0,0,1-16-13.83,35.56,35.56,0,0,1-6-20.29q0-20.36,15-31.43t46.15-11.08h11.14v-6q0-7.78-3.29-11.86t-10.6-4.07q-6.35,0-9.4,2.94t-3,9.63H812.07a38,38,0,0,1,7.07-22.69q7.07-9.87,20.11-15.32T869.66,52a70.8,70.8,0,0,1,28.2,5.33,43.36,43.36,0,0,1,19.46,15.92q7.06,10.61,7.06,25.81V149.9Q924.38,163.43,925.7,170Zm-51.19-17.25a16,16,0,0,0,6.77-5.92V127.87H869.19q-9.35,0-13.35,5.21a19.67,19.67,0,0,0-4,12.39,8.38,8.38,0,0,0,3.36,6.94,12.91,12.91,0,0,0,8.26,2.64A24.19,24.19,0,0,0,874.51,152.71Z"/><path class="cls-2" d="M695.39,223.42h0l-.19-.72.9-.76a2.05,2.05,0,0,1,.25-1.44l-.22-.24,1-2.85L697,216.3l.38-1.18,0-.27-.34,0,1-2.51,0-.87-.18-.11,0-.26-.42.5-2.11,2.24-.92,1.23-1.54,1.37-.76,1.29-1.44.82a8.57,8.57,0,0,1-2.81,3.18l-1,1.44-1,1,.44-.05a2.35,2.35,0,0,0,1.29.26l.2,0a1.6,1.6,0,0,1,.68-.27,1,1,0,0,1,.66.19l.17,0a5.84,5.84,0,0,1,1-.17,6.52,6.52,0,0,1,1.15-.06l1.85-.47.76.73a4.48,4.48,0,0,0,1.42-1.09s0,.06,0,.06l0,.07m3.81,17.63a5.43,5.43,0,0,1-2.71,2.63l-1.32-1.06-.53,0-.34-.63-.79.09,0-1.34-.34-.3.08-1.54-.3-1.24.25-.56-.18-.45.4-1.11-.28-.77.43-3.19-.11-.72.68-1.95-.12-1.12-.94-.1-1.53,1-.1-.33-1.09.79.09-.75a3.39,3.39,0,0,1-.77.16,3.22,3.22,0,0,1-.76,0l-.39.05-1.37.88-1-.09-.2,0-1.07.72-.48-.28a2.06,2.06,0,0,1-1.26-.13l-.25,0-1.65,1-.15-.71-.73-.26-.3.23c-1.31,1.44-2.26,2.45-2.84,3l-.91.37a36.31,36.31,0,0,1-4.19,4.39l-.23.09-2.79,2.91-.2,0L667,243.2l-2.53,1.68a4.84,4.84,0,0,1-.85.23,1.23,1.23,0,0,1-1.34-.79l1.36-1.82.47-1.06.35-.37.72-1.41,1.65-.45.55-.39a4.35,4.35,0,0,0,1.34-1.55,3.65,3.65,0,0,0,1.7-1.52,10.06,10.06,0,0,0,3.09-3.27l1-.51,2.39-2.74a5.35,5.35,0,0,1,.27-1.89l1.56-1.31.59-1.33h1.83l.64-.41a5.28,5.28,0,0,1,1.73-1.78l.69-1.35,1.37-.88a5.44,5.44,0,0,1,.7-.41l.18-.43a5.28,5.28,0,0,1,.7-1.14,7.94,7.94,0,0,0,2.35-3l.79-.29.52-.66.38-.1,2-2.63.19.11.51-.32.84-1.9.34,0a13.78,13.78,0,0,0,2.32-2.59l.37-.31.21-1c1.39-1.44,2.34-2.21,2.86-2.31l1.43-1.22.4,1.43.91.9-.66,1.81a3.53,3.53,0,0,1,0,.8,4.82,4.82,0,0,1-.29,2.36l-.49,1.73.06,1.46-.57,2.27-.4,1.11.2,1.45-.41.51.17.45-.62,1.4-.36,1c-.41.72-.58,1-.49.79l.09.33s0,.18,0,.52a4.16,4.16,0,0,0,1-.31l1.49-.16a1.2,1.2,0,0,0,.52.08,1.57,1.57,0,0,0,.72-.35,2.37,2.37,0,0,1,1.19-.46,1.69,1.69,0,0,1,1.17.54h1.41a5,5,0,0,1-.28.82,3.78,3.78,0,0,1-1.44,1.7l-.58-.27-2,1.55-1-.09-.66.41-1.14.26.12-.29-1.46.56-.24.43-.61,1.61.08,1.19-.46,1.25.14,2.12-.44.78.17.59,0,2.47.31,1.1-.06.54.61.53-.15,1.09Z"/><path class="cls-2" d="M725.76,222.5l-.16-.08a.94.94,0,0,1-.37-.58c0-.26-.07-.53-.1-.79a.78.78,0,0,1-.57-.58h-.31l-.67-.48-1.05-.23-1.19.14-1.29.26-.22-.26-.47.13-.09.18-.5.09a7.67,7.67,0,0,1-2,1.23l-.78.76-.54.26-.71.71-.88,1.46-.63.35-.41.8-.66.31-.43,1.06-1.59,1.46-.5.7-.68,1.16.06.48-.6.49.15.31-.91.79.06.4-.07.53.22.18h.36l.63-.35.38,0,1-.31.23-.26,1.11-.31.24-.27.76-.31.05-.09,1.84-1.15.72-.22.59-.57.71-.09,1.2-.8-.11-.09.51-.31,1-.93.66-.39.74-1,.92-.23.91-.7.27-.14.4-.79.91-.31Zm2.13,10.8-1.53,1.85-.68.54a4,4,0,0,1-2.1,1.06,1.71,1.71,0,0,1-1.24-.75l-.37-1.29-.05-.79.19-.8.21-1.32,1-2,.69-1.68.62-.93,0-.27-2,1.55h-.15l-.11.13-1.47,1.2-2.08,1.33-1.7,1.28-1.58.93a13.05,13.05,0,0,1-1.69,1.24l-1.32.62-1,.7-1.27.31-.7.49-1.2.17-1.16.49-.13,0-.21.22-1.48-.18-1.3-1.15a2.17,2.17,0,0,1-.13-1.63,1.71,1.71,0,0,0,.26-.14,1.63,1.63,0,0,1,.24-.17,1.69,1.69,0,0,0-.44-.23v-.88l.4-.31,0-.53.56-.62.29-.8,1-1.28.7-1.37.54-.4L708,227l.63-.57.44-.66.15-.09.28-.58.86-.71.41-.62.53-.44.28-.26.74-1.06.82-.93.36-.23.39-.57,1-.62.92-.93,1.51-.49,1.19-.74,2.62-.58a6.75,6.75,0,0,0,.87,0l.27.17.28-.35,1.21-.09.34.13.37,0,.19.22,1,0,.26-.13.16.18.49,0-.16.31.14.14.92.17.39.75.68.67,0,.44,0,0,.51-.62.59-.57.41-1,1.13-1.85.06-.72.67-.52,0-.49.78-1.24.38-1.06-.3-.31,1.07-.71.23-.49a2.27,2.27,0,0,0,.17-1.63h.3l.92-.71a8.78,8.78,0,0,1,1.42-.13,1.62,1.62,0,0,1,1,.26c.46.15.38.86-.26,2.13h-.25l-.14.18.28.35-.66.71,0,.83-.38.27a1.46,1.46,0,0,1-.16.62,3.11,3.11,0,0,1-.48.66l.12.27a1.31,1.31,0,0,1-.19.57,2.93,2.93,0,0,1-.7.89c-1.09,1.85-1.83,3-2.18,3.45a1.59,1.59,0,0,1-.14.4,4.91,4.91,0,0,1-.54.75l-.13.26a7.53,7.53,0,0,1-.8,1.2l-.82,1.32-.43.36-.05.4-.58.66,0,.57L728.33,226l-.26,1-.44.58-.34.88a1.41,1.41,0,0,1-.13.58,1.42,1.42,0,0,1-.24.35l.18.27-.85.88-.06.93-.29.26,0,.27-.28.27.08.13.28.35.82.09Z"/><path class="cls-2" d="M753.17,220.84l-.16-.09a1,1,0,0,1-.37-.57c0-.27-.07-.53-.1-.8a.78.78,0,0,1-.57-.57h-.31l-.67-.49-1-.22-1.19.13-1.28.27-.23-.27-.47.13-.09.18-.5.09a8,8,0,0,1-2,1.24l-.78.75-.54.26-.71.71-.88,1.46-.63.36-.4.79-.66.31-.43,1.06L737.52,227l-.51.71-.68,1.15.06.49-.59.48.15.32L735,231l.05.4-.06.53.21.17h.36l.63-.35.38,0,1-.31.23-.26,1.12-.31.24-.26.76-.31,0-.09,1.84-1.15.72-.22.59-.58.71-.09,1.2-.8-.1-.08.5-.31,1-.93.65-.4.74-1,.92-.22.91-.71.27-.13.4-.8.92-.31Zm2.13,10.79-1.53,1.86-.67.53a4,4,0,0,1-2.11,1.06,1.72,1.72,0,0,1-1.24-.75l-.37-1.28,0-.8.19-.8.21-1.32,1-1.95.68-1.68.62-.93,0-.26-2,1.55h-.15l-.11.13-1.46,1.19-2.08,1.33-1.71,1.28-1.58.93a12.1,12.1,0,0,1-1.68,1.24l-1.33.62-1,.71-1.27.31-.7.48-1.2.18-1.16.49-.12-.05-.22.22-1.47-.17-1.3-1.15a2.2,2.2,0,0,1-.14-1.64,1,1,0,0,0,.26-.14c.12-.08.19-.14.25-.17a1.67,1.67,0,0,0-.45-.22v-.88l.4-.31,0-.54.56-.62.3-.79,1-1.29.69-1.37.55-.39.47-.93.63-.58.44-.66.15-.09.29-.57.86-.71.41-.62.52-.44.29-.27.73-1.06.82-.93.36-.22.39-.58,1-.61.92-.93,1.52-.49,1.18-.75,2.62-.57a6.36,6.36,0,0,0,.87,0l.28.18.27-.36,1.21-.08.34.13.38-.05.19.23.94,0,.27-.14.16.18.48.05-.15.31.14.13.92.18.38.75.68.66,0,.44,0,0,.51-.62.59-.58.41-1,1.14-1.86,0-.71.67-.53,0-.49.78-1.23.37-1.07-.3-.31,1.07-.7.24-.49a2.3,2.3,0,0,0,.16-1.64H762l.91-.71a10.21,10.21,0,0,1,1.43-.13,1.61,1.61,0,0,1,1,.27c.47.14.38.85-.25,2.12h-.26l-.14.18.28.35-.66.71,0,.84-.39.27a1.61,1.61,0,0,1-.15.62,3.48,3.48,0,0,1-.49.66l.12.26a1.38,1.38,0,0,1-.19.58,3,3,0,0,1-.69.88,37.38,37.38,0,0,1-2.19,3.45,1.47,1.47,0,0,1-.14.4,3.59,3.59,0,0,1-.53.75l-.14.27a6.87,6.87,0,0,1-.8,1.19l-.82,1.33-.43.35,0,.4-.58.66,0,.58-1.09,1.37-.25,1-.45.57-.34.89a1.22,1.22,0,0,1-.13.57,1.51,1.51,0,0,1-.23.35l.17.27-.85.89-.06.92-.28.27,0,.27-.29.26.09.13.27.36.82.08Z"/><path class="cls-2" d="M806.91,228a3.37,3.37,0,0,1-1.13.93l-.93.75-.65.88-.52.13-.23.27a3.34,3.34,0,0,0-1.72,1.11,6.55,6.55,0,0,1-1.66.88,3.18,3.18,0,0,1-.61.31l-.45.39-.5.1-1.62.61-1.82.18-.41-.09-.82.13-.15-.31a1.51,1.51,0,0,1-.7-.62c-.36-.08-.53-.36-.5-.83a1.65,1.65,0,0,1-.14-1.42l.06-.13-.08-.53-.06-.09.1-.8,0-.84.61-1-.22-.58,1.77-6.34a8.63,8.63,0,0,1,.49-1.28v-.22l-.1-.31-.72.53-2.66,1.68-1.13.93-.66.62-.91.7-.58.36-.06.22-1.4,1.37-.62.44-.56.09-.65.4a2.21,2.21,0,0,1-1.54,1.15l-.14.09a4.48,4.48,0,0,1-1.62,1.19l-.76.62c-1,.59-1.72,1-2,1.11a3.38,3.38,0,0,1-.94.75,4.38,4.38,0,0,1-.53.35,3,3,0,0,1-1.95,1.06l-.62.14a1.12,1.12,0,0,1-1.16-1l-.21-1.11.79-1.06.19-.57.14-.09.34-.58,0-1.06.67-.53.08-.58.67-.61.61-1-.11-.18.71-.62v-.31l.31-.7.86-1.33a3.94,3.94,0,0,1,.19-.57.55.55,0,0,1,.14-.18c.05-.09.07-.15.09-.18l-.08-.35.87-1.42.19-.48.5-.71.4-1.2,1.58-1.33a3.77,3.77,0,0,1,1.86.62c.29.24.27.68-.06,1.33l-.2.4.1.53-.62.93-.69,1.77-.78.84-.31.93-.38.75-.64.49-.1.79-.54.49-.3.49.05.48-.86.93-.35.4-.2.4,0,.44,1.25-.75a1.68,1.68,0,0,1,.95-.89,1.73,1.73,0,0,1,.73-.66l-.08-.13.92-.53.24-.18.2-.4,1.08-.53.42-.44.59-.27,3-1.94-2.49,1.63,0,.09.25-.31,1-.66.84-.75.21-.44.87-.23.39-.57.3-.18.16-.22.15-.31,1-.62.11-.22a.82.82,0,0,1,0-.18,1.64,1.64,0,0,1,1.45-.88,3.42,3.42,0,0,1,1.83-.93l.51-.4.15-.08a4.25,4.25,0,0,1,1.76-.8l.7-.49h1.22l.29.62.42.26,0,.14.32.09-.36.93.64.44-.85,1,0,1.06-.62,1.24-.44,1.68-1.32,4.13v.93l-.27,1.15a1,1,0,0,1,.07.75l.8.22-.44.88.26.49-.06.13.18,0,.06.27.32-.23c-.06,0,0,0,.24.05a3,3,0,0,0,1.6-.89l.67-.13L800,230a2,2,0,0,1,.87-.53l.34,0,.29-.17.16-.23.23-.17A3.06,3.06,0,0,0,803,228l.82-.53.3-.4.71-.71L806,226l1.17.4-.19,1.28a.1.1,0,0,0,0,.09l-.07.14"/><path class="cls-2" d="M828.77,226.92l-1.22,1.64-.17.53-.16.13a1.82,1.82,0,0,1-.2.8,2,2,0,0,1-.42.53l0,.09q-.27.53-2.63,4.34l-1.61,2.27-.71,1.68-3.19,3.47-.89.86-.63.42-.22.14-.29.26h-.2l-.05.22-.24.27a2.08,2.08,0,0,1-.56.62l-.61.7a5.38,5.38,0,0,1-1,.89,24.35,24.35,0,0,1-2,1.55l-1.15.57-1.31.71-.92.31-.81.4-.45.08a8.49,8.49,0,0,1-2.56.58l-.29,0-.54.18-.05.09a8.47,8.47,0,0,1-1.55.18h-2l-1.11-.22-1.15.17-.3-.4-1.46-.13-.61-.79-.58-.36a1.7,1.7,0,0,1-1.16-2.34l.19-.18.21-.71a3.5,3.5,0,0,1,1.56-.88,2.31,2.31,0,0,1,.92-.22l.84.13a18.37,18.37,0,0,0,1.89.18l-.44.66.43.36-.26.53-.63.44,2,.62,1.27-.22-.15.31.39-.09h.11l.61.09,0,.17.62-.22a8.41,8.41,0,0,1,2.56-.26,6,6,0,0,0,.68-.36l.24.05h.3a1.59,1.59,0,0,0,.87-.53c0,.09,0,.13.13.13a.83.83,0,0,0,.31-.09.75.75,0,0,1,.25-.09h.09l2.24-1.24,1.28-1,.33-.58.87-.62,3.28-3,2.87-3.48,1.61-2.87,1-1.11a4.36,4.36,0,0,1,.35-.79,9.81,9.81,0,0,1,1.27-1.95l.15-.71,1.08-2.16,0-.75.63-1.24.05-.93.76-1.42.07-.22-.41.09-.63.66-1,.58-1.56,1.28-1.71.8-2.06,1.28a25.71,25.71,0,0,1-3.81,1.95l-.77.53-1,.4-.86.31-1,.57-1,.36a3.9,3.9,0,0,1-1.41.48,6.81,6.81,0,0,1-2.86.66H806a4.72,4.72,0,0,1-.73.05,2.73,2.73,0,0,1-.59-.05l-.89,0-.76-1.1-.4-1.11,0-.93.54-1.77.84-1.28,1.26-1.51.14-.48,1.15-1.37.85-.8a6.35,6.35,0,0,0,.89-1.37l2-1.81a4,4,0,0,1,1.14-.76l.88-.75.9-.57a4.28,4.28,0,0,1,1.32-1,2.12,2.12,0,0,0,.89-.66,4.94,4.94,0,0,1,2.36-.89l-.27,0,.29-.08c.18-.15.56-.45,1.15-.89l.57.09.59-.27a4.31,4.31,0,0,1,2-.62h.36l1.53-.44.65.23h.91l.43.26a.64.64,0,0,1,.61.4l.39.62.16.09v.17l.15.62-.06.23-.51.7-.14.49-1.1.88-1.56.18-.22-1.06-.6-.23-.2-.3h-.51c-.2.06-.63.2-1.28.44l-.23.35H819.7a2.91,2.91,0,0,1-1.48.71,8.09,8.09,0,0,1-.76.31l-.82.84-.38,0-.26.4h-.7l-1.12.93-.71.31-.52.62-1.22.93-.55.89-.87.52-1.51,1.91-.58.35-.19.49-1.45,1.68-.12.53-.31.53a1.25,1.25,0,0,1-.12.93l.32.09v.26c.58,0,.92.06,1,.18a11.6,11.6,0,0,1,2.81-.66,3.78,3.78,0,0,1,1.3-.89c.47-.21,1.42-.58,2.84-1.1l.13,0a1.63,1.63,0,0,1,.63-.66c.6-.18,1-.3,1.09-.36a1.65,1.65,0,0,0,.74-.57l.9-.18.71-.4,2-1.5.26.18a20.9,20.9,0,0,1,1.72-1.2l1.83-1.24.39-.57a14.81,14.81,0,0,0,2.84-2.84l.21-.92-.1-.62.64-.66-.16-.49.21-.62.07-.44.9-.8a4.86,4.86,0,0,1,1.34-.35,1.79,1.79,0,0,1,1,.39l.08.58.43.44-.38,1c0,.26-.13.66-.25,1.19a1.67,1.67,0,0,1-.21.93l-.15.31,0,.26.21.71-.56.8.13.35a1.56,1.56,0,0,1-.18.66,2.84,2.84,0,0,1-.3.49l.39.13-.9,1.11-.22.84a1.62,1.62,0,0,1-.15.8,3.92,3.92,0,0,1-.7.88l.19.22Z"/><path class="cls-2" d="M879.87,235.51a2.57,2.57,0,0,1-2.39,1.24,3.18,3.18,0,0,1-1.34.35l-2,.22h-.91l-.93.44-1.19.05-.61.31-2.53.08-1.7.58H866a2.36,2.36,0,0,0-.53,0l-.36.23a3.46,3.46,0,0,1-1.08.21,1.85,1.85,0,0,1-.72-.17l-1.22.22-1.19.05-1.37.3h-3l-1.5-.35-1.41.09-.28-.35-.94-.05A4.6,4.6,0,0,1,850.9,236c.12-.71.23-1.42.31-2.13l0-.83,1.26-1.51.6-1.81.59-.27.94-1.68,8.48-13.14.91-1.33,1.38-2.74.81-.71,2.85-5,.7-1.59.58-.36-.3-.31,1.4-1.59.18,0,0-.71,1.31-.4a5.71,5.71,0,0,1,1.6-.66l1.23.17.1,2.13-.95.48a.94.94,0,0,1-.11.71l-1.22,1.33-3.32,6.18-1.25,1.37-.79,1.28-9.77,14.92-.18.35a3.26,3.26,0,0,1-.57.84l-.41.62-.5.8-.59,1.37-.33.35-.56,2,0,1.37-.07.13,1.38,1,2.63.21.83,0,2.06-.26h1.36l.47-.22,2.82-.09.77-.31,2,0,1.05-.26,3.35-.13,1.53-.31c.32,0,.71,0,1.19,0l.68-.35a4.82,4.82,0,0,1,1.33-.23c1.07,0,1.44.36,1.08,1.07"/><path class="cls-2" d="M918.44,206.66a4.78,4.78,0,0,1-2.1,1.77l-.29-.22-1,.39-.15-1.72a2.11,2.11,0,0,0,.15-1.11l-.37.14-.66-.4-.28,0-.84.36-.93-.27-.42.14a2.26,2.26,0,0,1-1.13.44,1.06,1.06,0,0,1-.34,0l-.21.45-2.14,1.73c-.18.29-.57.83-1.17,1.63l-.58.26-.46.49-.45.4-.19.88-1,.8-.53.67-.37.35-.27.61-1.51,1.6-.27.75c-.09.12-.51.53-1.22,1.24l-.14.17a5.38,5.38,0,0,1,1-.21l.27,0,.53-.13h.15l1.68.09.19-.09.76-.09a2.41,2.41,0,0,1,1,.22,5.75,5.75,0,0,1,1.13-.13,1.32,1.32,0,0,1,.64.13h.45l.59.13c1.2,0,1.6.46,1.18,1.28a4.17,4.17,0,0,1-.57.85l-2.56.57-1.23-.18c-.42.09-1.09.19-2,.31l-.14-.22a2.08,2.08,0,0,1-1.12.31h-.56l-1.7.58-.55-.31h-.26a3.37,3.37,0,0,1-1.29.57l-.09.27-.51.62-.08.75-1.23,1.14-.73,1.78-.56.62-.17.61-1,1-.12.53s0,.1-.05.22l-.69,1a14.22,14.22,0,0,0-1.1,1.77l-.2.4s.12.22.28.57l-.74.76-.08.88-.61.71-.53,2.17-1,2.39.37.88-1,1a2.53,2.53,0,0,1-.15,1.5l-.06.14a.64.64,0,0,0-.06.22l-.12.22a3.32,3.32,0,0,1-3.11,1.77l0-.71-.46-.31.31-.79.23-2.48.24-.49c.14-.53.22-.84.26-.92a1.18,1.18,0,0,1,.2-.31l.23-.76.53-.75.09-.48.49-1,.89-2.78.14-.09.15-.49.42-.62-.08-.57.55-.49,1.16-2.3.39-.26.79-1.6.32-.35.54-1.37.47-.54c.32-.49,1.09-1.61,2.3-3.35h-.2l-.58-.18h-.76l-1.5.18-.77-.18-1.6.26-.46-.08a4.14,4.14,0,0,1-.64,0c-1.18-.59-1.75-1-1.69-1.37l.13-.76c1-1.14,1.91-1.72,2.68-1.72l1.57.31,2.88.09,1.56-.26,1.2,0,.43,0,.43-.57.75-1.28.52-.54.29-.88a2,2,0,0,1,.83-.84l.19-.48.82-.54.92-1.32.31-.23.14-.57a3.51,3.51,0,0,0,1.11-1l.09-.26c-.12.23.48-.44,1.77-2l.47-.22.54-1v.22l.07-.13a2.28,2.28,0,0,1,1.26-1.11l.5-.4,1.26-1.28h.09a.92.92,0,0,0,.85-.57l.09-.18,1.64-.44h.4a6.25,6.25,0,0,1,1.45-.18h.36l.3-.09,1.22-.22,1.18.26a2.67,2.67,0,0,0,.35.14,3.35,3.35,0,0,1,.79-.18c.47,0,.75.31.85.93l.48.44.07.89.43.66-.42,1.24Z"/><path class="cls-2" d="M926.2,212.52a2,2,0,0,0,.12-.54l-.23,0-.13,0h-.2a.68.68,0,0,1-.23.05.36.36,0,0,1-.13-.05h-.14l-.67.31-.48.05-.3.09-1.34,1-.74.35L920.3,215l-.58.27a5,5,0,0,1-1.36,1.28l-.35.31a3.6,3.6,0,0,1,1.42-.31l.42-.13.35-.4.69,0,.67-.52h.3l.47.17.58-.66h.36l.24-.49.73-.13.22-.13.29-.4,1.08-.84a2.28,2.28,0,0,0,.37-.53m-1.37,12.73a4.38,4.38,0,0,1-1.57,1.33,5.81,5.81,0,0,1-1.35,1.15l-.32,0-1,.85-1,.13-1.23.53-.91.79L917,230a6.44,6.44,0,0,1-1,.26l-.51.4a1.43,1.43,0,0,0-.42,0,3,3,0,0,0-1.67.79l-.45-.53a3.34,3.34,0,0,1-.63,0,2.51,2.51,0,0,1-1-.17h-.86l-.3-.23c-1.19-.17-1.78-.6-1.78-1.27l.06-.14-.47-.27.07-.75-.42-.35.33-.66.36-1.95.9-1.59.56-.71.47-.93.61-.71.09-.31.62-.52-.14.08a3.31,3.31,0,0,1,.67-.84l.12-.22.38-1.06A3.27,3.27,0,0,1,914,217a.78.78,0,0,0,.17-.26,2.18,2.18,0,0,0,.15-.71,5.62,5.62,0,0,1,.25-.8,4.42,4.42,0,0,1,.86-1.1c.09.35.4.53.9.53h.16a2.65,2.65,0,0,1,.64-.4,11.82,11.82,0,0,1,2-1.86l.29-.17a8.44,8.44,0,0,1,.82-1h.41l.21-.22.44-.09a5.24,5.24,0,0,1,.51-.4,14.43,14.43,0,0,1,1.39-.57,4.51,4.51,0,0,1,.9-.58,5,5,0,0,1,.6-.17l.33-.27a11.81,11.81,0,0,1,1.92-.4,1.15,1.15,0,0,1,.67.18l.28,0,.26.18a4.72,4.72,0,0,0,.89.67l.57.57-.09.18c.51.52.52,1.28,0,2.25l-.37.44-.58,1.46-.59.27-1.08,1.15-1.43.93-.4.71c-1.42.67-2.69,1.22-3.81,1.63a2.68,2.68,0,0,1-1.73.62h-.15l-1.22.53h-.81l-1.44.45-.71-.41h-.11c-.18.24-.43.6-.72,1.07l-.55.26-.31.53-.68.76c-.26.7-.44,1.16-.54,1.37l-.27.13a8.23,8.23,0,0,1-.47.84.41.41,0,0,1-.12.13l-.06.14a.4.4,0,0,0,.12.57c-.08.35,0,.57.17.66l.22.27,1,.26-.07.14.36.09,1.68.08,1.08-.13.66-.31L917,227l.85-.66.27-.05,1.44-.35a3.15,3.15,0,0,1,.93-.53l.26-.22a2.33,2.33,0,0,0,1.63-.93,4.08,4.08,0,0,1,2.14-.62h.2a1.82,1.82,0,0,1,.16,1.59"/><path class="cls-2" d="M889.29,205.75a2.48,2.48,0,0,1-1.3,1l0,.09c-1,.68-3.41.18-3.41.18l-1.23-.62-.12-.79c.43-.59.15-.7.73-1l.59-.57.72-.65,1.8.19c2,.46,2.75,1.19,2.26,2.16"/><path class="cls-2" d="M876.83,228.81l-.27,0-.56.4h-1l-1.08.53-1.4-1.32-.1-1.73,1-2.16.06-.54,2.56-3.89.29-.18a7.71,7.71,0,0,1,.5-1.28,13,13,0,0,1,1.12-1.63l.76-1a1,1,0,0,0-.12-.57l.74-.84.61-1,.16-.13a2.37,2.37,0,0,1,.19-.88l.21-.22a2,2,0,0,0,.18-.27,2.34,2.34,0,0,1,.23-.75,1.74,1.74,0,0,1,1.85-1l.59,0a4.32,4.32,0,0,1,.89-.27c.68,0,1,.33.88,1l-.09.18a2.82,2.82,0,0,1-.31,1,1.93,1.93,0,0,1-.39.58l-1.46,2.21.05.62a3.82,3.82,0,0,1-1.32,1.41l-.06.53-1.5,1.68A18.37,18.37,0,0,1,879,221l-.55,1.11-.62.62-.17.44-.61,1-.3.8.49.53.66-.09s1.85.54-1,3.36"/><path class="cls-2" d="M778.61,209.69a2.49,2.49,0,0,1-1.3,1l0,.08c-1,.68-3.41.18-3.41.18l-1.23-.62-.12-.79c.44-.59.15-.7.73-1l.59-.56.72-.65,1.8.18c2,.47,2.75,1.19,2.26,2.16"/><path class="cls-2" d="M766.15,232.75l-.28,0-.55.4h-1l-1.08.53-1.41-1.32-.09-1.73,1-2.16.06-.54,2.57-3.89.28-.18a7.38,7.38,0,0,1,.5-1.28,12,12,0,0,1,1.12-1.63l.76-1a1,1,0,0,0-.12-.58l.73-.84.61-1,.17-.13a2.19,2.19,0,0,1,.19-.88,2.28,2.28,0,0,0,.21-.22A1.35,1.35,0,0,0,770,216a2.42,2.42,0,0,1,.23-.75,1.73,1.73,0,0,1,1.86-1l.58,0a4.32,4.32,0,0,1,.89-.27c.68,0,1,.33.88,1l-.09.17a3,3,0,0,1-.31,1,2.14,2.14,0,0,1-.38.58L772.21,219l0,.62a3.77,3.77,0,0,1-1.33,1.41l0,.53-1.5,1.68a18.08,18.08,0,0,1-1.11,1.68l-.55,1.11-.61.62-.17.45-.61,1-.3.8.49.53.66-.09s1.85.54-1,3.36"/></g></g></svg>