<svg xmlns="http://www.w3.org/2000/svg" viewBox="0 0 224.17 135.89"><defs><style>.cls-1,.cls-2{fill:#8b8b8a;}.cls-1,.cls-3{fill-rule:evenodd;}.cls-3,.cls-4{fill:#56a23b;}</style></defs><title>altalena-logo</title><g id="Capa_2" data-name="Capa 2"><g id="Capa_1-2" data-name="Capa 1"><path class="cls-1" d="M43.46,103.28A6.23,6.23,0,0,1,40.19,102q-3.25-2.52-3.25-8.8V70.61h6.52Z"/><path class="cls-1" d="M55.46,83.18h8.69v2.51H55.46v7.54c0,4.66,1.44,7.17,4.34,7.54h8.69v2.51H59.8A15.07,15.07,0,0,1,54.37,102q-5.43-2.52-5.43-8.8V70.61h6.52Z"/><path class="cls-1" d="M112.06,103.28a6.23,6.23,0,0,1-3.27-1.25q-3.26-2.52-3.25-8.8V70.61h6.52Z"/><path class="cls-1" d="M148.39,93.23H123.25a5.44,5.44,0,0,1,4.6-2.51H141.7c-.52-3.12-1.92-4.79-4.17-5H126.66a4,4,0,0,0-1.78.6,6.09,6.09,0,0,0-2.35,4.43,26.67,26.67,0,0,0-.25,2.9c.11,4.41,1.56,6.79,4.38,7.15h15.09v2.51H126.66a15.07,15.07,0,0,1-5.43-1.25q-5.43-2.52-5.43-8.8t5.43-8.8a15.07,15.07,0,0,1,5.43-1.25h10.87A15.07,15.07,0,0,1,143,84.43q5.43,2.52,5.43,8.8"/><path class="cls-1" d="M158,85.69v17.6h-6.52V83.18h16.95a16.08,16.08,0,0,1,5.65,1.25,8.9,8.9,0,0,1,5.65,8.8v10.06h-6.52V93.23q0-7-4.78-7.54Z"/><path class="cls-2" d="M32.59,103.28h-6.5l0-5.22V93.23c0-4.66-1.44-7.17-4.34-7.54H10.86q-4.33.56-4.34,7.54t4.34,7.54H24.61a5.75,5.75,0,0,1-4.44,2.51H10.86A15.07,15.07,0,0,1,5.43,102Q0,99.51,0,93.23t5.43-8.8a15.07,15.07,0,0,1,5.43-1.25H21.73a15.07,15.07,0,0,1,5.43,1.25q5.43,2.52,5.43,8.8Z"/><path class="cls-2" d="M101.26,103.28h-6.5l0-5.22V93.23q0-7-4.34-7.54H79.53q-4.34.56-4.34,7.54t4.34,7.54H93.28a5.75,5.75,0,0,1-4.44,2.51H79.53A15.07,15.07,0,0,1,74.1,102q-5.43-2.52-5.43-8.8t5.43-8.8a15.07,15.07,0,0,1,5.43-1.25H90.4a15.07,15.07,0,0,1,5.43,1.25q5.43,2.52,5.43,8.8Z"/><path class="cls-2" d="M215.71,103.28H209.2v-10q0-7-4.35-7.54H194q-4.35.56-4.35,7.54t4.35,7.54h13.75a5.75,5.75,0,0,1-4.45,2.51H194a15,15,0,0,1-5.43-1.25q-5.43-2.52-5.44-8.8t5.44-8.8A15,15,0,0,1,194,83.18h10.86a15.08,15.08,0,0,1,5.44,1.25q5.43,2.52,5.43,8.8Z"/><path class="cls-3" d="M107.19,122h0l-.1-.36.45-.38a1,1,0,0,1,.13-.71l-.11-.12.51-1.43,0-.56.18-.59,0-.13-.17,0,.48-1.25,0-.44-.09,0v-.13l-.21.25-1.06,1.12-.46.61-.76.69-.38.64-.72.41a4.28,4.28,0,0,1-1.4,1.58l-.48.72-.52.49.22,0a1.33,1.33,0,0,0,.65.13l.09,0a.81.81,0,0,1,.34-.13.45.45,0,0,1,.33.1l.09,0a2.75,2.75,0,0,1,.48-.08,3.22,3.22,0,0,1,.57,0l.93-.24.37.36a2.12,2.12,0,0,0,.71-.54s0,0,0,0,0,0,0,0m1.9,8.79a2.66,2.66,0,0,1-1.35,1.31l-.66-.53-.26,0-.17-.32-.39.05v-.67l-.17-.15,0-.77-.15-.62.12-.28-.08-.22.19-.55-.13-.39.21-1.59,0-.36.33-1,0-.56-.47-.05-.77.52-.05-.16-.54.39,0-.37a2.18,2.18,0,0,1-.38.07,1.7,1.7,0,0,1-.38,0l-.19,0-.69.44-.52,0h-.09l-.54.36-.24-.14a1,1,0,0,1-.63-.07H101l-.83.49-.07-.35-.37-.13-.14.11c-.66.72-1.13,1.23-1.42,1.52l-.46.19a16.85,16.85,0,0,1-2.09,2.19l-.11,0-1.39,1.45H94l-1,1.14-1.27.84a2.19,2.19,0,0,1-.42.11.59.59,0,0,1-.66-.39l.67-.91.24-.53.17-.18.36-.7.82-.23.28-.2a2.12,2.12,0,0,0,.67-.77,1.89,1.89,0,0,0,.84-.75,5.11,5.11,0,0,0,1.55-1.64l.51-.25L98,124.85a2.82,2.82,0,0,1,.14-.95l.78-.65.29-.67h.91l.32-.2a2.85,2.85,0,0,1,.87-.89l.34-.67.69-.44a3.15,3.15,0,0,1,.34-.21l.1-.21a2.33,2.33,0,0,1,.34-.57,4,4,0,0,0,1.18-1.49l.39-.14.26-.33.19-.06,1-1.31.09.06.26-.16.42-.95h.17a7.46,7.46,0,0,0,1.16-1.3l.18-.15.11-.51a4.08,4.08,0,0,1,1.42-1.15l.71-.61.21.71.45.45-.33.9a1.33,1.33,0,0,1,0,.4,2.36,2.36,0,0,1-.14,1.18l-.24.86,0,.73-.29,1.13-.2.55.1.73-.2.25.08.23-.31.7-.18.51c-.2.36-.28.49-.24.4l0,.16,0,.26a2.46,2.46,0,0,0,.51-.15l.74-.08a.68.68,0,0,0,.26,0,.75.75,0,0,0,.36-.18,1.24,1.24,0,0,1,.59-.23.86.86,0,0,1,.58.27h.71a3.75,3.75,0,0,1-.14.41,1.83,1.83,0,0,1-.72.84l-.29-.13-1,.77-.52,0-.32.2-.57.13.06-.14-.73.28-.12.21-.31.8,0,.6-.23.62.07,1.06-.22.39.08.29,0,1.23.15.55,0,.27.3.27-.07.54Z"/><path class="cls-3" d="M122.34,121.49l-.08,0a.46.46,0,0,1-.18-.29c0-.13,0-.27,0-.4a.39.39,0,0,1-.29-.29h-.15l-.34-.24-.52-.11-.59.07-.65.13-.11-.13-.23.06-.05.09-.25,0a3.93,3.93,0,0,1-1,.61l-.39.38-.27.13-.35.35-.44.73-.32.18-.2.4-.33.15-.22.53-.79.73-.25.35-.34.57,0,.25-.3.24.08.15-.45.4,0,.2,0,.27.11.08h.18l.31-.17.19,0,.51-.15.11-.14.56-.15.12-.14.38-.15,0,0,.92-.58.36-.11.29-.28.35,0,.61-.4-.06,0,.26-.15.48-.47.33-.19.37-.49.46-.11.45-.35.13-.07.21-.4.45-.15Zm1.06,5.38-.76.93-.34.26a1.92,1.92,0,0,1-1,.53.85.85,0,0,1-.62-.37l-.18-.64,0-.4.1-.39.11-.67.48-1,.34-.84.31-.46,0-.13-1,.77h-.08l-.05.07-.73.59-1,.66-.85.64-.79.47a6,6,0,0,1-.84.61l-.66.31-.48.36-.63.15-.35.24-.6.09-.57.24-.07,0-.1.11-.74-.09-.65-.57a1.1,1.1,0,0,1-.07-.82.38.38,0,0,0,.13-.06l.12-.09a1.24,1.24,0,0,0-.22-.11v-.44l.2-.16v-.26l.28-.31.14-.4.5-.64.35-.68.27-.2.24-.46.31-.29.22-.33.08,0,.14-.29.43-.35.2-.31.26-.22.14-.14.37-.52.41-.47.18-.11.19-.28.49-.31.46-.47.75-.24.6-.37,1.3-.29.44,0,.13.08.14-.17.6,0,.17.07.19,0,.09.11.48,0,.13-.07.08.09.24,0-.08.16.07.07.46.08.19.38.34.33,0,.22v0l.26-.31.29-.28.21-.51L125,118l0-.35.33-.27,0-.24.39-.62L126,116l-.15-.16.53-.35.12-.25a1.18,1.18,0,0,0,.08-.81h.15l.46-.36a5,5,0,0,1,.71-.06.76.76,0,0,1,.51.13c.24.07.2.43-.12,1.06h-.13l-.07.09.14.18-.33.35,0,.42-.19.13a.75.75,0,0,1-.08.31,1.5,1.5,0,0,1-.24.33l.06.13a.81.81,0,0,1-.09.29,1.48,1.48,0,0,1-.36.44,16.66,16.66,0,0,1-1.09,1.72.47.47,0,0,1-.07.2,1.57,1.57,0,0,1-.26.37l-.07.14a3.62,3.62,0,0,1-.4.59l-.41.66-.21.18,0,.2-.29.33,0,.29-.55.68-.13.51-.22.28-.16.45a.89.89,0,0,1-.07.28.93.93,0,0,1-.12.18l.09.13-.43.44,0,.47-.14.13v.13l-.14.13,0,.07.14.17.41,0Z"/><path class="cls-3" d="M136,120.66l-.08,0a.45.45,0,0,1-.18-.28c0-.14,0-.27-.05-.4a.41.41,0,0,1-.29-.29h-.15l-.34-.24-.52-.11-.59.07-.64.13-.11-.13-.24.06,0,.09-.25,0a3.83,3.83,0,0,1-1,.61l-.39.38-.27.13-.35.35-.44.73-.32.18-.2.4-.33.15L129,123l-.8.73-.25.35-.34.57,0,.25-.29.24.07.15-.45.4,0,.2,0,.26.11.09h.18l.31-.17.19,0,.51-.16.12-.13.55-.15.12-.14.38-.15,0,0,.92-.58.36-.11.3-.29.35,0,.6-.4,0,0,.25-.16.48-.46.33-.2.37-.48.46-.11.45-.35.14-.07.2-.4.45-.15Zm1.07,5.38-.77.93-.34.26a1.89,1.89,0,0,1-1.05.53.84.84,0,0,1-.61-.37l-.19-.64,0-.4.1-.4.11-.66.48-1,.34-.84.32-.46v-.13l-1,.77h-.07l-.06.06-.73.6-1,.66-.85.64-.79.47a5.89,5.89,0,0,1-.83.61l-.66.31-.48.36-.64.15-.35.24-.6.09-.57.24-.07,0-.1.11-.74-.09-.65-.57a1.15,1.15,0,0,1-.07-.82l.14-.06a.36.36,0,0,1,.12-.09.92.92,0,0,0-.23-.11V126l.2-.16v-.26l.28-.31.15-.4.5-.64.34-.68.27-.2.24-.46.31-.29.22-.33.08,0,.14-.28.43-.35.21-.31.26-.22.14-.14.36-.52.41-.47.18-.11.2-.29.48-.3.46-.47.76-.24.59-.38,1.3-.28.44,0,.13.08.14-.17.6,0,.18.07.18,0,.1.11.47,0,.13-.07.08.09.24,0-.07.16.06.06.47.09.19.38.33.33,0,.22,0,0,.25-.31.29-.28.21-.51.57-.93,0-.35.34-.27v-.24l.39-.62.19-.53-.15-.15.53-.35.12-.25a1.13,1.13,0,0,0,.08-.81h.15l.46-.36a5,5,0,0,1,.71-.06.81.81,0,0,1,.52.13c.23.07.19.43-.13,1.06h-.13l-.07.09.14.17-.33.36,0,.42-.19.13a.75.75,0,0,1-.08.31,1.5,1.5,0,0,1-.24.33l.06.13a.87.87,0,0,1-.09.29,1.62,1.62,0,0,1-.35.44c-.55.92-.91,1.5-1.09,1.72a1.22,1.22,0,0,1-.07.2,1.64,1.64,0,0,1-.27.37l-.06.14a4.41,4.41,0,0,1-.4.59l-.41.66-.22.18,0,.2-.29.33,0,.29-.54.68-.13.51-.22.28-.17.45a.55.55,0,0,1-.07.28,2.06,2.06,0,0,1-.11.18l.08.13-.42.44,0,.46-.14.14v.13l-.15.13.05.07.13.17.41,0Z"/><path class="cls-3" d="M162.82,124.2a1.66,1.66,0,0,1-.57.47l-.46.37-.33.44-.25.07-.12.13a1.71,1.71,0,0,0-.86.55,2.88,2.88,0,0,1-.82.44,1.85,1.85,0,0,1-.31.16l-.22.19-.25,0-.81.31-.91.09-.2,0-.41.07-.08-.16a.78.78,0,0,1-.35-.31c-.18,0-.26-.18-.25-.41a.84.84,0,0,1-.07-.71l0-.07-.05-.26,0,0,.05-.4,0-.42.31-.51-.11-.28.88-3.17a4.51,4.51,0,0,1,.25-.64V120l-.05-.15-.36.26-1.33.84-.56.47-.33.3-.45.36-.29.17,0,.11-.7.69-.31.22-.28,0-.32.2a1.07,1.07,0,0,1-.77.57l-.07,0a2.21,2.21,0,0,1-.81.59l-.38.31c-.51.3-.86.48-1,.55a1.74,1.74,0,0,1-.47.38c-.06.05-.15.1-.27.18a1.5,1.5,0,0,1-1,.52l-.31.07a.55.55,0,0,1-.58-.5l-.1-.56.39-.53.09-.28.08,0,.17-.28,0-.53.34-.27,0-.29.33-.3.31-.51-.06-.09.36-.31v-.15l.15-.36.43-.66a1.87,1.87,0,0,1,.1-.28.24.24,0,0,1,.06-.09l0-.09,0-.18.43-.7.1-.25.25-.35.2-.6.78-.66a1.9,1.9,0,0,1,.93.31q.22.18,0,.66l-.09.2,0,.27-.31.46-.34.88-.39.42-.15.47-.19.37-.32.24,0,.4-.27.24-.15.25,0,.24-.43.46-.18.2-.1.2v.22l.62-.37a.84.84,0,0,1,.48-.45.88.88,0,0,1,.36-.33l0-.06.46-.27.12-.09.1-.2.54-.26.21-.22.29-.13,1.48-1-1.25.81,0,0,.13-.16.49-.33.42-.37.11-.22.43-.11.2-.29.14-.09.08-.11.08-.16.5-.3.06-.11s0-.08,0-.09a.81.81,0,0,1,.72-.44,1.73,1.73,0,0,1,.92-.47l.25-.19.07,0a2.29,2.29,0,0,1,.88-.4l.35-.24h.61l.15.31.21.13v.07l.15,0-.18.47.32.22-.42.48V120l-.3.62-.22.84-.66,2.06V124l-.13.57a.51.51,0,0,1,0,.38l.4.11-.22.44.12.24,0,.07.09,0,0,.13.15-.11.12,0a1.48,1.48,0,0,0,.8-.44l.33-.06.14-.11a1,1,0,0,1,.43-.27l.17,0,.15-.08.08-.11.11-.09a1.6,1.6,0,0,0,.57-.47l.41-.26.15-.2.35-.35.56-.16.58.2-.1.64s0,0,0,0l0,.07"/><path class="cls-3" d="M173.72,123.69l-.61.82-.08.26-.08.07a1,1,0,0,1-.1.4,1.2,1.2,0,0,1-.21.26l0,0c-.08.17-.52.89-1.3,2.16l-.81,1.13-.35.84-1.59,1.73-.45.43-.31.21-.11.07-.14.13h-.11l0,.11-.12.13a1,1,0,0,1-.28.31l-.3.35a2.51,2.51,0,0,1-.48.44,9.78,9.78,0,0,1-1,.78l-.57.29L164,135l-.46.15-.41.2-.22,0a4,4,0,0,1-1.28.29l-.14,0-.27.09,0,0a4.33,4.33,0,0,1-.78.09h-1l-.55-.11-.58.09-.15-.2-.72-.07-.31-.39-.29-.18a.85.85,0,0,1-.58-1.17l.1-.09.1-.35a1.65,1.65,0,0,1,.78-.44,1.06,1.06,0,0,1,.46-.11l.42.06a7,7,0,0,0,.94.09l-.22.33.22.18-.14.27-.31.22,1,.3.63-.11-.07.16.19-.05h0l.31.05,0,.08.31-.1a4.12,4.12,0,0,1,1.27-.14,2.88,2.88,0,0,0,.35-.17l.11,0h.15c.11,0,.25-.09.44-.26,0,0,0,.06.07.06a.41.41,0,0,0,.15,0l.12,0h0l1.12-.62.63-.5.17-.29.43-.31,1.64-1.5,1.43-1.74.8-1.43.49-.56a2.06,2.06,0,0,1,.17-.39,4.64,4.64,0,0,1,.64-1l.07-.36.54-1.08v-.37l.31-.62,0-.46.38-.71,0-.11-.2,0-.32.33-.52.28-.78.64-.85.4-1,.64a12.1,12.1,0,0,1-1.9,1l-.38.27-.48.19-.43.16-.47.28-.5.18a1.81,1.81,0,0,1-.7.24,3.44,3.44,0,0,1-1.43.34h-.27l-.37,0-.29,0-.44,0-.38-.55-.21-.55,0-.46.27-.89.42-.63.63-.76.07-.24.57-.68.43-.4a3.47,3.47,0,0,0,.44-.68l1-.91a1.8,1.8,0,0,1,.57-.37l.43-.38.45-.28a2.22,2.22,0,0,1,.66-.51,1,1,0,0,0,.44-.33,2.56,2.56,0,0,1,1.18-.44l-.13,0,.14-.05.58-.44.28,0,.3-.14a2.14,2.14,0,0,1,1-.3h.17l.77-.22.32.11h.46l.21.13a.33.33,0,0,1,.31.2l.19.3.08,0v.09l.07.31,0,.11-.25.35-.07.24-.55.44-.78.09-.11-.53-.3-.11-.1-.15h-.25c-.1,0-.32.1-.64.22l-.12.18h-.63a1.46,1.46,0,0,1-.73.35l-.38.15-.41.42-.19,0-.13.2H167l-.56.46-.35.16-.26.31-.61.46-.27.44-.44.27-.75,1-.29.17-.1.25-.72.83-.06.27-.15.26a.66.66,0,0,1-.06.47l.15,0v.13c.29,0,.46,0,.52.09a6.12,6.12,0,0,1,1.4-.33,1.79,1.79,0,0,1,.65-.44c.23-.1.71-.29,1.41-.55l.07,0a.8.8,0,0,1,.31-.33,5.1,5.1,0,0,0,.54-.18.82.82,0,0,0,.38-.28l.44-.09.36-.2,1-.75.13.09a8.89,8.89,0,0,1,.86-.6l.91-.62.2-.28a7.46,7.46,0,0,0,1.41-1.42l.11-.46-.05-.31.32-.33-.08-.24.1-.31,0-.22.45-.4a2.32,2.32,0,0,1,.67-.17.87.87,0,0,1,.5.19l0,.29.22.22-.2.49a5.09,5.09,0,0,1-.12.59.87.87,0,0,1-.1.47l-.08.15,0,.13.1.36-.27.39.06.18a.75.75,0,0,1-.09.33,1.25,1.25,0,0,1-.15.24l.2.07-.45.55-.11.42a.76.76,0,0,1-.08.4,1.83,1.83,0,0,1-.35.44l.1.11Z"/><path class="cls-3" d="M199.21,128a1.29,1.29,0,0,1-1.2.62,1.5,1.5,0,0,1-.67.18l-1,.11h-.46l-.46.22-.59,0-.31.16-1.26,0-.85.29h-.12a1,1,0,0,0-.27,0l-.18.11a1.67,1.67,0,0,1-.53.11.9.9,0,0,1-.36-.09l-.61.11-.6,0-.68.16h-1.49l-.74-.18-.71,0-.13-.18-.47,0a2.28,2.28,0,0,1-.78-1.53c.06-.35.11-.7.15-1.06v-.41l.63-.75.3-.91.29-.13.47-.84,4.23-6.55.46-.67.68-1.36.41-.36,1.42-2.51.35-.79.29-.18-.15-.15.7-.8.09,0,0-.35.65-.2a2.91,2.91,0,0,1,.8-.33l.62.09,0,1.06-.47.24a.5.5,0,0,1-.05.35l-.61.66-1.66,3.08-.62.69-.4.64-4.87,7.44-.09.17a1.68,1.68,0,0,1-.28.43l-.21.3-.25.4-.29.68-.16.18-.28,1v.69l0,.06.69.49,1.31.11.41,0,1-.14h.68l.23-.11,1.41,0,.38-.16,1,0,.53-.13,1.67-.07.76-.15.59,0,.34-.17a2.32,2.32,0,0,1,.67-.12c.53,0,.71.18.54.53"/><path class="cls-3" d="M218.44,113.59a2.36,2.36,0,0,1-1.05.88l-.14-.11-.5.2-.08-.86a1.08,1.08,0,0,0,.08-.56l-.19.07-.33-.2-.14,0-.42.18-.46-.14-.21.07a1.06,1.06,0,0,1-.56.22l-.17,0-.11.22-1.06.86c-.09.15-.29.42-.59.82l-.29.13-.22.24-.23.2-.09.44-.51.4-.26.33-.19.18-.13.3-.75.8-.14.37c0,.06-.25.27-.61.62l-.07.09a2.58,2.58,0,0,1,.48-.11l.14,0,.26-.06H210l.84,0,.09,0a2.64,2.64,0,0,1,.38-.05,1.29,1.29,0,0,1,.5.11,3.25,3.25,0,0,1,.56-.06.73.73,0,0,1,.32.06h.23l.29.07c.6,0,.8.23.59.64a2,2,0,0,1-.29.42l-1.27.28-.61-.08-1,.15-.06-.11a1.13,1.13,0,0,1-.57.15h-.27l-.85.29-.28-.15h-.12a1.76,1.76,0,0,1-.65.28l0,.13-.25.31,0,.38-.61.57-.37.89-.28.3-.08.31-.49.49-.06.26s0,0,0,.11l-.34.49a6.05,6.05,0,0,0-.55.88l-.1.2a2.6,2.6,0,0,1,.14.29l-.37.37,0,.44-.3.35L203.7,129l-.52,1.19.18.44-.47.48a1.27,1.27,0,0,1-.07.75l0,.07a.2.2,0,0,0,0,.11l-.06.11a1.65,1.65,0,0,1-1.55.88l0-.35-.23-.16.16-.39.11-1.24.12-.24c.07-.26.11-.42.13-.46a.64.64,0,0,1,.1-.16l.12-.37.26-.38.05-.24.24-.49.44-1.38.07-.05.08-.24.2-.31,0-.29.27-.24.58-1.15.19-.13.4-.79.16-.18.27-.68.23-.27c.16-.25.54-.81,1.15-1.67h-.1l-.29-.09h-.38l-.75.09-.38-.09-.8.13-.23,0-.32,0c-.59-.3-.87-.52-.84-.69l.06-.37a2,2,0,0,1,1.34-.86l.78.15,1.44,0,.78-.14.59,0,.22,0,.22-.29.37-.64.26-.26.14-.45a1,1,0,0,1,.42-.41l.09-.25.41-.26.46-.66.15-.11.07-.29a1.79,1.79,0,0,0,.56-.51l0-.13c-.06.12.24-.22.89-1l.23-.12.27-.48v.11l0-.07a1.15,1.15,0,0,1,.63-.55l.25-.2.62-.63h.05a.45.45,0,0,0,.42-.29l.05-.09.82-.22h.2a3.08,3.08,0,0,1,.72-.09h.18l.15,0,.61-.11.59.13.17.07a1.32,1.32,0,0,1,.4-.09c.23,0,.37.15.42.46l.24.22,0,.44.22.33-.21.62Z"/><path class="cls-3" d="M222.31,116.51a.67.67,0,0,0,.06-.27l-.11,0-.07,0h-.1a.22.22,0,0,1-.11,0,.1.1,0,0,1-.06,0h-.08l-.33.16-.24,0-.15,0-.67.49-.37.17-.71.62-.29.14a2.52,2.52,0,0,1-.67.63l-.18.16a1.79,1.79,0,0,1,.71-.16l.21-.06.17-.2.34,0L220,118h.15l.23.08.29-.33h.18l.12-.24.37-.07.1-.06.15-.2.54-.42a1,1,0,0,0,.18-.26m-.68,6.35a2.11,2.11,0,0,1-.78.66,2.71,2.71,0,0,1-.67.57l-.17,0-.48.42-.49.06-.61.27-.45.39-.26,0a2.59,2.59,0,0,1-.52.13l-.25.2-.21,0a1.49,1.49,0,0,0-.84.4l-.22-.27-.31,0a1.36,1.36,0,0,1-.51-.08h-.43l-.15-.12c-.59-.08-.89-.3-.89-.63l0-.07-.23-.13,0-.38-.21-.18.17-.33.18-1,.45-.79.27-.35.24-.47.3-.35,0-.15.31-.27-.07,0a1.35,1.35,0,0,1,.33-.42l.06-.11.19-.53a1.64,1.64,0,0,1,.71-.66.56.56,0,0,0,.09-.14,1.52,1.52,0,0,0,.08-.35,1.78,1.78,0,0,1,.12-.4,2.18,2.18,0,0,1,.43-.55q.06.27.45.27h.07a1.28,1.28,0,0,1,.33-.2,5.51,5.51,0,0,1,1-.93l.14-.09a4.21,4.21,0,0,1,.41-.5h.2l.11-.12.22,0,.25-.2s.28-.12.7-.28a1.94,1.94,0,0,1,.45-.29l.3-.09.16-.13a5.19,5.19,0,0,1,1-.2.56.56,0,0,1,.33.09l.14,0,.13.09a2.73,2.73,0,0,0,.44.34l.29.28,0,.09c.25.26.25.64,0,1.13l-.18.22-.29.72-.3.14-.54.57-.71.46-.2.36c-.71.33-1.34.61-1.9.81a1.32,1.32,0,0,1-.86.31h-.08l-.61.26h-.4l-.72.23-.35-.2h-.06a5.69,5.69,0,0,0-.36.53l-.27.13-.16.26-.34.38a6.87,6.87,0,0,1-.26.68l-.14.07a3.43,3.43,0,0,1-.23.42l-.06.06a.17.17,0,0,0,0,.07.21.21,0,0,0,.06.29c-.05.17,0,.28.08.33l.11.13.49.13,0,.07.18,0,.83.05.54-.07.33-.15.17-.05.42-.33.14,0,.72-.18a1.54,1.54,0,0,1,.46-.26l.13-.11a1.15,1.15,0,0,0,.81-.47,2.1,2.1,0,0,1,1.07-.31h.1a.91.91,0,0,1,.08.8"/><path class="cls-3" d="M203.9,113.13a1.23,1.23,0,0,1-.64.49l0,0c-.48.34-1.7.09-1.7.09l-.61-.31-.06-.39c.22-.3.08-.35.36-.48l.3-.28.36-.33.9.09c1,.24,1.37.6,1.12,1.08"/><path class="cls-3" d="M197.69,124.63l-.14,0-.27.2h-.51l-.53.27-.71-.66-.05-.86.52-1.08,0-.27,1.28-1.94.14-.09a3.14,3.14,0,0,1,.25-.64,6.41,6.41,0,0,1,.56-.81l.38-.51a.52.52,0,0,0-.06-.29l.36-.42.31-.51.08-.06a1.11,1.11,0,0,1,.1-.44l.1-.11a.51.51,0,0,0,.09-.14,1.58,1.58,0,0,1,.11-.37.9.9,0,0,1,.93-.49l.29,0a2.46,2.46,0,0,1,.45-.14c.33,0,.48.17.43.49l0,.09a1.65,1.65,0,0,1-.15.51,1,1,0,0,1-.2.28l-.73,1.11,0,.3a1.89,1.89,0,0,1-.65.71l0,.26-.75.84a8.23,8.23,0,0,1-.55.84l-.27.55-.31.31-.09.22-.3.51-.15.4.25.26.32,0s.93.27-.51,1.67"/><path class="cls-3" d="M148.7,115.1a1.22,1.22,0,0,1-.65.48l0,0c-.49.34-1.7.08-1.7.08l-.61-.3-.06-.4c.22-.29.07-.34.36-.48l.3-.28.36-.32.89.09c1,.23,1.37.59,1.13,1.08"/><path class="cls-3" d="M142.49,126.6l-.14,0-.28.2h-.5l-.54.26-.7-.66-.05-.86.52-1.08,0-.26,1.28-1.94.14-.09a3.51,3.51,0,0,1,.24-.64,8.12,8.12,0,0,1,.56-.82l.38-.51a.49.49,0,0,0-.05-.28l.36-.42.3-.51.09-.07a1.08,1.08,0,0,1,.09-.44l.11-.11a1.06,1.06,0,0,0,.09-.13.94.94,0,0,1,.11-.37.88.88,0,0,1,.93-.49l.29,0a1.92,1.92,0,0,1,.44-.13c.34,0,.48.16.44.48l0,.09a1.78,1.78,0,0,1-.16.51,1,1,0,0,1-.19.29l-.73,1.1,0,.31a1.91,1.91,0,0,1-.66.71l0,.26-.74.84c-.23.36-.4.65-.55.84l-.28.55-.31.31-.08.22-.3.51-.15.39.24.27.33,0s.92.27-.51,1.68"/><path class="cls-1" d="M123.06,32.08c-8.12-7-24.51-5.44-28,13.18C92.62,67.54,79.69,71.72,66.78,64Z"/><path class="cls-1" d="M109.79,18c-8.12-7-24.51-5.44-28,13.19-2.46,22.27-15.39,26.46-28.3,18.68Z"/><path class="cls-1" d="M96.52,3.86c-8.12-7-24.51-5.44-28,13.19-2.46,22.27-15.39,26.46-28.3,18.68Z"/><path class="cls-4" d="M81.81,31.15q-.16,1.5-.39,2.88L109.79,18a16.28,16.28,0,0,0-10.6-3.86c-7.38,0-15.12,4.91-17.38,17"/></g></g></svg>