<svg xmlns="http://www.w3.org/2000/svg" viewBox="0 0 254.94 111.94"><defs><style>.cls-1{fill:#27292c;}</style></defs><title>logo-black</title><g id="Capa_2" data-name="Capa 2"><g id="Capa_1-2" data-name="Capa 1"><path class="cls-1" d="M66.88,95.48h-3.8a1,1,0,0,0-.94.93.94.94,0,0,0,.94.93h1v9.51a3.07,3.07,0,0,1-.91,2.17,3.87,3.87,0,0,1-2.43,1,3.17,3.17,0,0,1-2.63-1.14,3.43,3.43,0,0,1-1-2.47V97.34h1a.93.93,0,0,0,.93-.93,1,1,0,0,0-.93-.93h-3.8a1,1,0,0,0-.93.93,1,1,0,0,0,.93.93h.93v9.07a5.39,5.39,0,0,0,1.59,3.82,5.22,5.22,0,0,0,4,1.66,5.64,5.64,0,0,0,3.76-1.54,4.92,4.92,0,0,0,1.46-3.5V97.34h.94a1,1,0,0,0,.93-.93,1,1,0,0,0-.93-.93"/><path class="cls-1" d="M81.86,88.57a.88.88,0,0,0,.28-.68,1,1,0,0,0-1-.93.82.82,0,0,0-.65.28A6.49,6.49,0,0,1,76,89.13a6.43,6.43,0,0,1-4.52-11A6.4,6.4,0,0,1,76,76.28c1.58,0,4.29.91,4.27,3.08a.94.94,0,1,0,1.88,0V75.44a1,1,0,0,0-.93-.93,1.07,1.07,0,0,0-1,1A9.74,9.74,0,0,0,76,74.39a8.3,8.3,0,1,0,5.87,14.18"/><path class="cls-1" d="M61.14,89.9V87.05a1,1,0,0,0-.93-.93,1,1,0,0,0-1,.93V89H54.54V76.38h1a1,1,0,0,0,1-.94,1,1,0,0,0-1-.93H51.72a1,1,0,0,0-.93.93.94.94,0,0,0,.93.94h1V89h-1a.93.93,0,0,0-.93.93,1,1,0,0,0,.93.93h8.49a1,1,0,0,0,.93-.93"/><path class="cls-1" d="M42.35,102.38c-1.56-.38-3.28-.77-3.28-2.31a2.71,2.71,0,0,1,3-2.85,3.1,3.1,0,0,1,3.27,3.08.94.94,0,1,0,1.88,0V96.41a1,1,0,0,0-.93-.93,1,1,0,0,0-1,.88,6.44,6.44,0,0,0-3.2-1,4.57,4.57,0,0,0-4.87,4.71c0,3,2.5,3.59,4.71,4.13,1.4.35,3.64,1,3.64,2.89,0,2-1.73,3-3.43,3s-3.5-1-3.5-3.1a.94.94,0,0,0-1.88,0v3.89a1,1,0,0,0,.95.94,1,1,0,0,0,1-.89,6.44,6.44,0,0,0,3.43,1c2.75,0,5.34-1.68,5.34-4.85,0-2.82-2.73-4.13-5.11-4.71"/><path class="cls-1" d="M20.66,109.93H19.61L14.36,96.18a1,1,0,0,0-1-.7H11.38a1,1,0,0,0-1,.93.94.94,0,0,0,1,.93h.74l-4.8,12.59H6.2a.93.93,0,0,0-.93.93,1,1,0,0,0,.93.94H10a1,1,0,0,0,.93-.94.93.93,0,0,0-.93-.93H9.35l1.23-3.29h5.76l1.26,3.29h-.72a.93.93,0,0,0-.93.93,1,1,0,0,0,.93.94h3.78a1,1,0,0,0,.95-.94,1,1,0,0,0-.95-.93m-9.35-5.17,2.19-5.69,2.12,5.69Z"/><path class="cls-1" d="M36.21,68.66A34.58,34.58,0,0,0,68.67,36.22a34.16,34.16,0,0,0-5.07-19.9l.17-.16A6.79,6.79,0,0,0,54.33,6.4,34.26,34.26,0,0,0,34.38,0h0C22,0,11.61,5.93,11.61,17.18S22.27,34.35,34.38,34.35a27,27,0,0,0,19.13-8A20.78,20.78,0,1,1,14.27,39.67a.77.77,0,0,1-.06-.2l.06.2a38.58,38.58,0,0,1-.68-5.7A6.8,6.8,0,1,0,0,33.86a42.12,42.12,0,0,0,1.06,9A34.37,34.37,0,0,0,36.21,68.66M34.38,20.77c-5.89,0-9-1.86-9-3.68s2.88-3.5,9-3.51a20.69,20.69,0,0,1,10.72,3c-1.62,2-4.74,4.2-10.7,4.2"/><path class="cls-1" d="M80.7,95.48h-6a1,1,0,0,0-.93.93,1,1,0,0,0,.93.93h1v12.59h-1a1,1,0,0,0-.93.93,1,1,0,0,0,.93.94h3.8a1,1,0,0,0,.94-.94.94.94,0,0,0-.94-.93h-1v-4.48H80.7a5,5,0,1,0,0-10m0,8.11H77.53V97.34H80.7a3.13,3.13,0,0,1,0,6.25"/><path class="cls-1" d="M25,74.51H21.61a1,1,0,0,0-1,.93,1,1,0,0,0,1,.94h.47l-2.75,10-3-11.17a1,1,0,0,0-.91-.72,1,1,0,0,0-.91.72c-.87,3.25-2.2,8-3,11.17l-2.75-10h.46a.94.94,0,0,0,1-.94,1,1,0,0,0-1-.93H5.8a1,1,0,0,0-.93.93,1,1,0,0,0,.93.94h1l3.78,13.75a.92.92,0,0,0,1.12.65,1,1,0,0,0,.68-.65c.86-3.24,2.19-8,3-11.12l3,11.12a1,1,0,0,0,.63.65.94.94,0,0,0,1.16-.65L24,76.38h1a1,1,0,0,0,.93-.94,1,1,0,0,0-.93-.93"/><path class="cls-1" d="M43.68,89.9V87.05a1,1,0,0,0-.93-.93,1,1,0,0,0-.93.93V89h-5.9V83.6H39.3a1,1,0,0,0,1,1.05.93.93,0,0,0,.93-.93V81.27a1,1,0,0,0-.93-.93,1,1,0,0,0-.94.93v.47h-3.4V76.38h5.9v1.91a1,1,0,0,0,.93.93,1,1,0,0,0,.93-.93V75.44a1,1,0,0,0-.93-.93H33.08a1,1,0,0,0-.94.93,1,1,0,0,0,.94.94h1V89h-1a1,1,0,0,0-.94.93,1,1,0,0,0,.94.93h9.67a1,1,0,0,0,.93-.93"/><path class="cls-1" d="M173.4,55.55h-1.59v-30h-.09A27.56,27.56,0,0,0,144.24.4a27.1,27.1,0,0,0-20.77,9.67A27.14,27.14,0,0,0,88.2,4.6,6.79,6.79,0,0,0,81.93.4H73.54a6.8,6.8,0,0,0,0,13.59h1.6V55.55h-1.6a6.8,6.8,0,0,0,0,13.59H90.32a6.8,6.8,0,0,0,0-13.59h-1.6V26.73a14,14,0,0,1,28,0V55.55h-1.6a6.8,6.8,0,0,0,0,13.59h16.78a6.8,6.8,0,0,0,0-13.59h-1.6V26.73a14,14,0,0,1,28,0V55.55h-1.59a6.8,6.8,0,0,0,0,13.59H173.4a6.8,6.8,0,0,0,0-13.59"/><path class="cls-1" d="M196.55,95.48h-9.68a1,1,0,0,0-.93.93,1,1,0,0,0,.93.93h1v12.59h-1a1,1,0,0,0-.93.93,1,1,0,0,0,.93.94h9.68a1,1,0,0,0,.93-.94V108a1,1,0,0,0-.93-.93,1,1,0,0,0-.94.93v1.91h-5.89v-5.36h3.38a1,1,0,0,0,1,1.05.93.93,0,0,0,.93-.93v-2.45a1,1,0,0,0-.93-.94,1,1,0,0,0-.93.94v.46h-3.4V97.34h5.89v1.91a1,1,0,0,0,.94.94,1,1,0,0,0,.93-.94V96.41a1,1,0,0,0-.93-.93"/><path class="cls-1" d="M178.29,95.48h-9.72a1,1,0,0,0-.93.93,1,1,0,0,0,.93.93h1v12.59h-1a1,1,0,0,0-.93.93,1,1,0,0,0,.93.94h3.8a1,1,0,0,0,.94-.94.94.94,0,0,0-.94-.93h-1v-5.36h3.42a1.06,1.06,0,0,0,1,1.05.93.93,0,0,0,.93-.93v-2.45a1,1,0,0,0-.93-.94,1,1,0,0,0-.93.94v.46h-3.45V97.34h5.94v1.91a.95.95,0,0,0,1.89,0V96.41a1,1,0,0,0-1-.93"/><path class="cls-1" d="M102.12,95.48H92.45a1,1,0,0,0-.94.93,1,1,0,0,0,.94.93h1v12.59h-1a1,1,0,0,0-.94.93,1,1,0,0,0,.94.94h9.67a1,1,0,0,0,.93-.94V108a1,1,0,0,0-.93-.93,1,1,0,0,0-.93.93v1.91h-5.9v-5.36h3.38a1.06,1.06,0,0,0,1,1.05.93.93,0,0,0,.93-.93v-2.45a1,1,0,0,0-.93-.94,1,1,0,0,0-.94.94v.46h-3.4V97.34h5.9v1.91a1,1,0,0,0,.93.94,1,1,0,0,0,.93-.94V96.41a1,1,0,0,0-.93-.93"/><path class="cls-1" d="M189.62,74.37a8.31,8.31,0,0,0-5.87,14.18,8.34,8.34,0,0,0,11.75,0,8.32,8.32,0,0,0-5.88-14.18m4.53,12.85a6.38,6.38,0,0,1-4.53,1.89,6.44,6.44,0,1,1,4.53-1.89"/><path class="cls-1" d="M160.16,97.34a1,1,0,0,0,1-.93,1,1,0,0,0-1-.93h-3.78a1,1,0,0,0-.93.93,1,1,0,0,0,.93.93h.94v12.59h-.94a1,1,0,0,0-.93.93,1,1,0,0,0,.93.94h3.78a1,1,0,0,0,1-.94,1,1,0,0,0-1-.93h-.93V97.34Z"/><path class="cls-1" d="M248.15,69.54h-1.6V14h1.6a6.8,6.8,0,0,0,6.76-7.46A7,7,0,0,0,247.84.4h-8.09A6.81,6.81,0,0,0,233,7.2v.2a34.35,34.35,0,0,0-55.07,29.36A34.39,34.39,0,0,0,221.2,67.94a6.8,6.8,0,0,0-3.54-13.12,20.61,20.61,0,0,1-5.53.73,21,21,0,0,1-20.69-22A20.77,20.77,0,0,1,213.56,14c11,.71,19.39,10.28,19.39,21.32V69.54c-1,0-10.85-1.08-20.34,8.41-9.34,9.33-11.18,22.61-4.13,29.66s20.33,5.21,29.66-4.12c5.22-5.22,8.09-11.66,8.39-17.57l0-2.79h1.6a6.8,6.8,0,0,0,0-13.59M229,93.52c-5.29,6.06-11.19,4.39-11.19,4.39s-.88-4.94,4.79-10.79c5.42-5.58,10.38-4,10.38-4a17.06,17.06,0,0,1-4,10.39"/><path class="cls-1" d="M172,89.9a1,1,0,0,0-1-.93h-1V76.38h3.05v1.91a1,1,0,0,0,.93.93.94.94,0,0,0,.93-.93V75.44a1,1,0,0,0-.93-.93h-9.84a1,1,0,0,0-.93.93v2.85a.95.95,0,0,0,1.89,0V76.38h3V89h-1a.93.93,0,0,0-.93.93,1,1,0,0,0,.93.93H171a1,1,0,0,0,1-.93"/><path class="cls-1" d="M122.33,109.93h-.86l-2.59-5a5.3,5.3,0,0,0,2.68-4.45,5,5,0,0,0-5-5h-6a1,1,0,0,0-.93.93.93.93,0,0,0,.93.93h.94v12.59h-.94a.93.93,0,0,0-.93.93,1,1,0,0,0,.93.94h3.76a1,1,0,0,0,1-.94,1,1,0,0,0-1-.93h-.94v-4.48h3.64l2.31,4.48h-.82a1,1,0,0,0-1,.93,1,1,0,0,0,1,.94h3.78a1,1,0,0,0,.93-.94.93.93,0,0,0-.93-.93m-5.76-6.34h-3.15V97.34h3.15a3.13,3.13,0,1,1,0,6.25"/><path class="cls-1" d="M97.22,74.37a8.32,8.32,0,0,0-5.87,14.18,8.34,8.34,0,0,0,11.75,0,8.32,8.32,0,0,0-5.88-14.18m4.53,12.85a6.36,6.36,0,0,1-4.53,1.89,6.45,6.45,0,1,1,4.53-1.89"/><path class="cls-1" d="M146.59,89.9V87.05a1,1,0,0,0-.93-.93,1,1,0,0,0-.93.93V89h-5.9V83.6h3.38a1,1,0,0,0,1,1.05.93.93,0,0,0,.93-.93V81.27a1,1,0,0,0-.93-.93,1,1,0,0,0-.93.93v.47h-3.41V76.38h5.9v1.91a1,1,0,0,0,.93.93,1,1,0,0,0,.93-.93V75.44a1,1,0,0,0-.93-.93H136a1,1,0,0,0-.94.93,1,1,0,0,0,.94.94h1V89h-1a1,1,0,0,0-.94.93,1,1,0,0,0,.94.93h9.67a1,1,0,0,0,.93-.93"/><path class="cls-1" d="M127.25,76.38a.94.94,0,0,0,.95-.94,1,1,0,0,0-.95-.93h-1.87a1,1,0,0,0-.88.58l-4.76,9.73L115,75.09a1,1,0,0,0-.89-.58h-1.89a1,1,0,0,0-.93.93.94.94,0,0,0,.93.94h1V89h-1a.93.93,0,0,0-.93.93,1,1,0,0,0,.93.93H116a1,1,0,0,0,1-.93,1,1,0,0,0-1-.93h-1V79.06l4,8.25a.86.86,0,0,0,.74.47,1,1,0,0,0,.75-.47l3.94-8.25V89h-.93a1,1,0,0,0-1,.93,1,1,0,0,0,1,.93h3.75a1,1,0,0,0,.95-.93.94.94,0,0,0-.95-.93h-.93V76.38Z"/><path class="cls-1" d="M148.23,107.09a1,1,0,0,0-1,.93v1.91h-4.71V97.34h1a1,1,0,0,0,.95-.93,1,1,0,0,0-.95-.93h-3.78a1,1,0,0,0-.93.93.93.93,0,0,0,.93.93h1v12.59h-1a.93.93,0,0,0-.93.93,1,1,0,0,0,.93.94h8.49a1,1,0,0,0,.93-.94V108a1,1,0,0,0-.93-.93"/></g></g></svg>