<svg xmlns="http://www.w3.org/2000/svg" viewBox="0 0 281.95 123.79"><defs><style>.cls-1{fill:#fff;}</style></defs><title>omg-home-logo</title><g id="Capa_2" data-name="Capa 2"><g id="Capa_1-2" data-name="Capa 1"><path class="cls-1" d="M74,105.59h-4.2a1,1,0,0,0-1,1,1,1,0,0,0,1,1h1.08v10.52a3.43,3.43,0,0,1-1,2.4,4.28,4.28,0,0,1-2.69,1.11,3.55,3.55,0,0,1-2.91-1.27,3.79,3.79,0,0,1-1.13-2.73v-10h1.08a1,1,0,0,0,1-1,1,1,0,0,0-1-1H60a1.07,1.07,0,0,0-1,1,1,1,0,0,0,1,1h1v10a6,6,0,0,0,1.75,4.23,5.8,5.8,0,0,0,4.38,1.83,6.24,6.24,0,0,0,4.16-1.7,5.5,5.5,0,0,0,1.62-3.87V107.65h1a1,1,0,0,0,1-1,1.07,1.07,0,0,0-1-1"/><path class="cls-1" d="M90.54,98a1,1,0,0,0,.31-.75,1.1,1.1,0,0,0-1.06-1,.91.91,0,0,0-.72.31,7.21,7.21,0,0,1-5,2.09,7.11,7.11,0,0,1-5-12.15,7.07,7.07,0,0,1,5-2.06c1.75,0,4.74,1,4.72,3.4a1,1,0,0,0,1,1.06,1.06,1.06,0,0,0,1-1.06V83.43a1.08,1.08,0,0,0-1-1,1.18,1.18,0,0,0-1.08,1.06A10.79,10.79,0,0,0,84,82.27a9.2,9.2,0,0,0-9.18,9.18A9.19,9.19,0,0,0,90.54,98"/><path class="cls-1" d="M67.62,99.42V96.27a1.06,1.06,0,0,0-1-1,1.08,1.08,0,0,0-1.06,1v2.12H60.32V84.46h1.06a1.05,1.05,0,0,0,1.06-1,1.08,1.08,0,0,0-1.06-1H57.2a1,1,0,0,0-1,1,1,1,0,0,0,1,1h1.06V98.39H57.2a1,1,0,0,0-1,1,1,1,0,0,0,1,1h9.39a1.06,1.06,0,0,0,1-1"/><path class="cls-1" d="M46.84,113.22c-1.73-.41-3.64-.85-3.64-2.55a3,3,0,0,1,3.31-3.15,3.42,3.42,0,0,1,3.61,3.4,1,1,0,1,0,2.08,0v-4.3a1,1,0,0,0-1-1,1.16,1.16,0,0,0-1.11,1,7.16,7.16,0,0,0-3.53-1.11c-2.91,0-5.33,1.78-5.39,5.21s2.76,4,5.21,4.56c1.55.39,4,1.16,4,3.2,0,2.27-1.91,3.32-3.79,3.3s-3.86-1.09-3.86-3.43a1,1,0,0,0-2.09,0v4.3a1.07,1.07,0,0,0,1,1,1.13,1.13,0,0,0,1.11-1,7.17,7.17,0,0,0,3.79,1.13c3,0,5.91-1.86,5.91-5.36,0-3.12-3-4.57-5.65-5.21"/><path class="cls-1" d="M22.84,121.57H21.68l-5.8-15.21a1.1,1.1,0,0,0-1.13-.77H12.58a1.05,1.05,0,0,0-1.05,1,1,1,0,0,0,1.05,1h.83L8.1,121.57H6.86a1,1,0,0,0-1,1,1.06,1.06,0,0,0,1,1H11a1.06,1.06,0,0,0,1-1,1,1,0,0,0-1-1h-.7l1.37-3.63h6.36l1.4,3.63h-.8a1,1,0,0,0-1,1,1.06,1.06,0,0,0,1,1h4.17a1.08,1.08,0,0,0,1.06-1,1.06,1.06,0,0,0-1.06-1m-10.33-5.72,2.42-6.29,2.34,6.29Z"/><path class="cls-1" d="M40,75.94a38,38,0,0,0,30.3-57.89l.18-.18A7.5,7.5,0,0,0,60.09,7.08,37.88,37.88,0,0,0,38,0h0C24.34,0,12.84,6.56,12.84,19S24.63,38,38,38a29.86,29.86,0,0,0,21.16-8.9,23,23,0,1,1-43.4,14.78,1,1,0,0,1-.06-.23l.06.23A44.31,44.31,0,0,1,15,37.56a7.52,7.52,0,1,0-15-.11,45.89,45.89,0,0,0,1.17,10A38,38,0,0,0,40,75.94M38,23c-6.51,0-10-2-10-4.07S31.21,15,38,15a22.87,22.87,0,0,1,11.86,3.3C48.07,20.56,44.61,23,38,23"/><path class="cls-1" d="M89.25,105.59H82.59a1.07,1.07,0,0,0-1,1,1,1,0,0,0,1,1h1.06v13.92H82.59a1.06,1.06,0,0,0-1,1,1.07,1.07,0,0,0,1,1H86.8a1.06,1.06,0,0,0,1-1,1,1,0,0,0-1-1H85.74v-4.95h3.51a5.52,5.52,0,0,0,0-11m0,9H85.74v-6.91h3.51a3.46,3.46,0,0,1,0,6.91"/><path class="cls-1" d="M27.61,82.4H23.9a1.08,1.08,0,0,0-1.08,1,1.06,1.06,0,0,0,1.08,1h.52L21.37,95.55,18,83.2a1,1,0,0,0-1-.8,1.1,1.1,0,0,0-1,.8c-1,3.59-2.42,8.9-3.35,12.35l-3-11.09h.51a1,1,0,0,0,1.06-1,1.06,1.06,0,0,0-1.06-1H6.42a1.07,1.07,0,0,0-1,1,1,1,0,0,0,1,1H7.5l4.18,15.22a1,1,0,0,0,1.24.72,1.11,1.11,0,0,0,.74-.72c1-3.59,2.43-8.87,3.36-12.3l3.35,12.3a1.15,1.15,0,0,0,.69.72,1.05,1.05,0,0,0,1.29-.72L26.5,84.46h1.11a1,1,0,0,0,1-1,1.07,1.07,0,0,0-1-1"/><path class="cls-1" d="M48.31,99.42V96.27a1,1,0,0,0-1-1,1.07,1.07,0,0,0-1,1v2.12H39.73V92.46h3.73a1.17,1.17,0,0,0,1.06,1.16,1,1,0,0,0,1-1V89.88a1,1,0,0,0-1-1,1.07,1.07,0,0,0-1,1v.52H39.73V84.46h6.52v2.12a1.07,1.07,0,0,0,1,1,1,1,0,0,0,1-1V83.43a1,1,0,0,0-1-1H36.58a1.07,1.07,0,0,0-1,1,1,1,0,0,0,1,1h1.08V98.39H36.58a1,1,0,0,0-1,1,1.07,1.07,0,0,0,1,1h10.7a1,1,0,0,0,1-1"/><path class="cls-1" d="M191.77,61.43H190V28.29h-.09A30.48,30.48,0,0,0,159.52.44a30,30,0,0,0-23,10.7,30,30,0,0,0-39-6.05A7.49,7.49,0,0,0,90.61.44H81.33a7.52,7.52,0,0,0,0,15h1.76v46H81.33a7.52,7.52,0,0,0,0,15H99.88a7.52,7.52,0,0,0,0-15H98.11V29.56a15.49,15.49,0,0,1,30.93,0V61.43h-1.77a7.52,7.52,0,0,0,0,15h18.55a7.52,7.52,0,0,0,0-15h-1.76V29.56a15.49,15.49,0,0,1,30.92,0V61.43h-1.76a7.52,7.52,0,1,0,0,15h18.55a7.52,7.52,0,0,0,0-15"/><path class="cls-1" d="M217.36,105.59h-10.7a1.07,1.07,0,0,0-1,1,1,1,0,0,0,1,1h1.08v13.92h-1.08a1.06,1.06,0,0,0-1,1,1.07,1.07,0,0,0,1,1h10.7a1.05,1.05,0,0,0,1-1v-3.14a1,1,0,0,0-1-1,1.07,1.07,0,0,0-1,1v2.11h-6.52v-5.93h3.74a1.15,1.15,0,0,0,1,1.16,1,1,0,0,0,1-1v-2.71a1.06,1.06,0,0,0-1-1,1.07,1.07,0,0,0-1,1v.52h-3.76v-5.93h6.52v2.11a1.07,1.07,0,0,0,1,1,1.05,1.05,0,0,0,1-1v-3.14a1,1,0,0,0-1-1"/><path class="cls-1" d="M197.18,105.59H186.43a1.07,1.07,0,0,0-1,1,1,1,0,0,0,1,1h1.08v13.92h-1.08a1.06,1.06,0,0,0-1,1,1.07,1.07,0,0,0,1,1h4.2a1.05,1.05,0,0,0,1-1,1,1,0,0,0-1-1h-1.06v-5.93h3.79a1.16,1.16,0,0,0,1.06,1.16,1,1,0,0,0,1-1v-2.71a1,1,0,0,0-1-1,1.07,1.07,0,0,0-1,1v.52h-3.82v-5.93h6.58v2.11a1,1,0,0,0,2.09,0v-3.14a1.08,1.08,0,0,0-1.06-1"/><path class="cls-1" d="M112.94,105.59h-10.7a1.07,1.07,0,0,0-1,1,1,1,0,0,0,1,1h1.08v13.92h-1.08a1.06,1.06,0,0,0-1,1,1.07,1.07,0,0,0,1,1h10.7a1.06,1.06,0,0,0,1-1v-3.14a1.06,1.06,0,0,0-1-1,1.07,1.07,0,0,0-1,1v2.11h-6.52v-5.93h3.74a1.16,1.16,0,0,0,1.06,1.16,1,1,0,0,0,1-1v-2.71a1,1,0,0,0-1-1,1.07,1.07,0,0,0-1,1v.52h-3.77v-5.93h6.52v2.11a1.07,1.07,0,0,0,1,1,1.06,1.06,0,0,0,1-1v-3.14a1.06,1.06,0,0,0-1-1"/><path class="cls-1" d="M209.71,82.25a9.18,9.18,0,1,0,0,18.35,9.23,9.23,0,0,0,6.49-2.68,9.24,9.24,0,0,0,0-13,9.16,9.16,0,0,0-6.49-2.7m5,14.2a7,7,0,0,1-5,2.09,7.13,7.13,0,0,1-5-12.14,7.24,7.24,0,0,1,5-2.06,7.09,7.09,0,0,1,5,12.11"/><path class="cls-1" d="M177.12,107.65a1.05,1.05,0,0,0,1.06-1,1.08,1.08,0,0,0-1.06-1H173a1.07,1.07,0,0,0-1,1,1.05,1.05,0,0,0,1,1h1v13.92h-1a1.06,1.06,0,0,0-1,1,1.07,1.07,0,0,0,1,1h4.17a1.08,1.08,0,0,0,1.06-1,1.06,1.06,0,0,0-1.06-1h-1V107.65Z"/><path class="cls-1" d="M274.43,76.9h-1.77V15.47h1.76a7.51,7.51,0,0,0,7.48-8.25,7.72,7.72,0,0,0-7.8-6.77h-8.95A7.52,7.52,0,0,0,257.62,8v.22a38,38,0,0,0-60.91,32.48,38,38,0,0,0,47.91,34.48,7.52,7.52,0,0,0-3.91-14.52,22.49,22.49,0,0,1-6.12.81,23,23,0,1,1,1.58-45.91c12.19.79,21.45,11.37,21.45,23.59V76.9c-1.15,0-12-1.19-22.5,9.3-10.32,10.32-12.36,25-4.56,32.81s22.48,5.75,32.8-4.57c5.77-5.76,8.95-12.89,9.28-19.42l0-3.09h1.77a7.52,7.52,0,1,0,0-15m-21.22,26.52c-5.84,6.71-12.37,4.86-12.37,4.86s-1-5.47,5.3-11.93c6-6.18,11.48-4.42,11.48-4.42a18.82,18.82,0,0,1-4.41,11.49"/><path class="cls-1" d="M190.19,99.42a1.05,1.05,0,0,0-1.06-1h-1V84.46h3.37v2.12a1.08,1.08,0,0,0,1,1,1.06,1.06,0,0,0,1-1V83.43a1.06,1.06,0,0,0-1-1H181.61a1,1,0,0,0-1,1v3.15a1,1,0,0,0,2.08,0V84.46H186V98.39H185a1,1,0,0,0-1,1,1,1,0,0,0,1,1h4.17a1.08,1.08,0,0,0,1.06-1"/><path class="cls-1" d="M135.29,121.57h-1L131.47,116a5.83,5.83,0,0,0,3-4.92,5.55,5.55,0,0,0-5.51-5.52h-6.6a1,1,0,0,0-1,1,1,1,0,0,0,1,1h1v13.92h-1a1,1,0,0,0-1,1,1,1,0,0,0,1,1h4.15a1.08,1.08,0,0,0,1.08-1,1.07,1.07,0,0,0-1.08-1h-1v-4.95h4l2.55,4.95h-.9a1.06,1.06,0,0,0-1.06,1,1.08,1.08,0,0,0,1.06,1h4.18a1.06,1.06,0,0,0,1-1,1,1,0,0,0-1-1m-6.37-7h-3.48v-6.91h3.48a3.46,3.46,0,0,1,0,6.91"/><path class="cls-1" d="M107.52,82.25a9.18,9.18,0,1,0,0,18.35,9.25,9.25,0,0,0,6.5-2.68,9.26,9.26,0,0,0,0-13,9.19,9.19,0,0,0-6.5-2.7m5,14.2a7,7,0,0,1-5,2.09,7.13,7.13,0,0,1-5-12.14,7.25,7.25,0,0,1,5-2.06,7.09,7.09,0,0,1,5,12.11"/><path class="cls-1" d="M162.12,99.42V96.27a1,1,0,0,0-1-1,1.07,1.07,0,0,0-1,1v2.12h-6.52V92.46h3.73a1.16,1.16,0,0,0,1.06,1.16,1,1,0,0,0,1-1V89.88a1,1,0,0,0-1-1,1.07,1.07,0,0,0-1,1v.52h-3.76V84.46h6.52v2.12a1.07,1.07,0,0,0,1,1,1,1,0,0,0,1-1V83.43a1,1,0,0,0-1-1h-10.7a1.07,1.07,0,0,0-1,1,1,1,0,0,0,1,1h1.08V98.39h-1.08a1,1,0,0,0-1,1,1.07,1.07,0,0,0,1,1h10.7a1,1,0,0,0,1-1"/><path class="cls-1" d="M140.73,84.46a1,1,0,0,0,1.05-1,1.05,1.05,0,0,0-1.05-1h-2.07a1.07,1.07,0,0,0-1,.65L132.43,93.8l-5.27-10.75a1,1,0,0,0-1-.65H124.1a1.06,1.06,0,0,0-1,1,1,1,0,0,0,1,1h1.05V98.39H124.1a1,1,0,0,0-1,1,1.06,1.06,0,0,0,1,1h4.17a1.08,1.08,0,0,0,1.06-1,1.05,1.05,0,0,0-1.06-1h-1.05v-11l4.38,9.13a.94.94,0,0,0,.83.51,1.14,1.14,0,0,0,.82-.51l4.36-9.13v11h-1a1.05,1.05,0,0,0-1.06,1,1.08,1.08,0,0,0,1.06,1h4.15a1.05,1.05,0,0,0,1.05-1,1,1,0,0,0-1.05-1h-1V84.46Z"/><path class="cls-1" d="M163.92,118.43a1.07,1.07,0,0,0-1,1v2.11h-5.21V107.65h1.06a1.05,1.05,0,0,0,1.05-1,1.07,1.07,0,0,0-1.05-1h-4.18a1,1,0,0,0-1,1,1,1,0,0,0,1,1h1.06v13.92h-1.06a1,1,0,0,0,0,2.06h9.38a1.05,1.05,0,0,0,1-1v-3.14a1.06,1.06,0,0,0-1-1"/></g></g></svg>