<svg xmlns="http://www.w3.org/2000/svg" viewBox="0 0 210.1 103.55"><defs><style>.cls-1{fill:#fff;}</style></defs><title>polvo_blanco</title><g id="Capa_2" data-name="Capa 2"><g id="Capa_1-2" data-name="Capa 1"><g id="HkURuK"><path class="cls-1" d="M110.18,95.33c4,1,7.95-.4,11.95-.72,4.66-.37,9.33-.67,14-1,.17,0,.39.07.49,0,2-1.6,4.52-.34,6.5-1.1a18.73,18.73,0,0,1,6.59-.88c.66,0,1.58.28,1.94-.05,1.87-1.69,4.44-.07,6-1.08,2.11-1.37,4.12-.5,6.13-.84.49-.08,1.06.14,1.48,0,4.23-1.73,8.83-1.78,13.22-2.77,5.75-1.3,11.46-2.75,17.18-4.17,2.39-.59,4.74-1.35,7.13-2,3-.77,4.88-3,6.78-5.14,1.19-1.33.26-6.22-1.36-8A30.84,30.84,0,0,0,198,59.81a65.41,65.41,0,0,1-7.76-4c-1.56-1-3.51-2.32-4-3.89-1.3-4.43-4.93-6.23-8.39-7.85-4-1.87-8.2-3.45-12.16-5.37-5.51-2.66-11-5.44-16.35-8.54-8.23-4.77-15.43-10.84-22.9-16.59-3.41-2.62-6.53-5.65-10.12-8C111.64,2.51,106.92-.3,100.68,0A16.49,16.49,0,0,0,90.42,4.15c-4.84,4.11-9.35,8.62-14,12.93-5,4.64-9.56,9.8-14.93,14.17C55.9,35.75,50.23,40,44.38,44.1A178.32,178.32,0,0,1,24.13,56.38a100.83,100.83,0,0,1-11.68,5.35,76.16,76.16,0,0,0-7.72,3A10.23,10.23,0,0,0,.45,68.43c-1.27,2,.28,4.71,2.93,6.32,2.8,1.7,6,2.35,9,3.53,2.36.94,5.12-.17,7.36,1.42,5.12-.09,9.94,2.06,15.06,2,.55,0,1.08.6,1.66.76a168.85,168.85,0,0,1,19.44,7c3.8,1.54,8,2.4,11.9,3.67,4.09,1.31,8.35,1.06,12.43,2.29,2.43.73,5.27,0,7.9.17s5.37,1,8,.88C100.8,96.37,105.44,95.76,110.18,95.33ZM51,92.62c-1.65.07-5,3.48-4.9,5s3.49,5,5,4.9,5-3.49,4.91-5S52.5,92.54,51,92.62ZM32.14,89.9c0,3,1.6,4.78,4.13,4.7a4,4,0,0,0-.11-7.94C33.66,86.67,32.14,87.9,32.14,89.9Zm148.72,1.72c-1.42.15-3.76,3.1-3.68,4.63.09,1.78,2.48,3.54,4.51,3.32a4.27,4.27,0,0,0,3.44-4.39C185,93.6,182.44,91.46,180.86,91.62ZM19,103.54c1.11.15,3.13-2.08,3.25-3.59a4.5,4.5,0,0,0-3-4.35c-1.41-.36-3.75,1.61-4,3.34A4.3,4.3,0,0,0,19,103.54Z" transform="translate(0 0)"/><path class="cls-1" d="M110.18,95.33c-4.74.43-9.38,1-14.05,1.18-2.66.09-5.34-.71-8-.88s-5.47.56-7.9-.17c-4.08-1.23-8.34-1-12.43-2.29-3.93-1.27-8.1-2.13-11.9-3.67a168.85,168.85,0,0,0-19.44-7c-.58-.16-1.11-.76-1.66-.76-5.12,0-9.94-2.11-15.06-2-2.24-1.59-5-.48-7.36-1.42-3-1.18-6.17-1.83-9-3.53S-.82,70.47.45,68.43a10.23,10.23,0,0,1,4.28-3.74,76.16,76.16,0,0,1,7.72-3,100.83,100.83,0,0,0,11.68-5.35A178.32,178.32,0,0,0,44.38,44.1C50.23,40,55.9,35.75,61.45,31.25c5.37-4.37,9.89-9.53,14.93-14.17,4.69-4.31,9.2-8.82,14-12.93A16.49,16.49,0,0,1,100.68,0c6.24-.33,11,2.48,15.66,5.54,3.59,2.34,6.71,5.37,10.12,8,7.47,5.75,14.67,11.82,22.9,16.59,5.34,3.1,10.84,5.88,16.35,8.54,4,1.92,8.17,3.5,12.16,5.37,3.46,1.62,7.09,3.42,8.39,7.85.47,1.57,2.42,2.91,4,3.89a65.41,65.41,0,0,0,7.76,4,30.84,30.84,0,0,1,10.2,7.72c1.62,1.81,2.55,6.7,1.36,8-1.9,2.13-3.79,4.37-6.78,5.14-2.39.62-4.74,1.38-7.13,2-5.72,1.42-11.43,2.87-17.18,4.17-4.39,1-9,1-13.22,2.77-.42.18-1,0-1.48,0-2,.34-4-.53-6.13.84-1.56,1-4.13-.61-6,1.08-.36.33-1.28,0-1.94.05a18.73,18.73,0,0,0-6.59.88c-2,.76-4.51-.5-6.5,1.1-.1.08-.32,0-.49,0-4.66.33-9.33.63-14,1C118.13,94.93,114.22,96.36,110.18,95.33ZM138.09,34c-5.77-4.16-11.6-8.25-17-12.88-2.32-2-4.38-4.53-7-5.78-1.83-.85-2.49-3-4.62-3.22-.52,0-1-.49-1.49-.74a4.58,4.58,0,0,0,.17,1.68c3.79,7,6.89,14.41,11.14,21.22,3.37,5.38,6.88,10.64,11.36,15.1a62.8,62.8,0,0,0,9.69,7.72c3.85,2.55,7.61,5.41,12,7C156.13,65.55,160,67,164,68.23c4.43,1.42,9,2.38,13.44,3.39s9.28.95,13.94,1.35l0-.22c2.15,0,4.31,0,6.46,0,.4,0,1-.28,1.13-.58a1.39,1.39,0,0,0-.38-1.26,12.5,12.5,0,0,0-2-1.11c-3-1.63-5.89-3.36-8.92-4.87-4.06-2-7.58-4.57-9.46-8.83A5.79,5.79,0,0,0,175,52.85M103.67,72c0,3,.66,3.77,3.06,3.73,1.85,0,3.89-1.86,3.89-3.48,0-1.38-2-3.44-3.4-3.48A3.45,3.45,0,0,0,103.67,72ZM89.76,69.77c2.08,0,2.93-.82,3-2.86s-.75-3-2.73-3.1c-2.41-.11-3.29.73-3.23,3.1C86.83,69,87.68,69.77,89.76,69.77Zm7.95-13.45c.13,1.12-.66,2.73,1.67,2.55s3.28-.82,3.29-2.48-1-2.35-3.22-2.55S97.77,55.13,97.71,56.32Z" transform="translate(0 0)"/><path class="cls-1" d="M51,92.62c1.55-.08,5,3.24,5,4.9s-3.25,5-4.91,5-4.95-3.25-5-4.9S49.3,92.69,51,92.62Z" transform="translate(0 0)"/><path class="cls-1" d="M32.14,89.9c0-2,1.52-3.23,4-3.24a4,4,0,0,1,.11,7.94C33.74,94.68,32.15,92.86,32.14,89.9Z" transform="translate(0 0)"/><path class="cls-1" d="M180.86,91.62c1.58-.16,4.14,2,4.27,3.56a4.27,4.27,0,0,1-3.44,4.39c-2,.22-4.42-1.54-4.51-3.32C177.1,94.72,179.44,91.77,180.86,91.62Z" transform="translate(0 0)"/><path class="cls-1" d="M19,103.54a4.3,4.3,0,0,1-3.7-4.6c.23-1.73,2.57-3.7,4-3.34a4.5,4.5,0,0,1,3,4.35C22.09,101.46,20.07,103.69,19,103.54Z" transform="translate(0 0)"/><path class="cls-1" d="M103.67,72a3.45,3.45,0,0,1,3.55-3.23c1.38,0,3.4,2.1,3.4,3.48,0,1.62-2,3.44-3.89,3.48C104.33,75.77,103.67,75,103.67,72Z" transform="translate(0 0)"/><path class="cls-1" d="M89.76,69.77c-2.08,0-2.93-.82-3-2.86-.06-2.37.82-3.21,3.23-3.1,2,.09,2.78,1,2.73,3.1S91.84,69.77,89.76,69.77Z" transform="translate(0 0)"/><path class="cls-1" d="M97.71,56.32c.06-1.19-.52-2.69,1.74-2.48s3.24.87,3.22,2.55-1.08,2.32-3.29,2.48S97.84,57.44,97.71,56.32Z" transform="translate(0 0)"/></g></g></g></svg>