<svg xmlns="http://www.w3.org/2000/svg" viewBox="0 0 45.31 44.81"><defs><style>.cls-1{fill:none;stroke:#000;stroke-linecap:round;stroke-miterlimit:10;stroke-width:2px;}</style></defs><title>Recurso 3</title><g id="Capa_2" data-name="Capa 2"><g id="Capa_1-2" data-name="Capa 1"><path class="cls-1" d="M22.66,24.62V43.81A21.53,21.53,0,0,0,44.31,22.4,21.52,21.52,0,0,0,22.66,1a21.38,21.38,0,0,0-6.31,41.89"/><path d="M7.06,20.37l.08-1.09,2,.12a3.42,3.42,0,0,1,.4,1,3.51,3.51,0,0,1,.11,1.09,2.64,2.64,0,0,1-.42,1.31,2.56,2.56,0,0,1-2.32,1.13,2.42,2.42,0,0,1-1.27-.44,2.49,2.49,0,0,1-.85-1,3,3,0,0,1-.24-1.4A3.2,3.2,0,0,1,4.79,20a2.59,2.59,0,0,1,.6-.89l.85.79a1.94,1.94,0,0,0-.44.58,1.72,1.72,0,0,0-.2.67,1.38,1.38,0,0,0,.63,1.24,1.53,1.53,0,0,0,.73.23,1.48,1.48,0,0,0,.76-.13,1.38,1.38,0,0,0,.8-1.16,2,2,0,0,0-.18-.86Z"/><path d="M5.29,17.16,5.77,16l3.57,1.41.77-1.93,1,.41L9.88,19Z"/><path d="M11.18,13.7a.92.92,0,0,0,.66-.36.85.85,0,0,0,.22-.68,1,1,0,0,0-.41-.67L9.41,10.15l.83-1L12.47,11a2.22,2.22,0,0,1,.69.92A1.83,1.83,0,0,1,13.24,13,2.43,2.43,0,0,1,12.68,14a2.54,2.54,0,0,1-1,.74,1.83,1.83,0,0,1-1.08.13,2.23,2.23,0,0,1-1-.5L7.37,12.58l.82-1,2.24,1.83A1,1,0,0,0,11.18,13.7Z"/><path d="M11.53,8.08l3.61-2.2.56.9-1.26.77,2,3.26-1.09.67-2-3.26L12.09,9Z"/><path d="M16.73,5.26l3.78-.93.25,1-2.53.62.22.88,2.29-.56.24,1-2.28.56.22.9,2.6-.64.25,1L17.92,10Z"/><path d="M26.07,4.48l1.19.12-.52,4.86-1.12-.11L23.7,6.21l-.31,2.91L22.19,9l.51-4.86,1.13.12,1.93,3.16Z"/><path d="M31.21,6.06,34.37,8l-.54.87-2-1.23-.57.93L33.1,9.66l-.53.87-1.9-1.14-.92,1.51-1.1-.66Z"/><path d="M33.93,14.51l.57-1.42,0,0-.61-.7-1,.88-.84-1L35.75,9.1l1.45,1.67a2.26,2.26,0,0,1,.64,1.43,1.55,1.55,0,0,1-.62,1.23,2,2,0,0,1-.88.45,1.58,1.58,0,0,1-.91-.08l-.55,1.81Zm.73-2.8.61.7a.9.9,0,0,0,.54.34.76.76,0,0,0,.58-.21.72.72,0,0,0,.28-.52.9.9,0,0,0-.25-.58l-.61-.71Z"/><path d="M39.58,14.13,41,17.72l-1,.37-1-2.4-.86.33.86,2.17-1,.37-.87-2.17-.86.34,1,2.47-1,.37L35,15.92Z"/><path d="M41.43,19.75l.2,3.86-1,.05-.13-2.58-.92.05.11,2.32-1,.05-.12-2.32-.93,0,.13,2.65-1,.05L36.49,20Z"/><path d="M15.08,20.57l.13.09.14.11a.8.8,0,0,0,.19.13l.21.11.25.11.26.09.26.07.55.12.28.07.3.1a5.31,5.31,0,0,1,.62.27,5.5,5.5,0,0,1,.67.41,5.35,5.35,0,0,1,1.3,1.28,5.32,5.32,0,0,1,.5.87,3.41,3.41,0,0,1,.26,1,3.55,3.55,0,0,1,0,.46c0,.15,0,.29-.05.42a2.07,2.07,0,0,1-.25.63,1.53,1.53,0,0,1-.28.34.59.59,0,0,0-.08.08l0,0-.12-.09a3.42,3.42,0,0,0-.34-.22,2.46,2.46,0,0,0-.46-.22,4.1,4.1,0,0,0-.53-.14l-.55-.1-.59-.17a5.53,5.53,0,0,1-.64-.27,7.4,7.4,0,0,1-.68-.42,5.47,5.47,0,0,1-1.31-1.32,3.87,3.87,0,0,1-.27-.43l-.12-.23-.1-.24a3.36,3.36,0,0,1-.24-1,2.37,2.37,0,0,1,0-.46,2.52,2.52,0,0,1,.06-.41c0-.13.07-.24.11-.35s.1-.2.15-.28l.07-.12.08-.08.12-.12Z"/><path d="M30.17,20.57l.12.11.12.12.08.08.07.12a1.84,1.84,0,0,1,.15.28,2.89,2.89,0,0,1,.11.35,2.52,2.52,0,0,1,.06.41,3.53,3.53,0,0,1,0,.46,3.39,3.39,0,0,1-.25,1,2.44,2.44,0,0,1-.1.24l-.12.23a3.87,3.87,0,0,1-.27.43,5.3,5.3,0,0,1-1.31,1.32,7.4,7.4,0,0,1-.68.42,5.53,5.53,0,0,1-.64.27l-.59.17-.55.1a4.58,4.58,0,0,0-.53.14,2.46,2.46,0,0,0-.46.22,2.33,2.33,0,0,0-.33.22l-.13.09,0,0-.09-.08a1.86,1.86,0,0,1-.28-.34,2.07,2.07,0,0,1-.24-.63,1.86,1.86,0,0,1-.05-.42,2.36,2.36,0,0,1,0-.46,3.13,3.13,0,0,1,.27-1,4.18,4.18,0,0,1,.5-.87,5.55,5.55,0,0,1,.62-.73,6.56,6.56,0,0,1,.68-.55,5.41,5.41,0,0,1,.66-.41,5.31,5.31,0,0,1,.62-.27l.3-.1.28-.07.55-.12.27-.07.26-.09L29.5,21l.21-.11a.8.8,0,0,0,.19-.13l.14-.11Z"/><path d="M15.08,26.28l.13.09.14.12a1.22,1.22,0,0,0,.19.12l.21.11.25.11.26.09.26.07.55.12.28.07.3.1a5.31,5.31,0,0,1,.62.27,5.65,5.65,0,0,1,1.34,1,5.6,5.6,0,0,1,.63.72,5,5,0,0,1,.5.88,3.26,3.26,0,0,1,.26,1,3.67,3.67,0,0,1,0,.46c0,.15,0,.29-.05.42a2.07,2.07,0,0,1-.25.63,1.53,1.53,0,0,1-.28.34s-.07.06-.08.08l0,0-.12-.09a3.42,3.42,0,0,0-.34-.22,2.45,2.45,0,0,0-.46-.21,2.94,2.94,0,0,0-.53-.14l-.55-.11a3.82,3.82,0,0,1-.59-.17,5.53,5.53,0,0,1-.64-.27,7.4,7.4,0,0,1-.68-.42,5.47,5.47,0,0,1-1.31-1.32,3.87,3.87,0,0,1-.27-.43l-.12-.23c0-.08-.07-.15-.1-.24a3.36,3.36,0,0,1-.24-1,2.37,2.37,0,0,1,0-.46,2.52,2.52,0,0,1,.06-.41c0-.13.07-.24.11-.34a2.57,2.57,0,0,1,.15-.29l.07-.11a.34.34,0,0,1,.08-.09l.12-.12Z"/><path d="M30.17,26.28l.12.11.12.12a.34.34,0,0,1,.08.09l.07.11a1.57,1.57,0,0,1,.15.29,2.27,2.27,0,0,1,.11.34,2.52,2.52,0,0,1,.06.41,3.53,3.53,0,0,1,0,.46,3.39,3.39,0,0,1-.25,1,1.73,1.73,0,0,1-.1.24l-.12.23a3.87,3.87,0,0,1-.27.43,5.3,5.3,0,0,1-1.31,1.32,7.4,7.4,0,0,1-.68.42,5.53,5.53,0,0,1-.64.27,3.82,3.82,0,0,1-.59.17l-.55.11a3.18,3.18,0,0,0-.53.14,2.45,2.45,0,0,0-.46.21,2.33,2.33,0,0,0-.33.22l-.13.09,0,0a.57.57,0,0,1-.09-.08,1.86,1.86,0,0,1-.28-.34,2.07,2.07,0,0,1-.24-.63,1.86,1.86,0,0,1-.05-.42,2.4,2.4,0,0,1,0-.46,3,3,0,0,1,.27-1,4,4,0,0,1,.5-.88,4.87,4.87,0,0,1,.62-.72,5.59,5.59,0,0,1,.68-.56,5.41,5.41,0,0,1,.66-.41,5.31,5.31,0,0,1,.62-.27l.3-.1.28-.07.55-.12.27-.07.26-.09.24-.11.21-.11a1.22,1.22,0,0,0,.19-.12l.14-.12Z"/><path d="M15.08,32l.13.1.14.11a.76.76,0,0,0,.19.12,1.39,1.39,0,0,0,.21.11l.25.11a2.67,2.67,0,0,0,.26.09l.26.07.55.12.28.08a1.71,1.71,0,0,1,.3.09,5.31,5.31,0,0,1,.62.27,7.12,7.12,0,0,1,.67.41,5.52,5.52,0,0,1,.67.56,5.6,5.6,0,0,1,.63.72,5,5,0,0,1,.5.88,3.34,3.34,0,0,1,.26,1,3.67,3.67,0,0,1,0,.46c0,.15,0,.29-.05.42a2.07,2.07,0,0,1-.25.63,1.53,1.53,0,0,1-.28.34l-.08.08,0,0-.12-.1a3.42,3.42,0,0,0-.34-.22,2.45,2.45,0,0,0-.46-.21,2.94,2.94,0,0,0-.53-.14L18.33,38a3.82,3.82,0,0,1-.59-.17,5.53,5.53,0,0,1-.64-.27,7.4,7.4,0,0,1-.68-.42,5.47,5.47,0,0,1-1.31-1.32,3.12,3.12,0,0,1-.27-.43l-.12-.23c0-.07-.07-.15-.1-.24a3.38,3.38,0,0,1-.24-1,2.39,2.39,0,0,1,0-.46,2.65,2.65,0,0,1,.06-.42c0-.13.07-.24.11-.34a2.57,2.57,0,0,1,.15-.29l.07-.11a.34.34,0,0,1,.08-.09L15,32.1Z"/><path d="M30.17,32l.12.11.12.12a.34.34,0,0,1,.08.09l.07.11a1.57,1.57,0,0,1,.15.29,2.27,2.27,0,0,1,.11.34,2.65,2.65,0,0,1,.06.42,3.53,3.53,0,0,1,0,.46,3.41,3.41,0,0,1-.25,1,1.33,1.33,0,0,1-.1.24l-.12.23a3.12,3.12,0,0,1-.27.43,5.3,5.3,0,0,1-1.31,1.32,7.4,7.4,0,0,1-.68.42,5.53,5.53,0,0,1-.64.27,3.82,3.82,0,0,1-.59.17l-.55.11a3.18,3.18,0,0,0-.53.14,2.45,2.45,0,0,0-.46.21,2.33,2.33,0,0,0-.33.22l-.13.1,0,0a.57.57,0,0,1-.09-.08,1.86,1.86,0,0,1-.28-.34,2.07,2.07,0,0,1-.24-.63,1.86,1.86,0,0,1-.05-.42,2.4,2.4,0,0,1,0-.46,3.07,3.07,0,0,1,.27-1A4,4,0,0,1,25,35a4.87,4.87,0,0,1,.62-.72,5.59,5.59,0,0,1,.68-.56,7,7,0,0,1,.66-.41A5.31,5.31,0,0,1,27.6,33l.3-.09.28-.08.55-.12.27-.07.26-.09.24-.11a1.39,1.39,0,0,0,.21-.11.76.76,0,0,0,.19-.12l.14-.11Z"/><path d="M22.63,22.52l0,0-.1-.06c-.07-.06-.21-.14-.33-.24a3.46,3.46,0,0,1-.44-.37c-.15-.14-.3-.3-.45-.47a4.38,4.38,0,0,1-.73-1.19,4,4,0,0,1-.27-1.36,3.51,3.51,0,0,1,.27-1.36,4.68,4.68,0,0,1,1.18-1.67c.15-.14.3-.26.43-.36a2.81,2.81,0,0,1,.34-.24l.1-.06,0,0,0,0,.1.06a2.81,2.81,0,0,1,.34.24l.44.36a5.27,5.27,0,0,1,.45.48,4.23,4.23,0,0,1,.73,1.19A3.7,3.7,0,0,1,25,18.81a3.55,3.55,0,0,1-.27,1.36A4.14,4.14,0,0,1,24,21.36c-.15.17-.3.33-.45.47a4.3,4.3,0,0,1-.43.37l-.34.24-.1.06Z"/></g></g></svg>