<svg xmlns="http://www.w3.org/2000/svg" viewBox="0 0 73.76 73.78"><defs><style>.cls-1{fill:none;stroke:#040006;stroke-linecap:round;stroke-miterlimit:10;stroke-width:1.33px;}.cls-2{fill:#211915;}.cls-3{fill:#040006;}</style></defs><title>gluten-free</title><g id="Capa_2" data-name="Capa 2"><g id="Capa_1-2" data-name="Capa 1"><path class="cls-1" d="M36.88,40.65V73.12a36.18,36.18,0,1,0-10.55-1.56"/><path class="cls-2" d="M10.8,33.46l.12-1.86,3.29.21a5.46,5.46,0,0,1,.67,1.68,6,6,0,0,1,.18,1.84,4.45,4.45,0,0,1-.71,2.21A4.13,4.13,0,0,1,12.71,39a4.29,4.29,0,0,1-2.23.43,4.13,4.13,0,0,1-2.13-.74A4.26,4.26,0,0,1,6.93,37a4.89,4.89,0,0,1-.39-2.36A5.41,5.41,0,0,1,7,32.8a4.77,4.77,0,0,1,1-1.49l1.42,1.32a3.47,3.47,0,0,0-.74,1,3,3,0,0,0-.32,1.13,2.27,2.27,0,0,0,1.05,2.1A2.7,2.7,0,0,0,11.9,37a2.26,2.26,0,0,0,.94-.79,2.41,2.41,0,0,0,.4-1.18,3.39,3.39,0,0,0-.31-1.45Z"/><path class="cls-2" d="M7.83,28l.8-2,6,2.39,1.3-3.26,1.71.69-2.1,5.26Z"/><path class="cls-2" d="M17.68,22.15a1.54,1.54,0,0,0,1.11-.59,1.49,1.49,0,0,0,.37-1.17,1.77,1.77,0,0,0-.7-1.13l-3.73-3.11,1.38-1.66,3.74,3.11A3.69,3.69,0,0,1,21,19.15a3,3,0,0,1,.13,1.79,4.32,4.32,0,0,1-.93,1.8A4.27,4.27,0,0,1,18.59,24a3,3,0,0,1-1.8.22,3.61,3.61,0,0,1-1.74-.84l-3.74-3.11,1.38-1.66,3.74,3.11A1.69,1.69,0,0,0,17.68,22.15Z"/><path class="cls-2" d="M18.27,12.65l6-3.73.93,1.52-2.11,1.3,3.41,5.53L24.7,18.4l-3.4-5.52-2.09,1.29Z"/><path class="cls-2" d="M27,7.87,33.29,6.3,33.71,8,29.47,9l.37,1.5,3.83-.95.41,1.66-3.82,1,.37,1.52L35,12.63l.41,1.67L29,15.9Z"/><path class="cls-2" d="M42.58,6.55l2,.21L43.71,15l-1.87-.2L38.62,9.48l-.51,4.92-2-.21L37,6l1.89.2,3.22,5.35Z"/><path class="cls-2" d="M51.18,9.23l5.29,3.2-.9,1.47-3.43-2.08-1,1.57,3.17,1.93-.89,1.47-3.17-1.92-1.55,2.55L46.89,16.3Z"/><path class="cls-2" d="M55.73,23.54l1-2.41,0,0-1-1.19L53.9,21.4l-1.41-1.64,6.28-5.38,2.42,2.82a3.87,3.87,0,0,1,1.08,2.43,2.63,2.63,0,0,1-1,2.08,3.25,3.25,0,0,1-1.47.76,2.63,2.63,0,0,1-1.51-.15l-.93,3.07Zm1.21-4.75L58,20a1.42,1.42,0,0,0,.91.56,1.21,1.21,0,0,0,1-.35,1.16,1.16,0,0,0,.47-.87,1.47,1.47,0,0,0-.42-1l-1-1.19Z"/><path class="cls-2" d="M65.18,22.88,67.57,29,66,29.59l-1.59-4.06-1.44.56,1.44,3.67-1.59.63-1.46-3.67-1.45.57,1.64,4.17-1.6.63-2.43-6.18Z"/><path class="cls-2" d="M68.28,32.41l.33,6.52L66.88,39l-.21-4.36-1.55.08.2,3.94-1.71.08-.21-3.94-1.55.08.22,4.48-1.72.09L60,32.82Z"/><path class="cls-3" d="M24.21,33.79a2,2,0,0,1,.22.15,2.59,2.59,0,0,0,.23.19,1.4,1.4,0,0,0,.32.22l.36.18.4.19.43.15c.17,0,.29.09.45.12l.92.2.47.13a4.58,4.58,0,0,1,.49.15,7.82,7.82,0,0,1,1,.47,9.06,9.06,0,0,1,1.12.68,10.66,10.66,0,0,1,1.12,1,9,9,0,0,1,1,1.22,8.31,8.31,0,0,1,.84,1.49,6.39,6.39,0,0,1,.45,1.63,5.14,5.14,0,0,1,0,.78,4.82,4.82,0,0,1-.08.7,3.46,3.46,0,0,1-.42,1.07,2.58,2.58,0,0,1-.46.58,1.43,1.43,0,0,1-.14.13l-.06,0-.21-.16a4.68,4.68,0,0,0-.55-.37,4.32,4.32,0,0,0-.78-.37,6.74,6.74,0,0,0-.88-.24l-.92-.18a6.75,6.75,0,0,1-1-.28,8.62,8.62,0,0,1-1.07-.46,10.49,10.49,0,0,1-1.14-.71,9.3,9.3,0,0,1-2.19-2.23,8,8,0,0,1-.45-.73c-.07-.13-.14-.26-.2-.39s-.12-.26-.17-.4A5.8,5.8,0,0,1,23,37.06a5.12,5.12,0,0,1,0-.78A3.78,3.78,0,0,1,23.31,35a3.73,3.73,0,0,1,.24-.49l.12-.19a.89.89,0,0,1,.13-.14L24,34Z"/><path class="cls-3" d="M49.44,33.79a2.1,2.1,0,0,1,.2.18l.21.21a.92.92,0,0,1,.14.14l.11.19a2.79,2.79,0,0,1,.24.49,4.86,4.86,0,0,1,.2.58,6.93,6.93,0,0,1,.1.7,6.94,6.94,0,0,1,0,.78,6.14,6.14,0,0,1-.4,1.64,2.87,2.87,0,0,1-.18.4c-.06.13-.12.26-.19.39s-.29.5-.45.73a9.15,9.15,0,0,1-2.2,2.23,10.4,10.4,0,0,1-1.13.71,9.31,9.31,0,0,1-1.07.46,7.12,7.12,0,0,1-1,.28l-.92.18a6.47,6.47,0,0,0-.89.24,4.22,4.22,0,0,0-.77.37,4,4,0,0,0-.55.37l-.22.16,0,0L40.46,45a3.31,3.31,0,0,1-.46-.58,3.47,3.47,0,0,1-.41-1.07,4.76,4.76,0,0,1-.09-.7,6.91,6.91,0,0,1,0-.78A5.66,5.66,0,0,1,40,40.28a7.7,7.7,0,0,1,.83-1.49,9.71,9.71,0,0,1,1-1.22,11.87,11.87,0,0,1,1.13-1,9.78,9.78,0,0,1,1.11-.68,8.44,8.44,0,0,1,1-.47,4.74,4.74,0,0,1,.5-.15c.14,0,.32-.09.47-.13L47,35c.16,0,.29-.08.45-.12s.28-.1.43-.15l.41-.19.36-.18a1.34,1.34,0,0,0,.31-.22l.24-.19Z"/><path class="cls-3" d="M24.21,43.45l.22.16.23.19A2.57,2.57,0,0,0,25,44l.36.18c.14.06.26.13.4.18l.43.15a4.32,4.32,0,0,0,.45.12l.92.21L28,45l.49.16a7.71,7.71,0,0,1,1,.46,10.62,10.62,0,0,1,1.12.69,8.7,8.7,0,0,1,1.12,1,7.89,7.89,0,0,1,1,1.22,8.58,8.58,0,0,1,.84,1.48,6.62,6.62,0,0,1,.45,1.63,5.23,5.23,0,0,1,0,.78,4.8,4.8,0,0,1-.08.71,3.46,3.46,0,0,1-.42,1.07,2.58,2.58,0,0,1-.46.58,1.43,1.43,0,0,1-.14.13l-.06,0-.21-.16a4.8,4.8,0,0,0-.55-.36,4.32,4.32,0,0,0-.78-.37,6.74,6.74,0,0,0-.88-.24l-.92-.18a8.27,8.27,0,0,1-1-.28,7.44,7.44,0,0,1-1.07-.47,10.34,10.34,0,0,1-1.14-.7,9.17,9.17,0,0,1-2.19-2.24,6.67,6.67,0,0,1-.45-.72c-.07-.13-.14-.26-.2-.4a3.52,3.52,0,0,1-.17-.39A5.89,5.89,0,0,1,23,46.73,5.12,5.12,0,0,1,23,46a4.53,4.53,0,0,1,.1-.7,5.87,5.87,0,0,1,.19-.59,3.58,3.58,0,0,1,.24-.48l.12-.19a.89.89,0,0,1,.13-.14l.22-.22Z"/><path class="cls-3" d="M49.44,43.45l.2.18.21.22A.92.92,0,0,1,50,44l.11.19a2.69,2.69,0,0,1,.24.48,5.79,5.79,0,0,1,.2.59,6.19,6.19,0,0,1,.1.7,6.94,6.94,0,0,1,0,.78,6.23,6.23,0,0,1-.4,1.64,2.32,2.32,0,0,1-.18.39c-.06.14-.12.27-.19.4s-.29.5-.45.72a9,9,0,0,1-2.2,2.24,10.25,10.25,0,0,1-1.13.7,8,8,0,0,1-1.07.47,8.83,8.83,0,0,1-1,.28l-.92.18a6.47,6.47,0,0,0-.89.24,4.22,4.22,0,0,0-.77.37,4,4,0,0,0-.55.36l-.22.16,0,0-.15-.13a3.31,3.31,0,0,1-.46-.58,3.47,3.47,0,0,1-.41-1.07,4.73,4.73,0,0,1-.09-.71,7.15,7.15,0,0,1,0-.78A5.84,5.84,0,0,1,40,49.94a7.92,7.92,0,0,1,.83-1.48,8.47,8.47,0,0,1,1-1.22,9.5,9.5,0,0,1,1.13-1,11.64,11.64,0,0,1,1.11-.69,8.31,8.31,0,0,1,1-.46l.5-.16.47-.12.91-.21a3.74,3.74,0,0,0,.45-.12,3.66,3.66,0,0,0,.43-.15c.14-.05.27-.12.41-.18l.36-.18A2.44,2.44,0,0,0,49,43.8l.24-.19Z"/><path class="cls-3" d="M24.21,53.12l.22.16.23.19a1.77,1.77,0,0,0,.32.21l.36.19.4.18.43.15c.17,0,.29.09.45.12l.92.21a4.64,4.64,0,0,1,.47.12l.49.16a7.71,7.71,0,0,1,1,.46,9.18,9.18,0,0,1,1.12.69,9.46,9.46,0,0,1,1.12.94,8.48,8.48,0,0,1,1,1.23,8.58,8.58,0,0,1,.84,1.48,6.5,6.5,0,0,1,.45,1.63,5.19,5.19,0,0,1,0,.78,5.13,5.13,0,0,1-.08.71,3.56,3.56,0,0,1-.42,1.07,2.28,2.28,0,0,1-.46.57,1.82,1.82,0,0,1-.14.14l-.06,0-.21-.16a6.39,6.39,0,0,0-.55-.37,5.11,5.11,0,0,0-.78-.36,6.74,6.74,0,0,0-.88-.24l-.92-.18a8.27,8.27,0,0,1-1-.28,7.44,7.44,0,0,1-1.07-.47,10.34,10.34,0,0,1-1.14-.7,9.54,9.54,0,0,1-2.19-2.24,6,6,0,0,1-.45-.73c-.07-.13-.14-.26-.2-.39a3.7,3.7,0,0,1-.17-.4A5.72,5.72,0,0,1,23,56.39a5,5,0,0,1,0-.77,4.53,4.53,0,0,1,.1-.7,5.87,5.87,0,0,1,.19-.59,3.73,3.73,0,0,1,.24-.49l.12-.19.13-.14L24,53.3Z"/><path class="cls-3" d="M49.44,53.12a2.1,2.1,0,0,1,.2.18l.21.21c0,.05.1.09.14.14l.11.19a2.79,2.79,0,0,1,.24.49,5.79,5.79,0,0,1,.2.59,6.19,6.19,0,0,1,.1.7,6.77,6.77,0,0,1,0,.77,6,6,0,0,1-.4,1.64,2.43,2.43,0,0,1-.18.4c-.06.13-.12.26-.19.39a7.49,7.49,0,0,1-.45.73,9.38,9.38,0,0,1-2.2,2.24,10.25,10.25,0,0,1-1.13.7A8,8,0,0,1,45,63a8.83,8.83,0,0,1-1,.28l-.92.18a6.47,6.47,0,0,0-.89.24,5,5,0,0,0-.77.36,5.11,5.11,0,0,0-.55.37l-.22.16,0,0-.15-.14A2.84,2.84,0,0,1,40,63.8a3.57,3.57,0,0,1-.41-1.07A5.09,5.09,0,0,1,39.5,62a7,7,0,0,1,0-.78A5.75,5.75,0,0,1,40,59.61a7.92,7.92,0,0,1,.83-1.48,9.16,9.16,0,0,1,1-1.23A10.41,10.41,0,0,1,43,56a9.92,9.92,0,0,1,1.11-.69,8.31,8.31,0,0,1,1-.46l.5-.16a3.59,3.59,0,0,1,.47-.12l.91-.21c.16,0,.29-.08.45-.12s.28-.1.43-.15l.41-.18.36-.19a1.69,1.69,0,0,0,.31-.21l.24-.19Z"/><path class="cls-3" d="M36.83,37.09l-.06,0L36.6,37c-.12-.1-.34-.23-.56-.4a9,9,0,0,1-.72-.62,8.51,8.51,0,0,1-.76-.81,7.07,7.07,0,0,1-1.22-2,6.49,6.49,0,0,1-.45-2.3,6.28,6.28,0,0,1,.44-2.31,7.07,7.07,0,0,1,1.22-2,8.51,8.51,0,0,1,.76-.81,7.56,7.56,0,0,1,.73-.62c.21-.17.43-.3.56-.4l.17-.1.06,0,.06,0,.16.1c.13.1.35.23.57.4s.47.38.73.62a10,10,0,0,1,.76.81,7.27,7.27,0,0,1,1.21,2,6.19,6.19,0,0,1,0,4.61,7.27,7.27,0,0,1-1.21,2,10,10,0,0,1-.76.81,9,9,0,0,1-.73.62c-.21.17-.43.3-.56.4l-.16.1Z"/></g></g></svg>