<svg xmlns="http://www.w3.org/2000/svg" viewBox="0 0 44.64 44.64"><title>Recurso 1</title><g id="Capa_2" data-name="Capa 2"><g id="Capa_1-2" data-name="Capa 1"><path d="M22.32,44.64A22.32,22.32,0,1,1,44.64,22.32,22.34,22.34,0,0,1,22.32,44.64m0-42.75A20.43,20.43,0,1,0,42.75,22.32,20.45,20.45,0,0,0,22.32,1.89"/><path d="M6.38,8.35S9,7.59,9.86,7.89s3.32,2,3.17,3.63-.3,4.07.3,4.83.61,2.72,1.21,2.11,0-2.11.6-1.66,2.72,2.57,3.93,2.57,2.12.15,2.27,1.21,0,1.51-1.06,2.72S19.52,25,20,25.72s1.81,1.66,2,2.71a44.56,44.56,0,0,0,1.21,6.35c.46.9,1.66,5,2.42,5s1.06-3.93,1.2-4.69a10.15,10.15,0,0,1,2.88-4.23c1.21-.75,3.17-2.57,3.32-4.08s.76-3.47-1.36-4.23-7.7-.91-8.31-1.36a5.11,5.11,0,0,1-1.36-2.87c0-.75-1.21-1.2-1.21-1.2S22.1,14.84,23.3,15s3,.3,3,1.21.9,1.66,1.05.91-.61-1.52,0-2,2.42-.45,2.57-1.81,1.21-1.81,1.21-2.87.15-2.27-.61-2-2,2.56-3,2.56-1.66-.45-1.2-1.05a10.72,10.72,0,0,0,2-3.18c.3-1.21-.45-1.51-1.36-1.51S23.45,6.68,22.4,6.83s-2.42.46-2.27-.45a8.82,8.82,0,0,1,1.51-3.17c.6-.76,1.21-1.36,1.06-2S10.31.79,6.38,8.35"/><path d="M38.71,8.19s-.15,1.47-.15,1.66c0,.78-.09,2.81-.45,3.18s-1.21,1.35-.61,1.35,2.27-1.51,2.72-1.2,1.66,1.51,1.06,2.11-.91,1.21-1.66.61S38,14.69,37.2,15.6s-2.87,2-2,4.52,1.67,2.12,2.12,1.51,2.45.77,2.27,1.82c-.91,5.29,1.66,9.52,1.05,10.42s3.84-5.13,3-14.65a17.66,17.66,0,0,0-5-11"/><path d="M1.25,23.9s1.81-1.66,2.41-1.2,2.57,1.36,1.67,1.81-2.27-.3-2.27.6-.3,1.06.3,1.36,1.66-.3,2.12.61S6.54,29,7,29.19s-.15,3.33-.61,4.08-.15,1.66-.9,1.66S.79,29.49,1,23.9"/><path d="M6.84,22.49s-.4.1-.24-.09S10.1,20,10.75,20s.8.33.8.65.12,5.74.12,6.86.22,6,0,6.25-2.25,2.11-2.89,2.11-.24-8.91-.36-9.94a18.11,18.11,0,0,0-.61-3.27c-.25-.23-1-.14-1-.14"/><path d="M15,22a.2.2,0,0,1,0-.27,2.21,2.21,0,0,1,.55-.37,11.52,11.52,0,0,1,2.29-1.42,4.21,4.21,0,0,1,1.57.63,6.74,6.74,0,0,1,.89.51,2.57,2.57,0,0,1,.15,1.08c-.08.21-5.06,3.68-5.06,4.15s2.09,2.89,2.21,3.08,3.3,4.48,4.1,4.66c.57.14-1.12,1.41-1.69,1.64s-1.45.37-1.77.09-5.94-7.65-5.91-8.07,3.54-2.52,4.19-3.87S15.7,22.09,15,22"/></g></g></svg>