<svg xmlns="http://www.w3.org/2000/svg" xmlns:xlink="http://www.w3.org/1999/xlink" viewBox="0 0 44.64 44.64"><defs><style>.cls-1{fill:#878787;}.cls-2{clip-path:url(#clip-path);}.cls-3{fill:#fff;}</style><clipPath id="clip-path"><path class="cls-1" d="M3,22.32a19.28,19.28,0,0,0,38.56,0Z"/></clipPath></defs><title>organic</title><g id="Capa_2" data-name="Capa 2"><g id="Capa_1-2" data-name="Capa 1"><path class="cls-1" d="M3,22.32a19.28,19.28,0,0,0,38.56,0Z"/><g class="cls-2"><polygon points="41.6 22.32 2.14 22.32 3.75 28.66 41.6 22.32"/><polygon points="41.6 22.32 4.1 29.59 7.34 35.36 41.6 22.32"/><polygon points="41.6 22.32 8.28 36.02 14.17 40.42 41.6 22.32"/><polygon points="41.6 22.32 15.39 40.84 23.63 42.78 41.6 22.32"/><polygon points="41.6 22.32 25.72 41.98 40.89 41.88 41.6 22.32"/></g><path d="M22.32,44.64A22.32,22.32,0,0,1,22.32,0,22.33,22.33,0,0,1,44.64,22.32,22.33,22.33,0,0,1,22.32,44.64m0-42.85A20.53,20.53,0,1,0,42.85,22.32,20.55,20.55,0,0,0,22.32,1.79"/><path d="M10.82,11.64h1.95v6.28c0,.4.13.75.68.75s.67-.45.67-.8V11.64h2v6c0,1.41-.63,2.5-2.63,2.5-1.65,0-2.62-.79-2.62-2.5Z"/><path d="M18.52,17.18v.59c0,.48.15.9.78.9.45,0,.65-.41.65-.83,0-.71-.58-1-1.09-1.28a5.62,5.62,0,0,1-1.47-1.09,2.41,2.41,0,0,1-.57-1.67,2.18,2.18,0,0,1,2.45-2.36,2.33,2.33,0,0,1,2.48,2.7H20c0-.49,0-1.16-.64-1.2a.57.57,0,0,0-.68.55,1,1,0,0,0,.59,1A14.11,14.11,0,0,1,21,15.69a2.43,2.43,0,0,1,.72,2,2.26,2.26,0,0,1-2.51,2.49c-1.79,0-2.54-1-2.54-2.1v-.89Z"/><path d="M24.55,13.14c1,0,1.28.07,1.29,1v2.72c0,1.11,0,1.65-1.29,1.56ZM25.23,20A3.13,3.13,0,0,0,27,19.58a2,2,0,0,0,.83-1.8v-3.7A2.17,2.17,0,0,0,26.92,12a4.6,4.6,0,0,0-2.2-.38H22.6V20Z"/><path d="M31.91,16.88H30.77l.57-3.73h0ZM30.33,20l.23-1.62H32.1L32.37,20h2l-1.81-8.33H30.18L28.36,20Z"/><path class="cls-3" d="M10.18,29.21c0,.36,0,.89-.51.89s-.53-.53-.53-.89V26.65c0-.39.06-.85.52-.85s.52.46.52.85Zm1.47-2.66a1.74,1.74,0,0,0-2-1.87,1.75,1.75,0,0,0-2,1.87v2.54c0,1.41.52,2.14,2,2.14s2-.73,2-2.14Z"/><path class="cls-3" d="M13.79,26c.71,0,1,0,1,.76,0,.39-.1.78-.52.78h-.5Zm0,2.66h.48c.34,0,.46.28.5.66s0,.9,0,1.45a1.58,1.58,0,0,0,.09.36h1.6V31a.43.43,0,0,1-.14-.21c-.09-.4-.1-1.48-.14-2a.84.84,0,0,0-.72-.8v0a1.35,1.35,0,0,0,.77-1.43c0-1.24-.6-1.72-1.8-1.72H12.32v6.25h1.47Z"/><path class="cls-3" d="M19.87,31.09l-.07-.56h0a1.24,1.24,0,0,1-1.27.7c-1.24,0-1.64-.86-1.64-2V26.67c0-1.36.62-2,2-2s2,.53,2,1.81V27H19.37v-.34c0-.53-.07-.8-.46-.81s-.56.25-.56.65v3.1c0,.35.15.55.54.55s.51-.4.51-.8v-.49h-.52V27.69h2v3.4Z"/><path class="cls-3" d="M24,28.76h-.85l.43-2.8h0Zm-1.18,2.32L23,29.86h1.15l.21,1.22H25.8l-1.35-6.25H22.68l-1.37,6.25Z"/><polygon class="cls-3" points="27.5 27.58 27.49 27.59 27.62 31.08 26.23 31.08 26.23 24.83 27.74 24.83 28.87 28.32 28.89 28.32 28.75 24.83 30.14 24.83 30.14 31.08 28.65 31.08 27.5 27.58"/><rect class="cls-3" x="30.93" y="24.83" width="1.47" height="6.25"/><path class="cls-3" d="M35.64,27v-.4c0-.53-.19-.81-.46-.81-.46,0-.57.24-.57.65v3.09c0,.36.14.56.53.56s.54-.51.54-.9v-.56h1.47v.76c0,1.08-.62,1.83-2.12,1.83s-1.88-.72-1.88-2V26.67c0-1.36.63-2,2-2s2,.53,2,1.81V27Z"/></g></g></svg>