<svg xmlns="http://www.w3.org/2000/svg" viewBox="0 0 45.64 45.65"><defs><style>.cls-1,.cls-4{fill:#27241f;}.cls-1,.cls-3{stroke:#000;stroke-miterlimit:10;}.cls-2{fill:#fff;}.cls-3{fill:none;}</style></defs><title>Recurso 2</title><g id="Capa_2" data-name="Capa 2"><g id="Capa_1-2" data-name="Capa 1"><path class="cls-1" d="M45.14,22.82A22.32,22.32,0,1,1,22.82.5,22.32,22.32,0,0,1,45.14,22.82"/><path class="cls-2" d="M22.82,2.24A20.59,20.59,0,1,0,43.4,22.82,20.59,20.59,0,0,0,22.82,2.24"/><path class="cls-3" d="M23.07,4.06a19,19,0,1,0,19,19,19,19,0,0,0-19-19"/><path class="cls-4" d="M10.22,28.45v-11h3.92a2.86,2.86,0,0,1,2,.65A2.74,2.74,0,0,1,17,20.3a3.21,3.21,0,0,1-.46,1.8A2,2,0,0,1,15.1,23v0c1.11.12,1.69.86,1.74,2.25,0,.52,0,1.26.06,2.23a1.16,1.16,0,0,0,.53.95h-2a1.84,1.84,0,0,1-.3-1c0-.12,0-.81-.08-2.08a2.08,2.08,0,0,0-.38-1.32,1.59,1.59,0,0,0-1.23-.4H12v4.77ZM12,22.36h1.42a1.72,1.72,0,0,0,1.3-.48,1.77,1.77,0,0,0,.47-1.3c0-1.19-.56-1.79-1.68-1.79H12Z"/><path class="cls-4" d="M17.51,28.45l3.16-11h2.27l2.92,11H24l-.68-2.69H20.08l-.72,2.69Zm2.89-4.09H23L21.76,19h0Z"/><path class="cls-4" d="M27.51,28.45l-2.15-11h1.79L28.61,26h0l1.47-8.54H32l1.5,8.58h0l1.44-8.58H36.7l-2.21,11H32.44L31,20.18h0l-1.42,8.27Z"/></g></g></svg>