<svg xmlns="http://www.w3.org/2000/svg" viewBox="0 0 73.79 73.78"><defs><style>.cls-1{fill:#211915;}</style></defs><title>sky</title><g id="Capa_2" data-name="Capa 2"><g id="Capa_1-2" data-name="Capa 1"><path class="cls-1" d="M36.9,73.78A36.89,36.89,0,1,1,73.79,36.89,36.94,36.94,0,0,1,36.9,73.78m0-70.66A33.77,33.77,0,1,0,70.66,36.89,33.82,33.82,0,0,0,36.9,3.12"/><path class="cls-1" d="M10.55,13.79s4.25-1.24,5.74-.74,5.5,3.24,5.25,6-.5,6.75.5,8,1,4.5,2,3.5,0-3.5,1-2.74S29.53,32,31.53,32s3.5.25,3.75,2,0,2.5-1.76,4.49-1.25,2.75-.49,4,3,2.75,3.24,4.49,1.25,9,2,10.49,2.76,8.24,4,8.24,1.75-6.49,2-7.74S47,52.25,49,51s5.25-4.24,5.49-6.73,1.26-5.75-2.24-7S39.52,35.76,38.52,35a8.39,8.39,0,0,1-2.25-4.74c0-1.25-2-2-2-2s2.25-3.74,4.25-3.49,5,.5,5,2,1.49,2.74,1.74,1.49-1-2.49,0-3.24,4-.75,4.24-3,2-3,2-4.74.24-3.75-1-3.25-3.24,4.24-5,4.24-2.74-.74-2-1.74,2.74-3.24,3.24-5.25S46,8.8,44.51,8.8,38.77,11,37,11.29s-4,.76-3.74-.75A14.43,14.43,0,0,1,35.77,5.3c1-1.24,2-2.25,1.75-3.25S17,1.31,10.55,13.79"/><path class="cls-1" d="M64,13.54s-.25,2.43-.26,2.75c0,1.28-.14,4.64-.74,5.24s-2,2.25-1,2.25,3.75-2.5,4.49-2,2.75,2.5,1.75,3.5-1.5,2-2.74,1-2.75-2-4-.5S56.75,29,58.24,33.27s2.75,3.49,3.5,2.49,4,1.26,3.75,3C64,47.51,68.23,54.5,67.23,56s6.34-8.49,5-24.22A29.17,29.17,0,0,0,64,13.54"/><path class="cls-1" d="M2.06,39.51s3-2.75,4-2,4.25,2.24,2.75,3-3.75-.5-3.75,1-.5,1.75.5,2.26,2.74-.51,3.49,1,1.75,3.24,2.5,3.49-.25,5.5-1,6.75-.24,2.74-1.5,2.74-7.74-9-7.49-18.23"/><path class="cls-1" d="M11.31,37.18s-.66.16-.39-.16,5.78-4,6.84-4,1.33.55,1.33,1.08.2,9.48.2,11.34.37,9.91,0,10.33-3.72,3.47-4.78,3.47-.4-14.72-.6-16.42c-.14-1.15-.67-5.09-1-5.4s-1.6-.23-1.6-.23"/><path class="cls-1" d="M24.82,36.3a.35.35,0,0,1,0-.46,4.35,4.35,0,0,1,.91-.6c.34-.21,3.12-2.35,3.79-2.35a6.82,6.82,0,0,1,2.58,1,13.38,13.38,0,0,1,1.48.85,4.44,4.44,0,0,1,.25,1.78c-.13.35-8.37,6.09-8.37,6.86s3.46,4.79,3.66,5.09,5.45,7.4,6.78,7.71c.94.22-1.87,2.32-2.8,2.7s-2.39.62-2.92.16-9.83-12.65-9.77-13.34,5.85-4.17,6.92-6.4-1.38-2.83-2.52-3"/></g></g></svg>